<svg width="290" height="290" viewBox="0 0 290 290" fill="none" xmlns="http://www.w3.org/2000/svg">
<g clip-path="url(#clip0_1_4283)">
<path d="M132.304 115.907C132.43 118.825 130.326 122.146 125.991 125.868C124.008 127.521 121.897 129.014 119.678 130.33L116.066 128.384C125.082 123.323 129.65 118.785 129.772 114.772C129.828 113.409 128.682 112.265 126.335 111.339C124.687 110.644 122.924 110.268 121.137 110.232C115.381 110.232 109.536 111.778 103.601 114.871C96.5451 118.522 92.9841 122.916 92.9187 128.053C92.9187 130.281 95.4906 133.592 100.634 137.986L111.282 146.248C115.547 150.28 117.677 154.437 117.672 158.718C117.672 164.236 114.74 168.423 108.876 171.28C104.247 173.513 98.8458 174.662 92.6732 174.727C83.3372 174.759 74.062 173.217 65.2332 170.166L67.9196 167.276C71.8121 169.098 75.8386 170.616 79.9632 171.816C84.1209 172.81 88.3786 173.318 92.6521 173.332C98.0812 173.388 102.804 172.483 106.821 170.618C112.068 168.188 114.691 164.541 114.691 159.677C114.691 155.753 112.535 152.136 108.224 148.828C106.129 147.277 102.089 144.173 96.1032 139.516C91.7636 136.104 89.5635 132.579 89.5027 128.941C89.4419 122.432 93.5476 117.228 101.82 113.327C107.86 110.409 114.471 108.882 121.172 108.857C128.467 108.839 132.178 111.188 132.304 115.907Z" fill="#F15B40"/>
<path d="M150.106 154.904C149.114 159.136 147.457 163.182 145.196 166.889C142.11 172.096 139.054 174.702 136.029 174.706C133.44 174.706 132.108 172.81 132.052 169.025C131.978 167.606 132.166 166.187 132.606 164.837C131.488 166.891 130.254 168.97 128.902 171.076C127.294 173.491 125.318 174.702 122.975 174.706C122.353 174.605 121.791 174.276 121.397 173.783C121.007 173.205 120.766 172.539 120.695 171.844C120.695 164.654 121.712 159.183 123.747 155.433L126.805 154.883C125.87 158.432 124.605 163.716 123.01 170.738C123.01 172.267 123.347 173.057 124.027 173.12C126.005 173.12 128.383 170.589 131.161 165.528C132.995 162.229 134.573 158.793 135.881 155.25L138.94 154.883C138.444 156.293 137.455 159.301 135.973 163.907C135.203 165.969 134.73 168.132 134.57 170.329C134.57 172.209 135.217 173.148 136.513 173.148C139.538 173.21 142.316 169.798 144.846 162.913C145.341 161.606 146.277 159.061 147.651 155.278L150.106 154.904Z" fill="#F15B40"/>
<path d="M166.288 158.084C166.349 160.391 164.93 162.729 162.031 165.098C159.357 167.069 156.467 168.725 153.417 170.033L153.326 170.78C153.326 172.338 154.252 173.247 156.132 173.494C158.601 173.494 161.687 171.478 165.391 167.445H165.854L165.391 169.046C161.444 172.937 157.832 174.946 154.553 175.073C151.654 175.134 150.05 173.489 149.742 170.138C149.742 167.022 151.145 163.672 153.95 160.086C156.756 156.5 159.672 154.677 162.697 154.615C165.026 154.559 166.239 155.715 166.288 158.084ZM164.254 158.253C164.254 156.766 163.553 156.018 162.15 156.018C160.172 156.018 158.227 157.724 156.314 161.136C154.57 164.153 153.67 166.79 153.614 169.046C156.1 168.069 158.39 166.651 160.375 164.858C162.882 162.626 164.175 160.424 164.254 158.253Z" fill="#F15B40"/>
<path d="M185.087 158.084C185.148 160.391 183.728 162.729 180.829 165.098C178.155 167.068 175.265 168.724 172.216 170.033L172.124 170.78C172.124 172.338 173.05 173.247 174.93 173.494C177.399 173.494 180.485 171.478 184.189 167.445H184.652L184.189 169.046C180.242 172.937 176.63 174.946 173.352 175.073C170.457 175.134 168.853 173.489 168.54 170.138C168.54 167.022 169.943 163.672 172.749 160.086C175.554 156.5 178.47 154.677 181.495 154.615C183.824 154.559 185.024 155.715 185.087 158.084ZM183.053 158.253C183.053 156.766 182.351 156.018 180.948 156.018C178.97 156.018 177.025 157.724 175.112 161.136C173.387 164.172 172.491 166.809 172.426 169.046C174.912 168.069 177.202 166.651 179.188 164.858C181.699 162.626 182.994 160.424 183.074 158.253H183.053Z" fill="#F15B40"/>
<path d="M203.513 150.153L203.331 151.831H197.102L191.673 170.075C191.653 170.452 191.589 170.826 191.484 171.189C191.484 172.119 192.003 172.599 193.055 172.599C194.107 172.599 195.37 172.006 196.857 170.829C198.519 169.151 199.536 168.101 199.908 167.664L200.28 168.594C196.95 172.754 193.864 174.868 191.021 174.939C188.917 175.002 187.843 173.818 187.78 171.414C187.805 170.908 187.897 170.408 188.054 169.927L193.427 151.873H190.93L191.295 150.195H193.799L197.804 136.195L201.388 135.441L197.257 150.153H203.513Z" fill="#F15B40"/>
<path d="M157.892 290C155.557 290 153.256 288.484 151.025 287.018C148.984 285.672 146.873 284.283 145 284.283C143.127 284.283 141.016 285.693 138.975 287.018C136.59 288.583 134.135 290.204 131.617 289.979C129.099 289.753 126.896 287.667 124.813 285.665C123.08 283.994 121.306 282.267 119.496 281.935C117.686 281.604 115.343 282.57 113.099 283.507C110.995 284.382 108.89 285.277 106.891 285.277C106.356 285.281 105.822 285.209 105.306 285.065C102.837 284.36 101.097 281.928 99.428 279.581C98.0251 277.614 96.5731 275.577 94.8687 274.914C93.3255 274.315 90.7583 274.752 88.3173 275.274C85.4134 275.894 82.3271 276.345 80.349 275.351C78.0624 274.202 76.8419 271.495 75.5933 268.88C74.5692 266.68 73.489 264.411 71.9669 263.438C70.7114 262.662 68.8736 262.557 67.2393 262.557C66.6571 262.557 66.0609 262.557 65.4646 262.557C62.6589 262.627 59.7199 262.761 57.6086 261.147C55.4973 259.532 54.8379 256.713 54.1014 253.921C53.4982 251.566 52.881 249.134 51.5202 247.894C50.1594 246.653 47.6904 246.251 45.2985 245.863C42.4927 245.405 39.5397 244.933 37.8212 243.044C36.1027 241.154 35.9063 238.18 35.7169 235.289C35.5556 232.864 35.3802 230.355 34.272 228.874C33.1637 227.394 30.8139 226.562 28.5343 225.744C25.8337 224.772 23.035 223.77 21.6883 221.585C20.3415 219.4 20.6922 216.467 20.9868 213.605C21.2744 211.187 21.562 208.671 20.7413 207.028C19.9207 205.386 17.7673 204.124 15.684 202.904C13.2009 201.445 10.6337 199.943 9.70782 197.547C8.78193 195.15 9.67275 192.337 10.5215 189.595C11.2229 187.268 11.9945 184.858 11.4895 183.067C10.9844 181.276 9.1116 179.676 7.28086 178.09C5.09941 176.194 2.84781 174.234 2.37084 171.689C1.89387 169.144 3.28972 166.585 4.62945 164.055C5.77278 161.89 6.95119 159.663 6.78285 157.795C6.6145 155.927 5.07135 154.037 3.5773 152.155C1.85879 149.942 0 147.594 0 145C0 142.406 1.85879 140.065 3.65446 137.788C5.14851 135.899 6.69867 133.946 6.86 132.149C7.02133 130.351 5.84994 128.053 4.70661 125.896C3.36687 123.365 1.98505 120.736 2.448 118.24C2.91094 115.745 5.16254 113.743 7.35802 111.846C9.17473 110.26 11.0546 108.625 11.5666 106.87C12.0787 105.114 11.3281 102.64 10.6057 100.342C9.75692 97.5995 8.87311 94.7586 9.79199 92.39C10.7109 90.0214 13.2991 88.4846 15.7752 87.0254C17.8795 85.8058 19.9838 84.544 20.8255 82.9014C21.6672 81.2589 21.3586 78.7423 21.078 76.3243C20.7413 73.4622 20.3766 70.5085 21.7374 68.3443C23.0982 66.1802 25.8828 65.158 28.5904 64.1852C30.863 63.3674 33.2198 62.5286 34.3281 61.0552C35.4363 59.5819 35.6047 57.0723 35.7309 54.6473C35.9273 51.7782 36.1308 48.8033 37.8352 46.8929C39.5397 44.9825 42.4857 44.5243 45.3195 44.0731C47.7114 43.6924 50.1804 43.2906 51.5342 42.0499C52.888 40.8092 53.5193 38.3701 54.1225 36.0156C54.8239 33.1958 55.5745 30.376 57.6296 28.797C59.6848 27.2179 62.6729 27.3236 65.4857 27.3871C66.0749 27.3871 66.6711 27.3871 67.2533 27.3871C68.8876 27.3871 70.7605 27.2813 71.9809 26.5059C73.5381 25.5331 74.5903 23.2632 75.6073 21.0637C76.8208 18.4484 78.0764 15.7414 80.3701 14.5923C82.3551 13.5984 85.4274 14.0566 88.3313 14.6769C90.7723 15.1915 93.3466 15.6357 94.8827 15.0294C96.5872 14.3668 98.0391 12.3365 99.442 10.3697C101.118 8.01521 102.858 5.58315 105.327 4.88526C107.572 4.23671 110.462 5.32232 113.12 6.43614C115.365 7.38076 117.658 8.36063 119.517 8.00816C121.376 7.65569 123.094 5.94972 124.834 4.28606C126.938 2.27696 129.042 0.211477 131.638 -0.0282041C134.233 -0.267885 136.611 1.38168 138.989 2.93256C141.03 4.27196 143.141 5.6607 145.014 5.6607C146.887 5.6607 148.998 4.25081 151.039 2.93256C153.41 1.40988 155.879 -0.197391 158.383 -6.30476e-06C160.887 0.197378 163.104 2.30516 165.187 4.31425C166.92 5.97792 168.694 7.70504 170.504 8.03636C172.314 8.36768 174.657 7.40896 176.901 6.46433C179.005 5.59725 181.11 4.70197 183.109 4.70197C183.644 4.69821 184.178 4.76939 184.694 4.91346C187.163 5.6184 188.903 8.04341 190.572 10.3979C191.975 12.3647 193.427 14.402 195.124 15.0576C196.674 15.6639 199.242 15.2268 201.683 14.7051C204.587 14.0848 207.666 13.6336 209.651 14.6276C211.938 15.7766 213.193 18.4836 214.407 21.099C215.431 23.2914 216.511 25.5683 218.033 26.5341C219.289 27.3166 221.126 27.4223 222.761 27.4223C223.343 27.4223 223.939 27.4223 224.528 27.4223C227.334 27.3518 230.28 27.2179 232.391 28.8322C234.503 30.4465 235.162 33.2593 235.899 36.0579C236.502 38.4054 237.126 40.8374 238.48 42.0781C239.834 43.3188 242.31 43.7277 244.702 44.1084C247.507 44.5666 250.46 45.0389 252.179 46.9281C253.897 48.8174 254.094 51.7852 254.283 54.6825C254.451 57.1075 254.62 59.6171 255.728 61.0905C256.836 62.5638 259.186 63.4027 261.466 64.2204C264.166 65.1932 266.965 66.1943 268.312 68.3725C269.658 70.5508 269.308 73.4975 268.971 76.3525C268.691 78.7705 268.396 81.2871 269.224 82.9367C270.051 84.5863 272.191 85.8411 274.274 87.0606C276.757 88.5199 279.331 90.0214 280.257 92.4252C281.183 94.8291 280.292 97.6277 279.436 100.37C278.735 102.703 277.97 105.107 278.475 106.898C278.981 108.688 280.853 110.296 282.684 111.875C284.859 113.771 287.117 115.738 287.594 118.276C288.071 120.813 286.675 123.379 285.336 125.91C284.192 128.074 283.007 130.309 283.182 132.17C283.357 134.031 284.894 135.934 286.388 137.81C288.183 140.079 290.042 142.427 290.042 145.014C290.042 147.601 288.183 149.949 286.388 152.226C284.894 154.115 283.343 156.061 283.182 157.865C283.021 159.67 284.192 161.968 285.336 164.125C286.675 166.656 288.057 169.271 287.594 171.767C287.131 174.262 284.873 176.264 282.684 178.161C280.867 179.747 278.988 181.382 278.475 183.145C277.963 184.907 278.714 187.339 279.436 189.665C280.292 192.407 281.169 195.248 280.25 197.624C279.331 200 276.743 201.522 274.274 202.982C272.17 204.201 270.065 205.463 269.224 207.106C268.382 208.748 268.691 211.265 268.971 213.683C269.301 216.545 269.673 219.491 268.312 221.663C266.951 223.834 264.166 224.849 261.459 225.822C259.179 226.633 256.829 227.478 255.721 228.952C254.613 230.425 254.444 232.935 254.276 235.36C254.087 238.229 253.883 241.204 252.172 243.114C250.46 245.025 247.521 245.476 244.688 245.934C242.296 246.322 239.827 246.723 238.466 247.964C237.105 249.205 236.488 251.644 235.885 253.991C235.183 256.811 234.433 259.673 232.377 261.217C230.322 262.761 227.327 262.683 224.514 262.627C223.925 262.627 223.322 262.627 222.74 262.627C221.112 262.627 219.275 262.733 218.026 263.515C216.469 264.481 215.41 266.758 214.393 268.957C213.179 271.573 211.924 274.28 209.644 275.422C207.659 276.416 204.573 275.965 201.676 275.344C199.235 274.823 196.66 274.385 195.117 274.985C193.413 275.647 191.961 277.685 190.558 279.651C188.882 282.006 187.149 284.431 184.68 285.136C182.428 285.784 179.539 284.692 176.887 283.585C174.643 282.64 172.356 281.653 170.49 282.006C168.624 282.358 166.913 284.064 165.18 285.735C163.076 287.737 160.937 289.81 158.369 290.049L157.892 290ZM145 282.506C147.399 282.506 149.735 284.043 152.014 285.531C154.119 286.941 156.349 288.393 158.243 288.209C160.137 288.026 162.129 286.179 163.995 284.382C165.861 282.584 167.902 280.624 170.209 280.194C172.517 279.764 175.119 280.836 177.603 281.872C180.086 282.908 182.513 283.86 184.238 283.359C186.111 282.824 187.661 280.652 189.148 278.552C190.635 276.451 192.312 274.118 194.5 273.265C196.464 272.496 199.361 272.961 202.062 273.54C204.65 274.089 207.35 274.526 208.872 273.765C210.605 272.898 211.727 270.48 212.814 268.126C213.902 265.771 215.108 263.191 217.114 261.929C218.742 260.914 220.881 260.78 222.761 260.78C223.357 260.78 223.974 260.78 224.584 260.78C225.195 260.78 225.777 260.78 226.359 260.78C228.127 260.78 230.091 260.653 231.332 259.716C232.875 258.538 233.535 255.958 234.18 253.463C234.881 250.854 235.534 248.162 237.28 246.561C239.027 244.961 241.763 244.524 244.407 244.094C246.939 243.685 249.562 243.262 250.867 241.824C252.172 240.386 252.347 237.735 252.523 235.169C252.698 232.484 252.887 229.706 254.318 227.81C255.749 225.914 258.344 224.99 260.863 224.081C263.381 223.171 265.773 222.311 266.811 220.655C267.849 218.998 267.512 216.376 267.218 213.824C266.909 211.145 266.579 208.374 267.645 206.246C268.712 204.117 271.075 202.721 273.383 201.374C275.691 200.028 277.907 198.731 278.609 196.912C279.31 195.093 278.518 192.577 277.753 190.123C276.953 187.55 276.126 184.886 276.778 182.588C277.43 180.29 279.5 178.506 281.513 176.751C283.526 174.995 285.476 173.296 285.834 171.372C286.191 169.447 284.943 167.142 283.729 164.886C282.467 162.497 281.155 160.022 281.372 157.633C281.59 155.243 283.301 153.135 284.957 151.041C286.612 148.948 288.225 146.91 288.225 144.937C288.225 142.963 286.563 140.862 284.957 138.832C283.35 136.801 281.59 134.602 281.372 132.24C281.155 129.879 282.46 127.376 283.729 124.987C284.922 122.724 286.163 120.39 285.834 118.508C285.504 116.626 283.463 114.821 281.513 113.122C279.563 111.423 277.416 109.555 276.778 107.293C276.14 105.03 276.953 102.358 277.753 99.7496C278.518 97.3035 279.303 94.7657 278.609 92.9751C277.914 91.1845 275.607 89.8029 273.383 88.4987C271.16 87.1946 268.691 85.7494 267.645 83.6346C266.6 81.5198 266.909 78.7 267.225 76.0564C267.519 73.5045 267.828 70.861 266.818 69.2185C265.808 67.576 263.311 66.6666 260.877 65.7995C258.351 64.8901 255.742 63.9596 254.318 62.0633C252.894 60.167 252.705 57.3966 252.523 54.7107C252.347 52.1377 252.172 49.48 250.867 48.049C249.562 46.618 246.904 46.2584 244.4 45.8214C241.756 45.3914 239.013 44.9472 237.266 43.347C235.52 41.7468 234.839 39.0539 234.166 36.4527C233.493 33.8514 232.868 31.37 231.36 30.1998C230.119 29.2552 228.141 29.1283 226.373 29.1283C225.791 29.1283 225.195 29.1283 224.606 29.1283C224.016 29.1283 223.392 29.1283 222.796 29.1283C220.916 29.1283 218.77 28.9944 217.142 27.9792C215.101 26.7879 213.937 24.2994 212.807 21.8533C211.678 19.4071 210.605 17.0949 208.865 16.2137C207.343 15.4524 204.657 15.8824 202.047 16.4393C199.347 17.0173 196.436 17.4756 194.493 16.7142C192.298 15.8612 190.691 13.6125 189.141 11.4271C187.591 9.24181 186.09 7.14813 184.231 6.61942C182.506 6.11891 179.98 7.10583 177.603 8.0998C175.225 9.09378 172.517 10.2146 170.202 9.78462C167.888 9.35461 165.889 7.46535 163.967 5.63955C162.045 3.81374 160.172 1.99499 158.222 1.81875C156.272 1.64251 154.119 3.0947 151.993 4.49049C149.735 5.97792 147.399 7.5147 144.979 7.5147C142.559 7.5147 140.251 5.97792 137.965 4.49049C135.86 3.0806 133.672 1.63546 131.743 1.81875C129.814 2.00204 127.857 3.84899 125.991 5.63955C124.125 7.43011 122.077 9.40395 119.784 9.86921C117.49 10.3345 114.874 9.22771 112.383 8.1844C110.013 7.19043 107.473 6.21055 105.748 6.70401C103.875 7.23272 102.318 9.411 100.838 11.5117C99.3578 13.6125 97.6814 15.9458 95.4859 16.7988C93.5219 17.5602 90.632 17.0949 87.9315 16.5168C85.3432 15.967 82.6427 15.5299 81.1206 16.2913C79.3811 17.1654 78.2588 19.5833 77.1715 21.9308C76.0843 24.2783 74.8779 26.8654 72.8718 28.1273C71.2444 29.1424 69.0981 29.2834 67.2182 29.2834C66.622 29.2834 66.0118 29.2834 65.4085 29.2834C64.8053 29.2834 64.2231 29.2834 63.6479 29.2834C61.8733 29.2834 59.8953 29.4103 58.6608 30.3549C57.1106 31.5251 56.4512 34.1052 55.8129 36.6007C55.1466 39.209 54.4592 41.9019 52.7126 43.5021C50.966 45.1023 48.2515 45.4125 45.5931 45.8214C43.0609 46.2302 40.4376 46.6532 39.1329 48.0913C37.8282 49.5294 37.6529 52.18 37.4775 54.746C37.2951 57.4318 37.1057 60.2093 35.6818 62.1056C34.2579 64.0019 31.6486 64.9254 29.1305 65.8347C26.6123 66.7441 24.2204 67.6042 23.1893 69.2537C22.1582 70.9033 22.4879 73.5398 22.7755 76.0917C23.0911 78.7705 23.4138 81.5409 22.3546 83.6698C21.2955 85.7988 18.9176 87.1946 16.6099 88.5339C14.3022 89.8733 12.0857 91.1845 11.3842 93.0103C10.6828 94.8362 11.4824 97.3387 12.24 99.7919C13.0396 102.365 13.8673 105.03 13.215 107.328C12.5626 109.626 10.4934 111.409 8.48031 113.165C6.4672 114.92 4.51722 116.619 4.16651 118.543C3.81579 120.468 5.05031 122.773 6.2708 125.036C7.53338 127.426 8.83804 129.893 8.62761 132.283C8.41718 134.673 6.69166 136.801 5.03628 138.874C3.3809 140.947 1.76059 143.012 1.76059 144.986C1.76059 146.96 3.43 149.06 5.03628 151.091C6.64256 153.121 8.40315 155.32 8.61358 157.682C8.82401 160.043 7.52636 162.56 6.26379 164.957C5.06434 167.22 3.82982 169.553 4.15949 171.435C4.48916 173.318 6.53033 175.122 8.48031 176.821C10.4303 178.52 12.5697 180.388 13.215 182.658C13.8603 184.928 13.0326 187.593 12.233 190.194C11.4754 192.647 10.6828 195.178 11.3772 196.976C12.0716 198.773 14.3794 200.141 16.6029 201.445C18.8264 202.749 21.2955 204.194 22.3476 206.309C23.3998 208.424 23.0491 211.244 22.7685 213.887C22.4739 216.439 22.1652 219.083 23.1753 220.725C24.1854 222.368 26.6825 223.277 29.1235 224.144C31.5644 225.011 34.2509 225.991 35.6678 227.88C37.0847 229.77 37.2881 232.554 37.4705 235.24C37.6459 237.806 37.8212 240.464 39.1259 241.895C40.4305 243.326 43.0469 243.749 45.579 244.165C48.2234 244.587 50.959 245.032 52.7126 246.632C54.4662 248.232 55.1466 250.925 55.8129 253.526C56.4793 256.127 57.1106 258.609 58.6537 259.779C59.8953 260.724 61.8663 260.851 63.6269 260.851C64.2091 260.851 64.8053 260.851 65.4015 260.851C65.9977 260.851 66.622 260.851 67.2182 260.851C69.0981 260.851 71.2444 260.992 72.8718 262.007C74.8779 263.254 76.0422 265.771 77.1715 268.203C78.3008 270.635 79.374 272.969 81.1136 273.843C82.6427 274.604 85.3222 274.167 87.9315 273.617C90.632 273.039 93.543 272.574 95.4859 273.342C97.6814 274.195 99.2877 276.444 100.838 278.622C102.388 280.8 103.889 282.901 105.748 283.437C107.473 283.93 109.999 282.951 112.376 281.95C114.754 280.949 117.469 279.835 119.777 280.272C122.084 280.709 124.069 282.612 125.991 284.459C127.913 286.306 129.786 288.111 131.736 288.287C133.686 288.463 135.832 287.011 137.965 285.608C140.286 284.043 142.601 282.506 145 282.506Z" fill="#EF4136"/>
<path d="M145 269.662C76.5402 269.662 20.8466 213.739 20.8466 145C20.8466 76.2609 76.5473 20.3376 145 20.3376C213.453 20.3376 269.153 76.2679 269.153 145C269.153 213.732 213.46 269.662 145 269.662ZM145 22.1141C77.5152 22.1141 22.6072 77.2407 22.6072 145C22.6072 212.759 77.5152 267.879 145 267.879C212.485 267.879 267.393 212.752 267.393 144.993C267.393 77.2337 212.485 22.1141 145 22.1141V22.1141Z" fill="#EF4136"/>
<path d="M145 243.685C90.8074 243.685 46.7083 199.415 46.7083 144.993C46.7083 90.5712 90.8074 46.3007 145 46.3007C199.193 46.3007 243.285 90.5712 243.285 144.993C243.285 199.415 199.207 243.685 145 243.685ZM145 48.0842C91.7754 48.0842 48.476 91.5652 48.476 145C48.476 198.435 91.7754 241.916 145 241.916C198.225 241.916 241.524 198.442 241.524 145C241.524 91.5582 198.225 48.0842 145 48.0842V48.0842Z" fill="#EF4136"/>
<path d="M37.6809 99.6368L36.7761 101.949L48.7004 106.651L48.4268 107.356L36.5025 102.661L35.5836 104.994L35.0576 104.783L35.9694 102.45L36.25 101.745L37.1759 99.3971L37.6809 99.6368Z" fill="black"/>
<path d="M41.1179 90.9378L53.1054 96.8523L52.7687 97.5572L46.6031 94.5119L44.8916 97.9872L51.0502 101.033L50.7135 101.738L38.726 95.816L39.0627 95.1111L44.3796 97.7335L46.063 94.2863L40.7812 91.6427L41.1179 90.9378Z" fill="black"/>
<path d="M56.9633 89.0204L57.4473 89.3094L55.343 92.8341L55.2448 92.9963L54.9432 93.5038L43.4888 86.6095L45.9438 82.4785L46.4348 82.7746L44.3726 86.2358L48.9669 88.9992L50.6293 86.1794L51.1133 86.4685L49.4509 89.2883L54.859 92.538L56.9633 89.0204Z" fill="black"/>
<path d="M56.3741 68.2879L66.7483 76.7473L66.2573 77.3465L56.3881 69.296L64.5317 78.9537L63.9987 79.6164L52.8459 73.8076L62.6659 81.8088L62.1819 82.415L51.8078 73.9557L52.1865 73.4834L52.2918 73.3494L52.6495 72.9053L63.3253 78.5449L55.4903 69.3806L55.8971 68.8801L55.9743 68.7743L56.3741 68.2879Z" fill="black"/>
<path d="M64.7562 61.9012L71.8196 68.9013C72.1497 69.228 72.3407 69.6707 72.3525 70.1362C72.3642 70.6017 72.1959 71.0536 71.8827 71.3968L70.536 72.7644C70.2038 73.087 69.7599 73.2673 69.298 73.2673C68.836 73.2673 68.3921 73.087 68.0599 72.7644L61.0246 65.7361C60.6943 65.4105 60.5036 64.9681 60.4932 64.5033C60.4827 64.0385 60.6532 63.5879 60.9685 63.2476L62.3082 61.88C62.6417 61.5686 63.0811 61.3972 63.5364 61.4011C63.9916 61.4051 64.4281 61.584 64.7562 61.9012V61.9012ZM71.2935 69.4441L64.2231 62.444C64.0336 62.2288 63.7708 62.0928 63.4864 62.0628C63.202 62.0328 62.9168 62.1109 62.687 62.2818L61.3402 63.6494C61.1755 63.8843 61.105 64.173 61.1427 64.4578C61.1804 64.7427 61.3236 65.0028 61.5436 65.1862L68.6071 72.1863C68.7944 72.4017 69.0549 72.5392 69.3377 72.5718C69.6205 72.6043 69.9052 72.5298 70.1362 72.3626L71.4759 70.995C71.6424 70.7598 71.7159 70.4708 71.6822 70.1842C71.6485 69.8976 71.51 69.6338 71.2935 69.4441V69.4441Z" fill="black"/>
<path d="M77.0242 60.7028L78.7568 62.7471C79.0533 63.0977 79.2042 63.5496 79.1781 64.009C79.152 64.4684 78.9509 64.9 78.6165 65.2144L77.1154 66.4974C76.754 66.7763 76.2997 66.9048 75.8465 66.8562C75.3934 66.8077 74.9763 66.5858 74.6815 66.2366L72.9489 64.1922L73.5451 63.6917L75.2707 65.729C75.4375 65.9614 75.6851 66.1224 75.9645 66.1798C76.2438 66.2373 76.5345 66.1871 76.7787 66.0392L78.2307 64.7914C78.4168 64.5735 78.5151 64.2935 78.506 64.0064C78.4969 63.7194 78.3812 63.4461 78.1816 63.2406L76.4561 61.1962C75.9791 60.6323 75.5723 60.6534 74.8007 60.7169C74.0291 60.7803 72.8998 60.8437 71.995 60.9424C71.6176 61.0384 71.2211 61.0273 70.8495 60.9103C70.478 60.7933 70.1461 60.5751 69.8907 60.2798L68.3966 58.5104C68.0929 58.1616 67.9375 57.7071 67.9637 57.2444C67.99 56.7817 68.1958 56.3478 68.5369 56.036L69.7153 55.0279C70.078 54.7436 70.536 54.6111 70.9936 54.6585C71.4512 54.7058 71.8729 54.9291 72.1703 55.2817L73.8959 57.319L73.3067 57.8266L71.5741 55.7822C71.4075 55.5516 71.1612 55.392 70.8834 55.3346C70.6057 55.2772 70.3167 55.3262 70.0731 55.4721L68.8946 56.4872C68.7093 56.705 68.6127 56.9852 68.6245 57.2716C68.6362 57.5579 68.7552 57.8292 68.9578 58.031L70.3186 59.6383C70.9218 60.3432 71.3286 60.2657 72.0581 60.1952C72.7876 60.1247 74.2887 60.0049 75.0322 59.9203C75.4039 59.8477 75.7884 59.8827 76.1411 60.0212C76.4937 60.1598 76.8 60.3961 77.0242 60.7028Z" fill="black"/>
<path d="M79.1355 48.5918L77.1575 50.0511L84.6558 60.4772L84.0385 60.9213L76.5122 50.5022L74.485 51.9685L74.1554 51.5103L76.1755 50.0511L76.7928 49.6069L78.7988 48.1477L79.1355 48.5918Z" fill="black"/>
<path d="M92.6451 41.8807L97.3377 50.6502C97.5523 51.0554 97.5989 51.5294 97.4676 51.969C97.3362 52.4086 97.0375 52.7783 96.6363 52.9977L94.2865 54.2807L93.585 54.6402L87.2722 42.8183L87.7912 42.5434L87.9525 42.4517L90.3023 41.1828C90.4975 41.0569 90.7173 40.9746 90.9469 40.9418C91.1765 40.9089 91.4105 40.9262 91.6328 40.9924C91.8552 41.0587 92.0607 41.1723 92.2354 41.3256C92.4101 41.4789 92.5498 41.6682 92.6451 41.8807ZM96.6573 51.045L91.9577 42.2684C91.8464 42.0063 91.6364 41.7991 91.3735 41.6921C91.1106 41.5851 90.8163 41.587 90.5549 41.6974L88.2051 42.9663L93.9919 53.7661L96.3417 52.4901C96.5733 52.3347 96.7358 52.0948 96.7947 51.8212C96.8536 51.5476 96.8043 51.2616 96.6573 51.0239V51.045Z" fill="black"/>
<path d="M105.797 48.0349L106.028 48.5566L102.283 50.2061L102.107 50.2837L101.574 50.5163L96.2154 38.2221L100.599 36.2905L100.831 36.8122L97.1553 38.4336L99.3017 43.3682L102.262 42.064L102.493 42.5857L99.5262 43.8898L102.058 49.6915L105.797 48.0349Z" fill="black"/>
<path d="M112.825 45.4689L113.015 46.0117L109.606 47.2313L108.904 47.4921L108.722 46.9563L104.513 34.8313L105.215 34.5705L109.423 46.6744L112.825 45.4689Z" fill="black"/>
<path d="M117.048 44.8203L116.297 45.0318L112.65 32.1243L113.4 31.9128L117.048 44.8203Z" fill="black"/>
<path d="M123.277 33.8726L122.751 31.4335C122.631 30.8766 122.133 30.3196 121.572 30.4395L119.889 30.799C119.614 30.8984 119.388 31.1003 119.257 31.3628C119.127 31.6253 119.102 31.9283 119.187 32.2089L121.243 41.9583C121.279 42.2335 121.422 42.4833 121.639 42.6545C121.857 42.8258 122.132 42.9048 122.407 42.8747L124.09 42.5152C124.356 42.4337 124.578 42.2502 124.71 42.0047C124.841 41.7591 124.87 41.4713 124.792 41.204L124.196 38.3842L124.953 38.2221L125.549 41.0418C125.657 41.4874 125.587 41.9575 125.355 42.3523C125.124 42.7472 124.748 43.0357 124.308 43.1567L122.547 43.5303C122.089 43.6112 121.618 43.5091 121.234 43.2457C120.85 42.9823 120.584 42.5784 120.492 42.1204L118.437 32.371C118.337 31.9162 118.419 31.4404 118.664 31.0452C118.909 30.65 119.298 30.3668 119.748 30.2562L121.432 29.8967C121.89 29.8139 122.362 29.9152 122.747 30.179C123.131 30.4427 123.397 30.8476 123.487 31.3066L124.006 33.7457L123.277 33.8726Z" fill="black"/>
<path d="M130.529 41.9935L129.765 42.1063L127.864 28.8181L128.629 28.7053L130.529 41.9935Z" fill="black"/>
<path d="M138.954 29.4244L139.69 39.3641C139.725 39.8265 139.579 40.2845 139.283 40.6402C138.987 40.9958 138.564 41.2209 138.105 41.2674L136.204 41.4155C135.742 41.4351 135.29 41.2731 134.944 40.9639C134.599 40.6548 134.386 40.2226 134.352 39.7589L133.651 29.8262C133.615 29.363 133.761 28.9042 134.057 28.5474C134.353 28.1906 134.776 27.964 135.236 27.9158L137.144 27.7748C137.598 27.7645 138.04 27.9299 138.376 28.2368C138.713 28.5437 138.92 28.9688 138.954 29.4244V29.4244ZM138.954 39.4205L138.252 29.4808C138.21 28.9098 137.768 28.2965 137.2 28.3388L135.292 28.4798C134.731 28.522 134.401 29.1847 134.443 29.7698L135.145 39.7025C135.187 40.2735 135.615 40.8868 136.176 40.8445L138.084 40.7035C138.631 40.6612 138.975 39.9844 138.933 39.4205H138.954Z" fill="black"/>
<path d="M149.167 27.6127L148.984 39.3077C148.977 39.7716 148.791 40.2147 148.465 40.5434C148.139 40.8722 147.699 41.061 147.238 41.0701H145.512C145.278 41.0628 145.048 41.0092 144.835 40.9123C144.622 40.8154 144.431 40.6772 144.271 40.5056C144.111 40.3339 143.987 40.1323 143.905 39.9122C143.823 39.6921 143.785 39.4579 143.794 39.2231L143.969 27.5351H144.747L144.565 39.2302C144.565 39.8012 144.923 40.4568 145.491 40.4638H147.217C147.785 40.4638 148.17 39.8294 148.177 39.2583L148.36 27.5633L149.167 27.6127Z" fill="black"/>
<path d="M158.524 37.362L158.257 40.0338C158.214 40.4939 157.995 40.9191 157.645 41.2191C157.295 41.5192 156.843 41.6706 156.384 41.641L154.427 41.4437C153.978 41.3787 153.57 41.143 153.288 40.7849C153.006 40.4269 152.872 39.9739 152.912 39.5192L153.179 36.8474L153.95 36.925L153.684 39.5967C153.628 40.1677 153.943 40.8445 154.504 40.9009L156.412 41.0912C156.973 41.1546 157.436 40.5484 157.492 39.9774L157.759 37.3127C157.829 36.6077 157.535 36.2905 156.959 35.7759C156.384 35.2613 155.557 34.4859 154.855 33.8796C154.529 33.6716 154.266 33.3773 154.096 33.0292C153.925 32.681 153.853 32.2924 153.887 31.9058L154.119 29.6147C154.16 29.1539 154.379 28.7276 154.729 28.4272C155.079 28.1268 155.532 27.9761 155.991 28.0074L157.535 28.1625C157.99 28.2275 158.402 28.4673 158.684 28.8315C158.967 29.1957 159.098 29.6559 159.05 30.1152L158.783 32.7869L158.012 32.7094L158.278 30.0377C158.334 29.4667 158.019 28.7899 157.457 28.7335L155.914 28.5784C155.346 28.522 154.904 29.1283 154.848 29.6922L154.638 31.8071C154.546 32.7376 154.883 32.9773 155.444 33.4566C156.005 33.936 157.128 34.9441 157.71 35.4234C158.01 35.64 158.245 35.9355 158.388 36.2776C158.532 36.6197 158.579 36.9949 158.524 37.362V37.362Z" fill="black"/>
<path d="M173.289 35.3741L173.871 32.9561C173.96 32.6835 173.944 32.3871 173.826 32.1258C173.708 31.8646 173.496 31.6576 173.233 31.5463L171.563 31.1444C171.009 31.0105 170.49 31.5533 170.357 32.1032L168.049 41.7891C167.964 42.0519 167.984 42.3377 168.106 42.5854C168.228 42.8331 168.442 43.023 168.701 43.1144L170.378 43.5162C170.65 43.5528 170.925 43.4811 171.145 43.3165C171.365 43.1519 171.513 42.9073 171.556 42.635L172.223 39.8153L172.98 39.9985L172.279 42.7831C172.181 43.2256 171.917 43.6132 171.542 43.8652C171.167 44.1173 170.71 44.2145 170.266 44.1366L168.512 43.7136C168.072 43.5909 167.697 43.3028 167.463 42.9089C167.229 42.5151 167.155 42.0459 167.256 41.5988L169.571 31.9128C169.678 31.4582 169.959 31.0643 170.353 30.8162C170.747 30.5682 171.222 30.486 171.675 30.5875L173.345 30.9893C173.571 31.0432 173.785 31.1414 173.973 31.2783C174.162 31.4152 174.321 31.5882 174.443 31.7873C174.565 31.9864 174.647 32.2076 174.683 32.4385C174.72 32.6693 174.711 32.9051 174.657 33.1324L174.081 35.5574L173.289 35.3741Z" fill="black"/>
<path d="M180.338 42.494L177.532 41.5494L175.428 45.483L174.727 45.2574L181.285 33.2734L181.657 33.4003L181.93 33.4919L182.323 33.6188L180.471 47.1396L179.77 46.8999L180.338 42.494ZM180.429 41.923L181.524 34.1687L177.792 41.0278L180.429 41.923Z" fill="black"/>
<path d="M187.935 42.494L186.153 43.9815L184.175 48.6411L183.474 48.3521L188.699 36.0015L189.401 36.2905L186.756 42.5575L192.592 37.6229L193.294 37.926L188.615 41.8384L188.236 50.3542L187.535 50.051L187.935 42.494Z" fill="black"/>
<path d="M195.615 53.5335L195.349 54.041L191.729 52.1659L191.561 52.0813L191.042 51.8063L197.215 39.9139L201.423 42.1345L201.157 42.6421L197.607 40.781L195.131 45.5464L198 47.048L197.741 47.5555L194.872 46.054L191.954 51.6936L195.615 53.5335Z" fill="black"/>
<path d="M213.558 51.9685L207.848 60.1035C207.582 60.4833 207.179 60.7442 206.725 60.831C206.271 60.9178 205.801 60.8238 205.414 60.5688L203.857 59.462C203.489 59.1827 203.244 58.7704 203.173 58.3125C203.103 57.8547 203.212 57.3871 203.478 57.0088L209.188 48.8738C209.452 48.493 209.854 48.2312 210.307 48.1442C210.761 48.0573 211.23 48.1521 211.615 48.4085L213.179 49.5153C213.549 49.7935 213.795 50.2059 213.866 50.6644C213.937 51.1228 213.826 51.5908 213.558 51.9685ZM207.245 59.6665L212.955 51.5314C213.135 51.3084 213.226 51.0253 213.209 50.7381C213.193 50.451 213.069 50.1807 212.864 49.9805L211.306 48.8738C211.05 48.7488 210.757 48.7251 210.484 48.8074C210.211 48.8896 209.979 49.0718 209.833 49.3179L204.117 57.453C203.935 57.6732 203.842 57.9541 203.856 58.24C203.87 58.5259 203.991 58.796 204.194 58.9968L205.751 60.1035C206.008 60.2263 206.301 60.2496 206.574 60.1689C206.847 60.0883 207.081 59.9094 207.231 59.6665H207.245Z" fill="black"/>
<path d="M222.67 57.1639L214.021 67.3997L213.53 66.9768L213.446 66.9063L212.849 66.3987L218.72 54.7248L210.528 64.4178L209.939 63.9173L218.587 53.6815L219.043 54.0763L219.176 54.182L219.625 54.5627L213.747 66.5468L222.087 56.6775L222.67 57.1639Z" fill="black"/>
<path d="M224.276 77.1068L223.855 77.4875L221.119 74.4421L220.993 74.3011L220.593 73.857L230.512 64.8549L233.724 68.4289L233.303 68.8096L230.61 65.8206L226.64 69.4229L228.807 71.8409L228.379 72.2215L226.212 69.7895L221.54 74.0191L224.276 77.1068Z" fill="black"/>
<path d="M231.69 80.2932L229.866 77.9034L225.903 79.9618L225.461 79.3838L237.575 73.1873L237.813 73.5045L237.989 73.7301L238.241 74.0685L229.123 84.2127L228.66 83.6135L231.69 80.2932ZM232.083 79.8702L237.322 74.0755L230.385 77.6496L232.083 79.8702Z" fill="black"/>
<path d="M238.199 85.7988L237.035 83.973L231.423 87.5893L231.017 86.9478L242.24 79.7151L242.541 80.1945L242.646 80.3566L244.084 82.6124C244.327 83.0002 244.408 83.4685 244.31 83.9159C244.211 84.3632 243.941 84.7535 243.558 85.0022L240.837 86.7504C240.499 86.9637 240.099 87.0554 239.703 87.0106C239.307 86.9658 238.937 86.7871 238.655 86.5037L234.11 91.8472L233.661 91.1422L238.199 85.7988ZM237.498 83.6839L238.936 85.9397C239.111 86.1576 239.363 86.298 239.64 86.3309C239.917 86.3639 240.195 86.2867 240.416 86.116L243.144 84.3677C243.384 84.2345 243.565 84.0153 243.651 83.7539C243.737 83.4925 243.721 83.2082 243.607 82.9578L242.169 80.702L237.498 83.6839Z" fill="black"/>
<path d="M249.107 92.6367L247.935 90.4443L236.656 96.4928L236.305 95.8231L247.605 89.7676L246.434 87.5541L246.932 87.2862L248.111 89.4997L248.468 90.2047L249.633 92.397L249.107 92.6367Z" fill="black"/>
<path d="M253.448 100.92L241.194 106.249L240.886 105.544L247.199 102.809L245.684 99.2843L239.371 102.02L239.062 101.315L251.316 95.9852L251.625 96.6901L246.203 99.0447L247.718 102.569L253.147 100.208L253.448 100.92Z" fill="black"/>
<path d="M191.491 112.551C188.477 112.559 185.558 111.49 183.256 109.534C180.378 110.517 177.329 110.891 174.3 110.632C171.272 110.374 168.329 109.489 165.657 108.033C163.122 110.265 159.867 111.497 156.496 111.501C155.358 111.496 154.225 111.349 153.123 111.064L156.468 129.252H190.53L193.644 112.333C192.934 112.467 192.214 112.54 191.491 112.551V112.551ZM166.808 125.903H166.66C166.407 125.902 166.163 125.81 165.973 125.643C165.782 125.476 165.658 125.245 165.622 124.994L164.31 115.893C164.29 115.756 164.296 115.617 164.329 115.483C164.363 115.348 164.422 115.222 164.504 115.111C164.587 115 164.69 114.907 164.808 114.837C164.927 114.766 165.058 114.72 165.194 114.701C165.332 114.683 165.471 114.691 165.605 114.727C165.739 114.762 165.865 114.824 165.975 114.909C166.085 114.993 166.178 115.099 166.247 115.219C166.316 115.34 166.362 115.473 166.38 115.611L167.691 124.719C167.729 124.993 167.658 125.272 167.492 125.494C167.327 125.716 167.081 125.863 166.808 125.903V125.903ZM175.421 124.909C175.421 125.19 175.31 125.458 175.113 125.657C174.916 125.855 174.648 125.966 174.369 125.966C174.09 125.966 173.822 125.855 173.625 125.657C173.428 125.458 173.317 125.19 173.317 124.909V115.703C173.317 115.422 173.428 115.153 173.625 114.955C173.822 114.756 174.09 114.645 174.369 114.645C174.648 114.645 174.916 114.756 175.113 114.955C175.31 115.153 175.421 115.422 175.421 115.703V124.909ZM184.477 115.907L183.158 125.008C183.124 125.259 183.001 125.489 182.812 125.656C182.622 125.823 182.379 125.916 182.127 125.917H181.972C181.836 125.898 181.705 125.852 181.587 125.782C181.469 125.711 181.366 125.618 181.285 125.507C181.203 125.396 181.144 125.27 181.112 125.135C181.079 125.001 181.074 124.862 181.096 124.726L182.372 115.611C182.412 115.33 182.561 115.077 182.787 114.908C183.013 114.738 183.296 114.665 183.575 114.705C183.854 114.745 184.106 114.895 184.275 115.122C184.444 115.349 184.517 115.634 184.477 115.914V115.907Z" fill="#CE4832"/>
<path d="M151.572 108.294C151.86 108.42 152.141 108.554 152.442 108.653C152.744 108.752 153.045 108.843 153.347 108.935C153.649 109.027 153.95 109.083 154.259 109.154C154.567 109.218 154.878 109.265 155.192 109.295C155.504 109.333 155.817 109.355 156.132 109.358C156.445 109.383 156.759 109.383 157.072 109.358C157.386 109.347 157.7 109.319 158.012 109.273L158.937 109.118C159.246 109.062 159.541 108.956 159.842 108.872L160.298 108.745L160.733 108.568C161.021 108.442 161.322 108.35 161.596 108.195L162.424 107.751C162.69 107.589 162.943 107.398 163.202 107.222C163.463 107.047 163.709 106.852 163.939 106.637C164.186 106.443 164.42 106.234 164.64 106.01L165.285 105.305L165.349 105.234L165.426 105.283L166.457 105.89C166.801 106.087 167.158 106.249 167.516 106.432C167.874 106.616 168.217 106.757 168.61 106.912L169.164 107.13L169.725 107.321C170.104 107.441 170.476 107.575 170.869 107.659C171.262 107.744 171.633 107.856 172.026 107.927L173.198 108.117C173.59 108.167 173.99 108.188 174.383 108.23C174.776 108.272 175.169 108.23 175.561 108.272H176.158L176.74 108.237L177.939 108.153C178.339 108.153 178.711 108.033 179.097 107.976C179.482 107.92 179.868 107.864 180.247 107.758L181.383 107.441C181.573 107.384 181.762 107.342 181.944 107.278L182.492 107.06L183.593 106.644L183.866 106.538L184.119 106.757C184.413 107.011 184.687 107.285 184.996 107.525C185.3 107.767 185.619 107.991 185.95 108.195C186.275 108.403 186.615 108.587 186.967 108.745L187.486 108.991L188.033 109.182C188.757 109.433 189.508 109.596 190.27 109.668C190.642 109.718 191.028 109.668 191.407 109.718H191.491C191.533 109.718 191.449 109.718 191.491 109.718H191.673H191.975L192.585 109.661C192.775 109.644 192.962 109.611 193.146 109.562L193.686 109.443L193.932 109.393L194.219 109.309L194.367 109.259H194.444H194.409H194.444L194.732 109.154L194.872 109.097H194.907H194.942H194.893L194.963 109.062L195.244 108.942C195.419 108.857 195.629 108.78 195.777 108.688L196.254 108.435L196.731 108.131C197.354 107.728 197.931 107.255 198.449 106.722C198.966 106.185 199.418 105.589 199.796 104.945C200.175 104.305 200.481 103.624 200.708 102.915C200.928 102.209 201.071 101.481 201.136 100.744C201.15 100.561 201.15 100.377 201.136 100.194V99.6721C201.113 98.9256 201.012 98.1836 200.834 97.4586C200.722 97.1131 200.645 96.7536 200.497 96.4152C199.97 95.0503 199.146 93.821 198.085 92.8172C197.025 91.8134 195.754 91.0605 194.367 90.6135L193.665 90.4021L193.595 89.5279L193.35 88.118C193.237 87.6598 193.097 87.2087 192.978 86.7504C192.859 86.2922 192.634 85.8693 192.466 85.4252C192.298 84.981 192.059 84.5722 191.856 84.1422C191.402 83.3092 190.879 82.5168 190.291 81.7735C189.701 81.0112 189.044 80.3034 188.327 79.6587C187.98 79.3349 187.612 79.0335 187.226 78.7564C187.03 78.6154 186.847 78.4533 186.651 78.3264L186.048 77.9386L185.438 77.5509L184.806 77.2125L184.175 76.8742C183.965 76.7614 183.733 76.6838 183.516 76.5851C183.081 76.3853 182.636 76.2088 182.183 76.0564L181.481 75.8309C181.254 75.7443 181.019 75.6782 180.78 75.6335C180.31 75.5277 179.847 75.3938 179.377 75.3092L177.974 75.0977L176.529 75.0061H176.2H175.821H175.056C174.797 75.0061 174.558 75.0061 174.355 75.0484L173.654 75.1118C173.184 75.1471 172.7 75.2599 172.251 75.3303C171.802 75.4008 171.304 75.5489 170.848 75.6546C170.392 75.7604 169.922 75.9437 169.445 76.0917C168.968 76.2397 168.54 76.4512 168.084 76.6345C167.628 76.8178 167.207 77.0575 166.772 77.283C166.338 77.5086 165.924 77.7695 165.517 78.0444C165.11 78.3193 164.696 78.5801 164.324 78.8974C163.935 79.1958 163.563 79.5158 163.209 79.8561L162.669 80.3566C162.494 80.5328 162.339 80.7232 162.171 80.8994C162.003 81.0756 161.834 81.2589 161.68 81.4493L161.224 82.0344C160.923 82.4237 160.642 82.8284 160.382 83.2469C160.095 83.6557 159.898 84.1069 159.646 84.5369C159.393 84.9669 159.239 85.4392 159.029 85.8904L158.86 86.257L158.496 86.2006C158.159 86.1512 157.794 86.0808 157.485 86.0385C157.177 85.9962 156.784 85.975 156.482 85.975H155.416L154.413 86.1089C153.735 86.2278 153.068 86.407 152.421 86.6447C152.095 86.758 151.776 86.8922 151.467 87.0465C151.151 87.1834 150.846 87.346 150.555 87.5329L150.106 87.7938L149.679 88.0969L149.258 88.4071C149.124 88.5128 148.991 88.6326 148.865 88.7454C148.594 88.9621 148.338 89.1977 148.1 89.4504C147.85 89.6957 147.616 89.9571 147.399 90.2329C146.961 90.7792 146.574 91.3644 146.242 91.9811C146.087 92.2984 145.919 92.6085 145.786 92.9328L145.407 93.9197L145.133 94.9419C145.056 95.2873 145.014 95.6468 144.951 95.9852C144.866 96.6867 144.833 97.3936 144.853 98.1001C144.853 98.4525 144.916 98.805 144.944 99.1575C144.972 99.5099 145.049 99.8624 145.147 100.201C145.224 100.547 145.322 100.889 145.442 101.223C145.55 101.561 145.677 101.893 145.821 102.217C145.961 102.548 146.129 102.858 146.291 103.176C146.452 103.493 146.641 103.796 146.852 104.078C147.248 104.67 147.699 105.222 148.199 105.728C148.692 106.246 149.232 106.718 149.812 107.137C150.365 107.572 150.954 107.959 151.572 108.294V108.294ZM151.572 108.294C150.273 107.691 149.087 106.868 148.065 105.861C147.565 105.355 147.109 104.806 146.704 104.219C146.487 103.937 146.326 103.613 146.129 103.317C145.933 103.021 145.793 102.689 145.652 102.358C145.512 102.027 145.365 101.702 145.253 101.364C145.135 101.026 145.034 100.683 144.951 100.335C144.853 99.9823 144.804 99.6298 144.726 99.2773C144.649 98.9248 144.621 98.5724 144.607 98.2128C144.561 97.5081 144.573 96.8008 144.642 96.098C144.691 95.7385 144.733 95.3931 144.797 95.0265L145.049 93.9761L145.407 92.954C145.54 92.6156 145.701 92.2913 145.849 91.967C146.177 91.3222 146.56 90.7067 146.992 90.1271C147.418 89.5391 147.902 88.9959 148.437 88.5058L148.83 88.1321L149.258 87.7938L149.693 87.4554L150.149 87.1593C150.449 86.9543 150.763 86.7706 151.088 86.6095C151.408 86.4345 151.739 86.2791 152.077 86.1442C152.758 85.8624 153.463 85.6407 154.182 85.4815L155.283 85.2912L156.349 85.2066C156.749 85.2066 157.093 85.2066 157.471 85.2066C157.85 85.2066 158.173 85.2842 158.566 85.3194L158.033 85.6296C158.229 85.1432 158.397 84.6427 158.615 84.1633C158.832 83.6839 159.05 83.1975 159.316 82.7534C159.569 82.289 159.847 81.8394 160.151 81.407L160.607 80.7584C160.768 80.5469 160.937 80.3496 161.105 80.1381C161.273 79.9266 161.435 79.7292 161.617 79.5318L162.164 78.9608C162.522 78.566 162.922 78.2559 163.314 77.8681C163.707 77.4804 164.149 77.2125 164.563 76.8812C164.977 76.5499 165.44 76.2891 165.882 75.9859C166.324 75.6828 166.808 75.4713 167.285 75.2105C167.761 74.9497 168.245 74.7593 168.736 74.5549C169.227 74.3505 169.725 74.1672 170.238 74.0121C170.75 73.857 171.255 73.6949 171.774 73.5891C172.293 73.4834 172.812 73.3495 173.352 73.286L174.166 73.1803C174.439 73.138 174.706 73.1098 174.958 73.0957L175.716 73.0534H176.094H176.536C177.062 73.0534 177.603 73.0534 178.136 73.1027L179.728 73.2931C180.261 73.3777 180.78 73.5045 181.306 73.6103C181.571 73.6544 181.831 73.7204 182.085 73.8077L182.856 74.0403C183.374 74.192 183.883 74.3756 184.378 74.5902C184.624 74.6959 184.883 74.7805 185.122 74.9003L185.823 75.2599L186.525 75.6264L187.226 76.0494L187.928 76.4794C188.159 76.6274 188.363 76.8037 188.58 76.9588C189.023 77.2738 189.447 77.6152 189.85 77.9809C190.669 78.6961 191.424 79.4816 192.108 80.3284C192.792 81.1789 193.403 82.0869 193.932 83.0424C194.17 83.5359 194.451 84.0153 194.633 84.5228C194.816 85.0304 195.04 85.545 195.201 86.0666C195.363 86.5883 195.503 87.1241 195.622 87.6598L195.896 89.2882L195.075 88.2943C195.933 88.5832 196.758 88.9612 197.537 89.4222C198.308 89.8927 199.025 90.4458 199.677 91.0718C200.327 91.7071 200.902 92.4169 201.388 93.1866C201.871 93.9498 202.267 94.7657 202.567 95.6186C202.87 96.4752 203.07 97.365 203.163 98.2692C203.214 98.6973 203.24 99.1281 203.24 99.5593V99.7567V99.9259V100.264C203.24 100.483 203.24 100.708 203.184 100.934C203.085 101.825 202.881 102.701 202.574 103.542C202.27 104.38 201.87 105.18 201.381 105.925C200.9 106.671 200.333 107.357 199.691 107.969C199.053 108.584 198.347 109.124 197.586 109.577L197.018 109.901L196.401 110.197C196.191 110.303 196.015 110.359 195.819 110.437L195.531 110.542H195.461L195.342 110.585L195.194 110.634C194.354 110.893 193.489 111.06 192.613 111.134H192.003H191.701H191.344C190.909 111.092 190.474 111.092 190.053 111.015C189.198 110.881 188.362 110.644 187.563 110.31L186.967 110.07L186.399 109.767C186.016 109.574 185.65 109.35 185.304 109.097C184.948 108.857 184.609 108.593 184.287 108.308C183.965 108.033 183.677 107.715 183.375 107.419L183.908 107.532L182.737 107.92L182.155 108.11C181.958 108.174 181.755 108.202 181.552 108.251L180.359 108.519C179.959 108.611 179.546 108.639 179.139 108.695C178.732 108.752 178.318 108.822 177.925 108.829L176.719 108.865H176.101L175.498 108.829C175.091 108.794 174.685 108.829 174.285 108.731C173.885 108.632 173.478 108.632 173.078 108.568L171.886 108.322C171.493 108.23 171.107 108.103 170.715 107.997C170.325 107.891 169.941 107.764 169.564 107.617L168.996 107.412L168.442 107.173C168.069 107.02 167.704 106.848 167.348 106.658C166.99 106.461 166.646 106.292 166.281 106.08L165.257 105.439H165.398L164.696 106.143C164.477 106.367 164.243 106.574 163.995 106.764C163.755 106.974 163.5 107.165 163.23 107.335C162.964 107.504 162.704 107.687 162.431 107.842L161.589 108.279C161.304 108.419 161.011 108.541 160.712 108.646L160.27 108.822L159.814 108.949C159.513 109.027 159.211 109.132 158.902 109.189L157.962 109.337C157.651 109.378 157.337 109.402 157.023 109.407C156.71 109.428 156.396 109.428 156.083 109.407C155.451 109.38 154.823 109.304 154.203 109.182C153.901 109.104 153.586 109.055 153.291 108.956C152.996 108.858 152.688 108.78 152.393 108.66C152.098 108.54 151.86 108.42 151.572 108.294Z" fill="#CE4832"/>
<path d="M111.401 253.484L110.637 256.127C110.506 256.582 110.205 256.968 109.797 257.204C109.389 257.441 108.906 257.51 108.448 257.396L106.512 256.832C106.071 256.676 105.706 256.356 105.492 255.938C105.278 255.52 105.232 255.035 105.362 254.584L106.127 251.947L106.891 252.173L106.127 254.809C106.023 255.084 106.025 255.389 106.135 255.662C106.244 255.935 106.451 256.156 106.716 256.283L108.596 256.825C109.157 256.995 109.732 256.473 109.893 255.909L110.651 253.272C110.861 252.567 110.616 252.201 110.132 251.574C109.648 250.946 108.953 250.009 108.336 249.261C108.043 248.994 107.832 248.649 107.725 248.266C107.618 247.884 107.621 247.478 107.733 247.097L108.385 244.834C108.512 244.377 108.812 243.987 109.221 243.75C109.631 243.513 110.116 243.446 110.574 243.565L112.096 244.009C112.543 244.158 112.915 244.476 113.132 244.896C113.35 245.316 113.395 245.805 113.26 246.258L112.503 248.895L111.738 248.669L112.496 246.033C112.602 245.76 112.6 245.456 112.492 245.184C112.384 244.912 112.177 244.691 111.913 244.566L110.384 244.115C109.83 243.953 109.276 244.482 109.108 245.046L108.512 247.118C108.245 248.042 108.512 248.345 109.017 248.937C109.522 249.529 110.419 250.749 110.924 251.341C111.199 251.615 111.389 251.963 111.474 252.343C111.558 252.722 111.533 253.118 111.401 253.484V253.484Z" fill="black"/>
<path d="M115.421 259.102L114.642 258.919L117.686 245.525L118.458 245.701L115.421 259.102Z" fill="black"/>
<path d="M127.745 247.435L125.479 261.013L124.834 260.9H124.715L123.929 260.773L122.996 247.379L120.85 260.244L120.064 260.11L122.33 246.533L122.94 246.639H123.115L123.705 246.738L124.799 260.385L126.973 247.287L127.745 247.435Z" fill="black"/>
<path d="M135.594 252.673L135.846 250.135C135.902 249.55 135.58 248.852 135.005 248.796L133.251 248.62C132.669 248.563 132.22 249.184 132.164 249.769L131.168 259.927C131.118 260.207 131.179 260.495 131.337 260.731C131.496 260.967 131.739 261.131 132.016 261.189L133.777 261.365C134.06 261.362 134.331 261.248 134.532 261.048C134.733 260.848 134.85 260.578 134.857 260.294L135.145 257.368L135.937 257.446L135.643 260.378C135.604 260.841 135.389 261.271 135.043 261.58C134.697 261.888 134.246 262.051 133.784 262.035L131.953 261.852C131.484 261.788 131.057 261.544 130.762 261.171C130.468 260.797 130.329 260.324 130.375 259.85L131.378 249.691C131.423 249.217 131.65 248.779 132.012 248.47C132.374 248.162 132.841 248.008 133.314 248.042L135.068 248.218C135.538 248.278 135.966 248.52 136.26 248.893C136.555 249.266 136.694 249.739 136.646 250.213L136.393 252.751L135.594 252.673Z" fill="black"/>
<path d="M144.881 262.063V262.648L140.672 262.444H140.476H139.88L140.581 248.69L145.491 248.93V249.515L141.388 249.318L141.121 254.83L144.432 254.993V255.571L141.121 255.408L140.805 261.894L144.881 262.063Z" fill="black"/>
<path d="M156.826 248.556L157.822 262.289L157.03 262.345L156.069 249.586L154.027 251.129L153.971 250.354L155.998 248.613L156.826 248.556Z" fill="black"/>
<path d="M167.383 248.965L168.309 254.781L169.01 259.053C169.077 259.483 168.984 259.923 168.748 260.289C168.513 260.654 168.151 260.919 167.733 261.034V261.034L165.994 261.316C165.534 261.387 165.064 261.272 164.688 260.996C164.312 260.719 164.06 260.305 163.988 259.843L163.679 257.897L164.444 257.77L164.759 259.716C164.783 260.001 164.914 260.267 165.127 260.457C165.34 260.647 165.618 260.748 165.903 260.738L167.453 260.484C167.727 260.406 167.961 260.225 168.105 259.978C168.248 259.731 168.291 259.437 168.224 259.159L167.523 254.978C167.275 255.226 166.956 255.388 166.611 255.444L164.872 255.726C164.409 255.797 163.937 255.682 163.557 255.407C163.178 255.131 162.922 254.716 162.844 254.252L162.143 249.783C162.106 249.553 162.115 249.318 162.168 249.091C162.222 248.864 162.32 248.65 162.456 248.462C162.592 248.273 162.764 248.113 162.962 247.992C163.16 247.87 163.38 247.789 163.609 247.753L165.349 247.471C165.58 247.434 165.816 247.443 166.044 247.498C166.272 247.553 166.486 247.653 166.675 247.792C166.864 247.931 167.024 248.106 167.146 248.308C167.267 248.509 167.348 248.732 167.383 248.965ZM167.306 253.554L166.604 249.085C166.579 248.801 166.447 248.537 166.234 248.348C166.021 248.159 165.744 248.06 165.461 248.07L163.714 248.352C163.44 248.43 163.206 248.611 163.063 248.858C162.919 249.105 162.876 249.399 162.943 249.677L163.644 254.147C163.669 254.43 163.802 254.692 164.015 254.878C164.228 255.065 164.505 255.161 164.787 255.148L166.534 254.866C166.807 254.791 167.041 254.612 167.185 254.367C167.329 254.123 167.372 253.831 167.306 253.554V253.554Z" fill="black"/>
<path d="M175.716 247.034L177.119 252.751L178.157 256.98C178.267 257.408 178.214 257.862 178.009 258.253C177.804 258.644 177.462 258.944 177.048 259.095V259.095L175.337 259.518C174.887 259.624 174.413 259.548 174.019 259.305C173.625 259.062 173.342 258.672 173.233 258.221L172.763 256.311L173.513 256.12L173.955 258.01C174.003 258.293 174.159 258.548 174.389 258.72C174.618 258.892 174.905 258.968 175.19 258.933L176.712 258.552C176.983 258.451 177.204 258.246 177.327 257.983C177.451 257.719 177.466 257.417 177.371 257.142L176.382 253.075C176.154 253.34 175.85 253.527 175.512 253.611L173.801 254.041C173.346 254.154 172.865 254.08 172.464 253.837C172.063 253.594 171.774 253.201 171.661 252.744L170.574 248.352C170.514 248.124 170.5 247.887 170.531 247.653C170.563 247.42 170.64 247.195 170.759 246.992C170.878 246.789 171.035 246.611 171.223 246.469C171.41 246.328 171.624 246.225 171.851 246.167L173.569 245.737C174.025 245.623 174.507 245.697 174.909 245.94C175.311 246.183 175.601 246.576 175.716 247.034V247.034ZM176.031 251.616L174.944 247.224C174.896 246.942 174.741 246.69 174.513 246.519C174.284 246.348 173.999 246.273 173.717 246.308L171.998 246.738C171.727 246.839 171.506 247.044 171.384 247.308C171.262 247.572 171.248 247.873 171.346 248.147L172.433 252.539C172.481 252.819 172.635 253.069 172.863 253.237C173.09 253.405 173.374 253.478 173.654 253.442L175.372 253.012C175.508 252.965 175.635 252.893 175.743 252.798C175.851 252.702 175.94 252.587 176.004 252.457C176.068 252.327 176.106 252.186 176.115 252.042C176.125 251.898 176.106 251.753 176.059 251.616H176.031Z" fill="black"/>
<path d="M187.079 254.083C187.155 254.303 187.187 254.537 187.174 254.769C187.16 255.002 187.1 255.23 186.999 255.44C186.897 255.649 186.755 255.837 186.581 255.991C186.407 256.145 186.204 256.264 185.985 256.339L184.498 256.854C184.054 257.004 183.569 256.972 183.148 256.765C182.728 256.558 182.406 256.192 182.253 255.747L181.488 253.519L182.239 253.258L183.004 255.493C183.077 255.77 183.253 256.008 183.496 256.157C183.739 256.307 184.03 256.357 184.308 256.297L185.795 255.789C186.057 255.666 186.26 255.446 186.362 255.175C186.464 254.903 186.457 254.603 186.342 254.337L185.01 250.424C184.937 250.147 184.759 249.91 184.513 249.763C184.268 249.617 183.975 249.573 183.698 249.642L182.008 250.227L181.818 249.67L183.319 249.156C183.576 249.03 183.776 248.81 183.876 248.541C183.977 248.272 183.971 247.975 183.859 247.71L182.842 244.743C182.772 244.465 182.598 244.225 182.356 244.074C182.114 243.923 181.823 243.872 181.545 243.932L180.422 244.32C180.173 244.443 179.979 244.658 179.88 244.919C179.781 245.181 179.784 245.47 179.889 245.73L180.591 247.781L179.84 248.042L179.139 245.99C178.991 245.544 179.023 245.058 179.23 244.636C179.436 244.214 179.798 243.89 180.24 243.735L181.341 243.354H181.383C181.822 243.211 182.3 243.248 182.712 243.456C183.125 243.665 183.438 244.028 183.586 244.468L184.603 247.436C184.69 247.694 184.717 247.969 184.68 248.239C184.644 248.51 184.545 248.768 184.392 248.993C184.667 249.047 184.925 249.164 185.147 249.334C185.37 249.504 185.551 249.722 185.676 249.973L187.079 254.083Z" fill="black"/>
<path d="M96.0962 202.756H205.449C205.587 202.708 205.707 202.618 205.791 202.499C205.876 202.379 205.921 202.237 205.921 202.09C205.921 201.943 205.876 201.8 205.791 201.681C205.707 201.562 205.587 201.472 205.449 201.424H96.0962C95.9583 201.472 95.8388 201.562 95.7542 201.681C95.6696 201.8 95.6241 201.943 95.6241 202.09C95.6241 202.237 95.6696 202.379 95.7542 202.499C95.8388 202.618 95.9583 202.708 96.0962 202.756Z" fill="#EF4136"/>
<path d="M96.0962 219.097H205.449C205.624 219.097 205.792 219.027 205.916 218.903C206.039 218.778 206.109 218.61 206.109 218.434C206.109 218.258 206.039 218.09 205.916 217.965C205.792 217.841 205.624 217.771 205.449 217.771H96.0962C95.9213 217.771 95.7536 217.841 95.63 217.965C95.5063 218.09 95.4368 218.258 95.4368 218.434C95.4368 218.61 95.5063 218.778 95.63 218.903C95.7536 219.027 95.9213 219.097 96.0962 219.097V219.097Z" fill="#EF4136"/>
<path d="M111.31 208.241V206.217C111.31 205.752 111.002 205.23 110.539 205.23H109.136C108.673 205.23 108.364 205.752 108.364 206.217V214.303C108.347 214.528 108.418 214.751 108.562 214.924C108.706 215.096 108.912 215.205 109.136 215.227H110.539C110.762 215.205 110.968 215.096 111.112 214.924C111.257 214.751 111.328 214.528 111.31 214.303V211.977H111.942V214.303C111.953 214.674 111.819 215.034 111.568 215.305C111.317 215.577 110.97 215.739 110.602 215.755H109.143C108.767 215.744 108.41 215.586 108.148 215.315C107.886 215.044 107.74 214.681 107.74 214.303V206.217C107.734 206.029 107.766 205.841 107.834 205.665C107.902 205.489 108.005 205.328 108.136 205.193C108.266 205.058 108.423 204.95 108.596 204.876C108.769 204.803 108.955 204.765 109.143 204.765H110.546C110.922 204.776 111.278 204.934 111.54 205.205C111.802 205.476 111.949 205.839 111.949 206.217V208.241H111.31Z" fill="black"/>
<path d="M118.107 212.118H115.68L115.035 215.713H114.453L116.438 204.793H117.329L119.37 215.713H118.752L118.107 212.118ZM118.037 211.652L116.908 205.4L115.771 211.652H118.037Z" fill="black"/>
<path d="M123.726 209.89L122.87 211.575V215.713H122.267V204.807H122.87V210.341L125.676 204.807H126.307L124.048 209.227L126.461 215.713H125.837L123.726 209.89Z" fill="black"/>
<path d="M133.111 215.248V215.713H129.162V204.807H133.055V205.273H129.765V209.643H132.395V210.109H129.765V215.248H133.111Z" fill="black"/>
<path d="M139.992 212.132V214.303C139.992 214.681 139.845 215.044 139.584 215.315C139.322 215.586 138.965 215.744 138.589 215.755H136.99C136.614 215.744 136.257 215.586 135.995 215.315C135.733 215.044 135.587 214.681 135.587 214.303V212.125H136.218V214.303C136.218 214.768 136.527 215.29 136.983 215.29H138.54C138.996 215.29 139.318 214.768 139.318 214.303V212.125C139.318 211.519 139.059 211.321 138.554 210.948C138.049 210.574 137.305 210.024 136.681 209.594C136.4 209.454 136.163 209.238 135.997 208.97C135.831 208.703 135.742 208.394 135.741 208.078V206.21C135.735 206.022 135.768 205.834 135.836 205.658C135.904 205.482 136.006 205.321 136.137 205.186C136.268 205.051 136.424 204.943 136.597 204.869C136.77 204.796 136.956 204.758 137.144 204.758H138.421C138.608 204.758 138.794 204.796 138.967 204.869C139.14 204.943 139.297 205.051 139.428 205.186C139.559 205.321 139.661 205.482 139.729 205.658C139.797 205.834 139.829 206.022 139.823 206.21V208.389H139.192V206.21C139.192 205.745 138.891 205.223 138.428 205.223H137.165C136.702 205.223 136.393 205.745 136.393 206.21V207.959C136.393 208.713 136.688 208.882 137.179 209.228C137.67 209.573 138.659 210.292 139.164 210.637C139.426 210.785 139.643 211.003 139.789 211.267C139.935 211.531 140.005 211.83 139.992 212.132Z" fill="black"/>
<path d="M156.3 206.217V209.368C156.3 209.742 156.152 210.101 155.889 210.365C155.626 210.63 155.269 210.778 154.897 210.778H152.73V215.713H152.105V204.807H154.911C155.281 204.811 155.634 204.961 155.894 205.225C156.154 205.489 156.3 205.846 156.3 206.217ZM155.669 209.333V206.217C155.687 205.99 155.616 205.765 155.472 205.589C155.329 205.413 155.122 205.299 154.897 205.273H152.73V210.264H154.897C155.115 210.241 155.316 210.135 155.459 209.969C155.602 209.803 155.677 209.588 155.669 209.368V209.333Z" fill="black"/>
<path d="M161.792 212.118H159.365L158.72 215.699H158.138L160.151 204.793H161.042L163.055 215.713H162.438L161.792 212.118ZM161.715 211.652L160.593 205.4L159.457 211.652H161.715Z" fill="black"/>
<path d="M169.045 205.273H167.032V215.713H166.422V205.273H164.395V204.807H169.045V205.273Z" fill="black"/>
<path d="M173.913 210.264H172.159V215.713H171.542V204.807H174.348C174.72 204.807 175.077 204.956 175.34 205.22C175.603 205.485 175.751 205.843 175.751 206.217V208.854C175.75 209.182 175.638 209.499 175.434 209.755C175.23 210.011 174.946 210.191 174.628 210.264L176.27 215.727H175.568L173.913 210.264ZM172.159 209.798H174.327C174.551 209.77 174.755 209.656 174.898 209.48C175.04 209.304 175.109 209.08 175.091 208.854V206.217C175.109 205.991 175.04 205.767 174.898 205.591C174.755 205.415 174.551 205.301 174.327 205.273H172.159V209.798Z" fill="black"/>
<path d="M179.637 215.713H179.005V204.807H179.637V215.713Z" fill="black"/>
<path d="M186.96 215.248V215.713H183.011V204.807H186.897V205.273H183.642V209.643H186.272V210.109H183.642V215.248H186.96Z" fill="black"/>
<path d="M193.841 212.132V214.303C193.841 214.681 193.694 215.044 193.432 215.315C193.171 215.586 192.814 215.744 192.438 215.755H190.86C190.484 215.744 190.127 215.586 189.865 215.315C189.603 215.044 189.457 214.681 189.457 214.303V212.125H190.088V214.303C190.088 214.768 190.397 215.29 190.853 215.29H192.41C192.866 215.29 193.188 214.768 193.188 214.303V212.125C193.188 211.519 192.929 211.321 192.424 210.948C191.919 210.574 191.182 210.024 190.551 209.594C190.27 209.454 190.033 209.238 189.867 208.97C189.701 208.703 189.612 208.394 189.611 208.078V206.21C189.605 206.022 189.638 205.834 189.706 205.658C189.774 205.482 189.876 205.321 190.007 205.186C190.138 205.051 190.294 204.943 190.467 204.869C190.64 204.796 190.826 204.758 191.014 204.758H192.291C192.478 204.758 192.664 204.796 192.837 204.869C193.01 204.943 193.167 205.051 193.298 205.186C193.429 205.321 193.531 205.482 193.599 205.658C193.667 205.834 193.699 206.022 193.693 206.21V208.389H193.062V206.21C193.062 205.745 192.76 205.223 192.298 205.223H191.035C190.579 205.223 190.27 205.745 190.27 206.21V207.959C190.27 208.713 190.558 208.882 191.049 209.228C191.54 209.573 192.529 210.292 193.034 210.637C193.292 210.788 193.505 211.007 193.647 211.27C193.789 211.534 193.856 211.832 193.841 212.132V212.132Z" fill="black"/>
<path d="M36.5095 117.021C37.0709 117.135 37.5859 117.415 37.9894 117.823C38.3929 118.232 38.6668 118.751 38.7765 119.316C38.8862 119.882 38.8267 120.467 38.6056 120.998C38.3845 121.529 38.0117 121.982 37.5344 122.3C37.057 122.618 36.4965 122.787 35.9236 122.785C35.3508 122.783 34.7914 122.611 34.3161 122.29C33.8409 121.968 33.471 121.513 33.2534 120.98C33.0358 120.447 32.9802 119.862 33.0936 119.298C33.1689 118.923 33.3171 118.566 33.5296 118.249C33.7421 117.931 34.0147 117.659 34.332 117.448C34.6492 117.236 35.0048 117.09 35.3785 117.016C35.7521 116.943 36.1365 116.945 36.5095 117.021V117.021Z" fill="#EDB116"/>
<path d="M33.5775 140.171C34.1508 140.166 34.7127 140.331 35.1923 140.647C35.6719 140.962 36.0476 141.414 36.2718 141.944C36.4959 142.474 36.5585 143.059 36.4516 143.625C36.3447 144.191 36.0731 144.713 35.6713 145.124C35.2694 145.534 34.7552 145.816 34.1939 145.933C33.6326 146.05 33.0494 145.997 32.5181 145.781C31.9868 145.565 31.5312 145.195 31.2091 144.718C30.887 144.242 30.7129 143.68 30.7087 143.104C30.704 142.721 30.7747 142.342 30.9167 141.987C31.0586 141.633 31.2689 141.31 31.5356 141.037C31.8023 140.765 32.12 140.548 32.4705 140.399C32.8209 140.25 33.1972 140.173 33.5775 140.171Z" fill="#EDB116"/>
<path d="M35.4995 163.42C36.0571 163.298 36.6383 163.344 37.1698 163.553C37.7013 163.762 38.1593 164.125 38.486 164.595C38.8127 165.066 38.9935 165.623 39.0056 166.196C39.0176 166.77 38.8604 167.334 38.5538 167.818C38.2472 168.302 37.8048 168.683 37.2826 168.915C36.7604 169.146 36.1816 169.217 35.6193 169.119C35.057 169.02 34.5364 168.756 34.1231 168.361C33.7098 167.965 33.4224 167.455 33.297 166.896C33.2133 166.522 33.2039 166.135 33.2695 165.758C33.335 165.381 33.4741 165.02 33.6788 164.697C33.8835 164.374 34.1498 164.095 34.4622 163.876C34.7747 163.657 35.1272 163.502 35.4995 163.42V163.42Z" fill="#EDB116"/>
<path d="M42.1841 185.76C42.7037 185.516 43.2838 185.432 43.8508 185.519C44.4178 185.606 44.9463 185.861 45.3692 186.25C45.7921 186.64 46.0905 187.147 46.2264 187.707C46.3623 188.267 46.3297 188.855 46.1327 189.397C45.9357 189.938 45.5832 190.409 45.1199 190.748C44.6565 191.088 44.1032 191.282 43.53 191.306C42.9568 191.329 42.3896 191.181 41.9003 190.88C41.4109 190.58 41.0215 190.139 40.7813 189.616C40.4607 188.917 40.4284 188.12 40.6912 187.397C40.9541 186.675 41.4908 186.086 42.1841 185.76V185.76Z" fill="#EDB116"/>
<path d="M53.3509 206.217C53.8113 205.875 54.3625 205.677 54.9346 205.649C55.5068 205.622 56.0743 205.765 56.5654 206.061C57.0566 206.358 57.4493 206.794 57.6939 207.314C57.9385 207.835 58.0241 208.417 57.9398 208.986C57.8555 209.555 57.6051 210.087 57.2203 210.513C56.8354 210.94 56.3335 211.242 55.7778 211.382C55.2221 211.522 54.6376 211.493 54.0983 211.299C53.559 211.105 53.0889 210.754 52.7477 210.292C52.52 209.985 52.3549 209.636 52.262 209.265C52.1691 208.893 52.1501 208.507 52.2062 208.129C52.2622 207.75 52.3922 207.386 52.5887 207.058C52.7851 206.73 53.0442 206.444 53.3509 206.217V206.217Z" fill="#EDB116"/>
<path d="M68.5019 223.897C68.8808 223.465 69.3789 223.155 69.933 223.007C70.4872 222.86 71.0726 222.88 71.615 223.067C72.1574 223.254 72.6324 223.598 72.98 224.057C73.3276 224.515 73.532 225.067 73.5674 225.642C73.6028 226.217 73.4676 226.79 73.1788 227.287C72.8901 227.785 72.4609 228.186 71.9456 228.438C71.4302 228.691 70.8519 228.784 70.2838 228.706C69.7157 228.628 69.1834 228.382 68.7544 228C68.1823 227.488 67.8348 226.769 67.7875 226.001C67.7402 225.233 67.9969 224.476 68.5019 223.897V223.897Z" fill="#EDB116"/>
<path d="M86.9776 238.017C87.2593 237.516 87.6825 237.11 88.1937 236.851C88.705 236.591 89.2813 236.49 89.8499 236.559C90.4185 236.629 90.9538 236.866 91.3882 237.241C91.8226 237.617 92.1365 238.113 92.2904 238.667C92.4442 239.222 92.4311 239.81 92.2526 240.357C92.0741 240.904 91.7383 241.385 91.2875 241.74C90.8368 242.095 90.2914 242.308 89.7203 242.352C89.1492 242.396 88.5779 242.269 88.0788 241.986C87.747 241.799 87.4553 241.547 87.2203 241.246C86.9854 240.945 86.8118 240.6 86.7095 240.231C86.6072 239.863 86.5782 239.477 86.6242 239.098C86.6702 238.718 86.7903 238.351 86.9776 238.017V238.017Z" fill="#EDB116"/>
<path d="M198 240.464C197.71 239.968 197.572 239.396 197.604 238.821C197.637 238.247 197.838 237.695 198.182 237.235C198.527 236.775 199 236.428 199.54 236.238C200.081 236.048 200.665 236.023 201.22 236.167C201.775 236.311 202.274 236.617 202.656 237.046C203.038 237.475 203.285 238.008 203.365 238.578C203.445 239.148 203.355 239.729 203.107 240.248C202.859 240.767 202.463 241.2 201.97 241.493C201.643 241.688 201.28 241.817 200.903 241.871C200.525 241.925 200.141 241.904 199.772 241.808C199.403 241.713 199.057 241.545 198.753 241.314C198.448 241.083 198.193 240.794 198 240.464V240.464Z" fill="#EDB116"/>
<path d="M217.079 227.161C216.694 226.738 216.442 226.209 216.355 225.641C216.268 225.074 216.351 224.494 216.592 223.973C216.833 223.453 217.223 223.016 217.711 222.718C218.199 222.42 218.764 222.274 219.335 222.299C219.906 222.324 220.456 222.518 220.917 222.856C221.378 223.195 221.729 223.664 221.925 224.203C222.122 224.742 222.154 225.328 222.02 225.886C221.885 226.443 221.589 226.949 221.169 227.338C220.889 227.597 220.561 227.799 220.204 227.931C219.847 228.062 219.467 228.122 219.087 228.105C218.707 228.089 218.334 227.997 217.989 227.835C217.645 227.673 217.335 227.444 217.079 227.161V227.161Z" fill="#EDB116"/>
<path d="M232.988 210.172C232.52 209.84 232.16 209.376 231.954 208.839C231.748 208.302 231.706 207.716 231.831 207.154C231.957 206.593 232.246 206.081 232.66 205.684C233.075 205.287 233.598 205.023 234.162 204.925C234.726 204.826 235.307 204.898 235.831 205.131C236.354 205.364 236.798 205.748 237.104 206.234C237.411 206.72 237.567 207.287 237.554 207.862C237.54 208.438 237.357 208.996 237.028 209.467C236.809 209.781 236.531 210.049 236.21 210.254C235.888 210.46 235.529 210.599 235.154 210.665C234.778 210.73 234.393 210.72 234.022 210.636C233.65 210.551 233.298 210.394 232.988 210.172V210.172Z" fill="#EDB116"/>
<path d="M245.031 190.229C244.505 190.001 244.059 189.62 243.748 189.137C243.437 188.653 243.276 188.087 243.285 187.512C243.294 186.936 243.472 186.376 243.798 185.902C244.124 185.428 244.582 185.062 245.115 184.85C245.648 184.638 246.231 184.59 246.791 184.711C247.351 184.832 247.863 185.118 248.262 185.531C248.661 185.945 248.928 186.468 249.031 187.034C249.134 187.601 249.068 188.185 248.84 188.714C248.533 189.421 247.961 189.977 247.247 190.261C246.533 190.545 245.736 190.534 245.031 190.229Z" fill="#EDB116"/>
<path d="M252.684 168.2C252.122 168.085 251.607 167.806 251.204 167.397C250.8 166.989 250.527 166.469 250.417 165.904C250.307 165.339 250.367 164.754 250.588 164.223C250.809 163.692 251.182 163.238 251.659 162.92C252.136 162.602 252.697 162.433 253.27 162.435C253.843 162.437 254.402 162.61 254.877 162.931C255.353 163.252 255.722 163.708 255.94 164.24C256.158 164.773 256.213 165.358 256.1 165.923C256.025 166.298 255.878 166.655 255.665 166.973C255.453 167.291 255.18 167.564 254.863 167.775C254.546 167.987 254.19 168.133 253.816 168.206C253.442 168.279 253.057 168.277 252.684 168.2Z" fill="#EDB116"/>
<path d="M255.616 145.056C255.043 145.062 254.481 144.897 254.002 144.581C253.522 144.266 253.147 143.815 252.922 143.285C252.698 142.755 252.635 142.171 252.741 141.605C252.848 141.039 253.119 140.518 253.52 140.106C253.921 139.695 254.434 139.413 254.995 139.295C255.556 139.177 256.139 139.229 256.67 139.445C257.202 139.66 257.658 140.029 257.981 140.504C258.304 140.98 258.479 141.541 258.485 142.117C258.488 142.499 258.417 142.878 258.275 143.233C258.133 143.588 257.923 143.911 257.656 144.184C257.39 144.457 257.072 144.674 256.722 144.824C256.372 144.974 255.996 145.053 255.616 145.056Z" fill="#EDB116"/>
<path d="M253.694 121.8C253.136 121.923 252.554 121.877 252.022 121.668C251.491 121.459 251.032 121.096 250.706 120.625C250.379 120.154 250.198 119.597 250.186 119.023C250.175 118.449 250.332 117.885 250.64 117.401C250.947 116.917 251.39 116.535 251.913 116.304C252.436 116.073 253.015 116.003 253.577 116.103C254.14 116.203 254.66 116.467 255.073 116.864C255.486 117.261 255.772 117.772 255.896 118.332C255.98 118.705 255.989 119.091 255.924 119.468C255.858 119.845 255.719 120.205 255.514 120.527C255.309 120.85 255.043 121.128 254.731 121.347C254.418 121.565 254.066 121.719 253.694 121.8V121.8Z" fill="#EDB116"/>
</g>
<defs>
<clipPath id="clip0_1_4283">
<rect width="290" height="290" fill="white"/>
</clipPath>
</defs>
</svg>
