<svg width="290" height="290" viewBox="0 0 290 290" fill="none" xmlns="http://www.w3.org/2000/svg">
<g clip-path="url(#clip0_1_4360)">
<path d="M148.185 36.647C148.185 37.2111 148.018 37.7625 147.706 38.2315C147.395 38.7005 146.951 39.066 146.433 39.2819C145.914 39.4978 145.344 39.5542 144.793 39.4442C144.243 39.3341 143.737 39.0625 143.34 38.6637C142.944 38.2648 142.673 37.7567 142.564 37.2034C142.454 36.6502 142.511 36.0768 142.725 35.5557C142.94 35.0345 143.304 34.5891 143.77 34.2757C144.237 33.9624 144.786 33.7951 145.347 33.7951C146.1 33.7951 146.821 34.0956 147.354 34.6304C147.886 35.1653 148.185 35.8907 148.185 36.647Z" fill="#EDB116"/>
<path d="M125.504 38.3182C125.621 38.8699 125.572 39.444 125.364 39.9679C125.156 40.4918 124.799 40.942 124.336 41.2616C123.874 41.5812 123.327 41.7558 122.766 41.7633C122.205 41.7708 121.654 41.611 121.183 41.3039C120.713 40.9969 120.343 40.5564 120.121 40.0383C119.9 39.5201 119.836 38.9475 119.938 38.3929C120.04 37.8383 120.303 37.3265 120.695 36.9224C121.086 36.5182 121.588 36.2398 122.137 36.1223C122.873 35.9666 123.641 36.1102 124.272 36.5217C124.902 36.9332 125.346 37.5792 125.504 38.3182Z" fill="#EDB116"/>
<path d="M103.668 44.6988C103.896 45.2144 103.966 45.7862 103.87 46.342C103.775 46.8978 103.517 47.4126 103.13 47.8213C102.743 48.2299 102.245 48.5141 101.697 48.6379C101.15 48.7617 100.578 48.7195 100.054 48.5167C99.5303 48.3139 99.0782 47.9596 98.7549 47.4985C98.4315 47.0375 98.2515 46.4904 98.2375 45.9265C98.2235 45.3626 98.3763 44.8072 98.6763 44.3306C98.9764 43.8539 99.4104 43.4774 99.9235 43.2486C100.611 42.9419 101.392 42.9223 102.095 43.1943C102.797 43.4662 103.363 44.0074 103.668 44.6988V44.6988Z" fill="#EDB116"/>
<path d="M83.6257 55.4989C83.9549 55.9556 84.142 56.5002 84.1633 57.0637C84.1845 57.6273 84.0391 58.1846 83.7453 58.6651C83.4515 59.1456 83.0226 59.5277 82.5127 59.7633C82.0029 59.9988 81.435 60.0771 80.8808 59.9883C80.3267 59.8995 79.8111 59.6476 79.3994 59.2644C78.9877 58.8812 78.6983 58.3839 78.5678 57.8354C78.4372 57.2869 78.4715 56.7118 78.6661 56.1828C78.8607 55.6539 79.207 55.1948 79.6612 54.8636C79.9626 54.6426 80.3046 54.4838 80.6673 54.3961C81.03 54.3084 81.4064 54.2937 81.7749 54.3527C82.1433 54.4118 82.4965 54.5434 82.8141 54.7401C83.1318 54.9368 83.4076 55.1947 83.6257 55.4989Z" fill="#EDB116"/>
<path d="M66.2561 70.2488C66.6737 70.6258 66.9706 71.1188 67.1094 71.6655C67.2482 72.2121 67.2225 72.7879 67.0356 73.3199C66.8488 73.8519 66.5091 74.3162 66.0596 74.6541C65.6101 74.9921 65.071 75.1884 64.5105 75.2184C63.9499 75.2484 63.3931 75.1106 62.9105 74.8224C62.4279 74.5343 62.0412 74.1088 61.7992 73.5997C61.5573 73.0906 61.471 72.5209 61.5513 71.9625C61.6316 71.4042 61.8749 70.8823 62.2503 70.4629C62.7544 69.9026 63.4587 69.5655 64.2093 69.5254C64.9598 69.4853 65.6957 69.7454 66.2561 70.2488V70.2488Z" fill="#EDB116"/>
<path d="M52.3219 88.3134C52.8078 88.5961 53.1994 89.0172 53.4471 89.5236C53.6947 90.03 53.7874 90.5988 53.7133 91.1581C53.6392 91.7175 53.4017 92.2421 53.0308 92.6657C52.6599 93.0893 52.1724 93.3929 51.6298 93.5379C51.0872 93.6829 50.514 93.6629 49.9828 93.4804C49.4515 93.298 48.986 92.9612 48.6453 92.5128C48.3045 92.0644 48.1037 91.5244 48.0684 90.9613C48.033 90.3982 48.1647 89.8371 48.4467 89.3492C48.8243 88.6959 49.4445 88.2198 50.1711 88.0256C50.8976 87.8314 51.6712 87.9349 52.3219 88.3134V88.3134Z" fill="#EDB116"/>
<path d="M42.4278 108.885C42.9611 109.06 43.4309 109.39 43.7777 109.833C44.1244 110.276 44.3327 110.813 44.3761 111.375C44.4195 111.937 44.2961 112.5 44.0215 112.991C43.7469 113.483 43.3335 113.882 42.8334 114.138C42.3333 114.393 41.7691 114.494 41.2119 114.428C40.6548 114.361 40.1298 114.13 39.7033 113.764C39.2768 113.397 38.9679 112.912 38.8157 112.369C38.6634 111.827 38.6747 111.251 38.8481 110.715C38.9633 110.358 39.1474 110.028 39.3897 109.743C39.6321 109.458 39.9279 109.224 40.2604 109.054C40.5929 108.884 40.9555 108.781 41.3274 108.752C41.6993 108.723 42.0732 108.768 42.4278 108.885V108.885Z" fill="#EDB116"/>
<path d="M36.9998 131.079C37.5578 131.138 38.0859 131.362 38.5173 131.722C38.9487 132.083 39.2641 132.564 39.4235 133.104C39.583 133.645 39.5794 134.221 39.4132 134.76C39.247 135.298 38.9256 135.775 38.4897 136.13C38.0538 136.486 37.523 136.703 36.9643 136.755C36.4055 136.807 35.844 136.691 35.3507 136.422C34.8574 136.154 34.4545 135.744 34.1927 135.245C33.931 134.746 33.8223 134.181 33.8804 133.62C33.9181 133.247 34.0289 132.885 34.2063 132.555C34.3837 132.225 34.6243 131.933 34.9142 131.697C35.2041 131.461 35.5376 131.285 35.8955 131.179C36.2535 131.072 36.6287 131.039 36.9998 131.079Z" fill="#EDB116"/>
<path d="M36.2852 153.929C36.8434 153.869 37.4067 153.977 37.9038 154.239C38.4009 154.501 38.8095 154.906 39.0779 155.401C39.3463 155.897 39.4625 156.461 39.4117 157.023C39.3608 157.585 39.1453 158.119 38.7924 158.558C38.4395 158.996 37.9651 159.32 37.4291 159.488C36.8931 159.655 36.3197 159.66 35.7813 159.5C35.243 159.34 34.7639 159.023 34.4048 158.589C34.0456 158.156 33.8225 157.625 33.7636 157.064C33.7236 156.691 33.7572 156.315 33.8624 155.955C33.9676 155.596 34.1423 155.261 34.3766 154.97C34.6109 154.679 34.9001 154.437 35.2276 154.258C35.5551 154.079 35.9145 153.967 36.2852 153.929V153.929Z" fill="#EDB116"/>
<path d="M40.3184 176.42C40.8523 176.245 41.4257 176.233 41.9661 176.386C42.5065 176.539 42.9896 176.85 43.3544 177.279C43.7191 177.708 43.9491 178.236 44.0151 178.796C44.0812 179.356 43.9804 179.924 43.7255 180.426C43.4705 180.929 43.073 181.345 42.5831 181.62C42.0932 181.896 41.5329 182.019 40.9733 181.974C40.4136 181.93 39.8796 181.72 39.439 181.37C38.9983 181.02 38.6707 180.547 38.4976 180.01C38.2659 179.292 38.3275 178.51 38.6689 177.836C39.0102 177.163 39.6035 176.654 40.3184 176.42V176.42Z" fill="#EDB116"/>
<path d="M48.9071 197.578C49.393 197.295 49.9514 197.164 50.5115 197.201C51.0717 197.238 51.6084 197.44 52.0539 197.784C52.4993 198.127 52.8335 198.595 53.0141 199.129C53.1947 199.664 53.2136 200.24 53.0684 200.784C52.9232 201.329 52.6205 201.819 52.1985 202.191C51.7765 202.563 51.2543 202.801 50.6977 202.874C50.1412 202.948 49.5755 202.854 49.072 202.605C48.5686 202.355 48.1501 201.961 47.8695 201.472C47.4935 200.818 47.3916 200.04 47.5861 199.309C47.7807 198.579 48.2558 197.956 48.9071 197.578V197.578Z" fill="#EDB116"/>
<path d="M61.6938 216.478C62.1114 216.102 62.6306 215.858 63.1859 215.778C63.7411 215.698 64.3075 215.785 64.8135 216.029C65.3194 216.272 65.7423 216.661 66.0286 217.145C66.3149 217.63 66.4519 218.189 66.4221 218.752C66.3924 219.315 66.1973 219.857 65.8615 220.308C65.5258 220.76 65.0644 221.101 64.5356 221.29C64.0068 221.478 63.4344 221.504 62.8907 221.366C62.347 221.227 61.8564 220.929 61.4808 220.511C60.9777 219.947 60.7177 219.206 60.7576 218.45C60.7975 217.694 61.1342 216.985 61.6938 216.478V216.478Z" fill="#EDB116"/>
<path d="M78.1084 232.298C78.4386 231.842 78.8959 231.495 79.4226 231.3C79.9493 231.105 80.5216 231.072 81.0672 231.204C81.6128 231.336 82.1072 231.627 82.4879 232.042C82.8686 232.456 83.1184 232.975 83.2059 233.532C83.2933 234.089 83.2144 234.66 82.9791 235.172C82.7438 235.684 82.3627 236.115 81.8841 236.409C81.4054 236.703 80.8506 236.849 80.2898 236.826C79.729 236.804 79.1875 236.615 78.7336 236.283C78.4315 236.063 78.1755 235.785 77.9805 235.466C77.7854 235.146 77.6551 234.791 77.597 234.421C77.5389 234.051 77.5541 233.673 77.6419 233.308C77.7297 232.944 77.8882 232.601 78.1084 232.298V232.298Z" fill="#EDB116"/>
<path d="M97.4362 244.341C97.6644 243.826 98.0396 243.39 98.5143 243.089C98.9891 242.788 99.542 242.635 100.103 242.65C100.664 242.664 101.209 242.846 101.667 243.172C102.125 243.498 102.477 243.953 102.678 244.479C102.879 245.006 102.92 245.581 102.796 246.131C102.672 246.682 102.388 247.182 101.981 247.571C101.573 247.959 101.061 248.217 100.507 248.312C99.9539 248.407 99.3849 248.335 98.8722 248.105C98.5316 247.953 98.2242 247.735 97.9675 247.464C97.7109 247.192 97.5101 246.872 97.3767 246.523C97.2433 246.173 97.1799 245.8 97.1901 245.426C97.2003 245.052 97.2839 244.683 97.4362 244.341V244.341Z" fill="#EDB116"/>
<path d="M118.867 252.082C118.984 251.533 119.262 251.031 119.663 250.639C120.064 250.248 120.572 249.985 121.122 249.884C121.672 249.782 122.24 249.846 122.754 250.069C123.267 250.291 123.704 250.661 124.008 251.133C124.313 251.604 124.472 252.156 124.464 252.718C124.457 253.28 124.285 253.827 123.968 254.291C123.652 254.754 123.206 255.113 122.687 255.323C122.168 255.532 121.599 255.582 121.051 255.466C120.686 255.389 120.34 255.24 120.033 255.028C119.725 254.816 119.462 254.545 119.259 254.231C119.056 253.916 118.917 253.564 118.85 253.196C118.782 252.827 118.788 252.449 118.867 252.082V252.082Z" fill="#EDB116"/>
<path d="M141.362 255.183C141.362 254.619 141.528 254.067 141.84 253.598C142.152 253.129 142.595 252.764 143.114 252.548C143.632 252.332 144.203 252.276 144.753 252.386C145.304 252.496 145.809 252.767 146.206 253.166C146.603 253.565 146.873 254.073 146.983 254.626C147.092 255.18 147.036 255.753 146.821 256.274C146.606 256.795 146.243 257.241 145.776 257.554C145.309 257.868 144.761 258.035 144.2 258.035C143.827 258.036 143.457 257.963 143.113 257.82C142.768 257.677 142.455 257.467 142.191 257.202C141.927 256.937 141.718 256.622 141.576 256.275C141.434 255.929 141.361 255.558 141.362 255.183V255.183Z" fill="#EDB116"/>
<path d="M164.043 253.505C163.926 252.953 163.975 252.379 164.182 251.855C164.39 251.331 164.748 250.881 165.21 250.561C165.673 250.242 166.219 250.067 166.78 250.06C167.342 250.052 167.892 250.212 168.363 250.519C168.834 250.826 169.203 251.267 169.425 251.785C169.647 252.303 169.711 252.875 169.609 253.43C169.507 253.985 169.243 254.496 168.852 254.901C168.46 255.305 167.958 255.583 167.409 255.701C167.045 255.781 166.668 255.787 166.301 255.72C165.934 255.653 165.583 255.513 165.27 255.309C164.957 255.104 164.688 254.84 164.477 254.53C164.266 254.221 164.119 253.872 164.043 253.505Z" fill="#EDB116"/>
<path d="M185.878 247.131C185.654 246.615 185.588 246.044 185.686 245.49C185.784 244.936 186.044 244.423 186.432 244.017C186.82 243.61 187.318 243.329 187.865 243.207C188.412 243.085 188.983 243.128 189.505 243.332C190.027 243.535 190.478 243.89 190.8 244.35C191.123 244.81 191.302 245.357 191.316 245.919C191.33 246.482 191.178 247.037 190.88 247.513C190.581 247.989 190.148 248.365 189.637 248.595C189.295 248.749 188.926 248.833 188.551 248.842C188.176 248.852 187.803 248.786 187.454 248.65C187.105 248.514 186.785 248.31 186.515 248.049C186.245 247.788 186.028 247.476 185.878 247.131Z" fill="#EDB116"/>
<path d="M205.921 236.324C205.594 235.868 205.409 235.325 205.388 234.763C205.368 234.202 205.514 233.647 205.807 233.168C206.101 232.69 206.528 232.309 207.037 232.075C207.545 231.841 208.111 231.763 208.663 231.851C209.215 231.94 209.729 232.191 210.14 232.572C210.55 232.954 210.839 233.449 210.97 233.996C211.1 234.542 211.067 235.115 210.874 235.643C210.681 236.17 210.337 236.628 209.885 236.959C209.584 237.181 209.242 237.341 208.879 237.429C208.517 237.517 208.14 237.532 207.771 237.473C207.402 237.414 207.049 237.282 206.732 237.085C206.414 236.888 206.138 236.629 205.921 236.324V236.324Z" fill="#EDB116"/>
<path d="M223.304 221.574C222.888 221.197 222.592 220.704 222.454 220.157C222.316 219.611 222.342 219.035 222.529 218.504C222.717 217.973 223.056 217.509 223.506 217.171C223.955 216.834 224.494 216.638 225.054 216.608C225.614 216.578 226.17 216.716 226.653 217.004C227.135 217.291 227.522 217.716 227.764 218.225C228.006 218.733 228.093 219.302 228.013 219.861C227.934 220.419 227.691 220.94 227.317 221.36C227.068 221.639 226.766 221.866 226.429 222.028C226.093 222.19 225.727 222.284 225.355 222.304C224.982 222.324 224.609 222.27 224.257 222.144C223.905 222.019 223.581 221.825 223.304 221.574V221.574Z" fill="#EDB116"/>
<path d="M237.225 203.517C236.738 203.235 236.346 202.815 236.097 202.31C235.848 201.804 235.754 201.236 235.826 200.676C235.899 200.117 236.135 199.592 236.504 199.167C236.873 198.743 237.36 198.438 237.902 198.291C238.444 198.144 239.017 198.162 239.548 198.343C240.08 198.523 240.546 198.858 240.889 199.305C241.231 199.752 241.434 200.291 241.471 200.854C241.509 201.417 241.38 201.978 241.1 202.467C240.915 202.792 240.667 203.078 240.372 203.307C240.077 203.536 239.739 203.704 239.379 203.801C239.019 203.899 238.643 203.924 238.274 203.875C237.904 203.826 237.547 203.704 237.225 203.517V203.517Z" fill="#EDB116"/>
<path d="M247.119 182.938C246.585 182.764 246.114 182.435 245.766 181.992C245.418 181.549 245.209 181.013 245.165 180.45C245.12 179.888 245.243 179.325 245.517 178.832C245.791 178.34 246.205 177.94 246.705 177.684C247.205 177.428 247.77 177.327 248.327 177.393C248.885 177.46 249.41 177.691 249.837 178.057C250.264 178.424 250.573 178.909 250.725 179.453C250.877 179.996 250.865 180.572 250.692 181.108C250.459 181.827 249.952 182.423 249.282 182.766C248.612 183.109 247.834 183.171 247.119 182.938V182.938Z" fill="#EDB116"/>
<path d="M252.54 160.737C251.984 160.677 251.458 160.453 251.028 160.092C250.599 159.732 250.286 159.251 250.128 158.712C249.97 158.173 249.975 157.598 250.141 157.062C250.308 156.525 250.629 156.05 251.064 155.696C251.499 155.343 252.029 155.127 252.586 155.076C253.143 155.024 253.702 155.14 254.194 155.408C254.686 155.677 255.087 156.085 255.348 156.583C255.609 157.08 255.717 157.644 255.659 158.203C255.622 158.576 255.511 158.938 255.333 159.267C255.156 159.597 254.915 159.888 254.625 160.124C254.335 160.359 254.001 160.535 253.644 160.64C253.286 160.746 252.911 160.779 252.54 160.737V160.737Z" fill="#EDB116"/>
<path d="M253.254 137.894C252.698 137.951 252.137 137.841 251.643 137.578C251.148 137.315 250.742 136.91 250.477 136.415C250.211 135.921 250.097 135.358 250.149 134.798C250.202 134.238 250.418 133.706 250.77 133.27C251.123 132.834 251.597 132.512 252.131 132.346C252.666 132.18 253.237 132.177 253.774 132.337C254.31 132.497 254.787 132.813 255.145 133.245C255.502 133.678 255.724 134.207 255.783 134.766C255.822 135.139 255.787 135.515 255.681 135.874C255.575 136.233 255.4 136.567 255.165 136.858C254.93 137.148 254.64 137.39 254.312 137.567C253.985 137.745 253.625 137.856 253.254 137.894V137.894Z" fill="#EDB116"/>
<path d="M249.221 115.403C248.687 115.577 248.114 115.587 247.574 115.433C247.034 115.279 246.552 114.968 246.188 114.538C245.824 114.109 245.595 113.581 245.53 113.02C245.465 112.46 245.567 111.893 245.822 111.391C246.078 110.889 246.476 110.474 246.966 110.199C247.456 109.924 248.016 109.802 248.576 109.847C249.135 109.892 249.669 110.103 250.109 110.453C250.549 110.803 250.876 111.276 251.049 111.813C251.164 112.169 251.209 112.545 251.179 112.918C251.15 113.292 251.047 113.656 250.878 113.99C250.708 114.323 250.474 114.62 250.19 114.863C249.905 115.105 249.576 115.289 249.221 115.403Z" fill="#EDB116"/>
<path d="M240.633 94.2452C240.147 94.5275 239.588 94.6587 239.028 94.622C238.468 94.5854 237.931 94.3826 237.486 94.0394C237.04 93.6961 236.706 93.2278 236.526 92.6936C236.345 92.1595 236.326 91.5835 236.471 91.0385C236.616 90.4936 236.919 90.0041 237.341 89.6321C237.763 89.2601 238.285 89.0222 238.842 88.9486C239.398 88.8749 239.964 88.9688 240.468 89.2184C240.971 89.4679 241.389 89.8619 241.67 90.3505C242.046 91.0053 242.148 91.7834 241.953 92.5137C241.759 93.244 241.284 93.8668 240.633 94.2452V94.2452Z" fill="#EDB116"/>
<path d="M227.846 75.345C227.429 75.7191 226.911 75.9607 226.357 76.0394C225.804 76.1181 225.24 76.0303 224.736 75.7872C224.232 75.544 223.811 75.1564 223.526 74.6731C223.241 74.1899 223.104 73.6326 223.134 73.0716C223.164 72.5106 223.358 71.971 223.692 71.5207C224.027 71.0705 224.486 70.7299 225.013 70.5417C225.539 70.3535 226.11 70.3263 226.652 70.4634C227.194 70.6006 227.684 70.8959 228.059 71.3123C228.31 71.5905 228.503 71.9158 228.628 72.2695C228.753 72.6232 228.808 72.9983 228.788 73.3732C228.768 73.7481 228.675 74.1153 228.513 74.4537C228.351 74.7922 228.124 75.0951 227.846 75.345V75.345Z" fill="#EDB116"/>
<path d="M211.431 59.5316C211.1 59.9867 210.643 60.3331 210.116 60.5269C209.59 60.7208 209.018 60.7535 208.473 60.621C207.928 60.4884 207.434 60.1965 207.054 59.7821C206.674 59.3677 206.424 58.8494 206.337 58.2926C206.25 57.7358 206.329 57.1656 206.564 56.6538C206.799 56.1421 207.179 55.7118 207.657 55.4173C208.136 55.1228 208.69 54.9774 209.25 54.9993C209.811 55.0211 210.352 55.2094 210.806 55.5403C211.109 55.7601 211.366 56.038 211.562 56.3581C211.757 56.6781 211.888 57.034 211.946 57.405C212.004 57.7761 211.989 58.1551 211.9 58.5201C211.812 58.8851 211.653 59.2289 211.431 59.5316V59.5316Z" fill="#EDB116"/>
<path d="M192.103 47.4886C191.874 48.0032 191.498 48.438 191.024 48.7381C190.549 49.0382 189.996 49.19 189.435 49.1745C188.874 49.1589 188.331 48.9766 187.873 48.6507C187.415 48.3247 187.064 47.8697 186.863 47.3432C186.663 46.8166 186.622 46.2421 186.746 45.6923C186.87 45.1424 187.154 44.6419 187.561 44.254C187.968 43.8661 188.48 43.6081 189.033 43.5128C189.586 43.4174 190.155 43.4889 190.667 43.7182C191.008 43.8707 191.316 44.0893 191.573 44.3614C191.829 44.6335 192.03 44.9539 192.163 45.3041C192.297 45.6543 192.36 46.0275 192.35 46.4023C192.34 46.7772 192.256 47.1463 192.103 47.4886V47.4886Z" fill="#EDB116"/>
<path d="M170.707 39.7476C170.591 40.2993 170.313 40.8037 169.911 41.1971C169.509 41.5905 169 41.8552 168.448 41.9578C167.896 42.0604 167.327 41.9962 166.811 41.7734C166.295 41.5506 165.857 41.1791 165.552 40.706C165.246 40.2329 165.087 39.6793 165.095 39.1154C165.102 38.5514 165.276 38.0023 165.594 37.5375C165.912 37.0728 166.36 36.7132 166.881 36.5043C167.402 36.2954 167.974 36.2466 168.523 36.3639C168.887 36.4419 169.233 36.5912 169.54 36.8035C169.847 37.0157 170.109 37.2867 170.312 37.6009C170.515 37.9151 170.655 38.2664 170.722 38.6347C170.79 39.0031 170.785 39.3812 170.707 39.7476Z" fill="#EDB116"/>
<path d="M43.5409 145.014C43.5446 150.062 43.9189 155.103 44.6608 160.095H245.339C246.823 150.087 246.823 139.913 245.339 129.905H44.6608C43.9212 134.907 43.5469 139.957 43.5409 145.014Z" fill="#F4D5B2"/>
<path d="M144.976 272.571C75.0096 272.571 18.0705 215.339 18.0705 145.014C18.0705 74.689 75.0096 17.4362 144.976 17.4362C214.942 17.4362 271.93 74.6614 271.93 145.014C271.93 215.366 214.984 272.571 144.976 272.571ZM144.976 20.5229C76.7067 20.5229 21.1418 76.367 21.1418 145.014C21.1418 213.661 76.7067 269.477 144.976 269.477C213.245 269.477 268.851 213.64 268.851 145.014C268.851 76.3878 213.293 20.5229 144.976 20.5229V20.5229Z" fill="#F15B40"/>
<path d="M192.935 145.014C192.933 154.542 190.121 163.855 184.854 171.777C179.586 179.698 172.1 185.872 163.342 189.519C154.583 193.165 144.946 194.119 135.648 192.261C126.35 190.403 117.808 185.816 111.104 179.08C104.4 172.343 99.8329 163.761 97.9814 154.416C96.13 145.072 97.0768 135.386 100.702 126.582C104.328 117.779 110.469 110.253 118.349 104.957C126.23 99.6609 135.496 96.8319 144.976 96.8278C151.274 96.8251 157.51 98.0695 163.329 100.49C169.148 102.91 174.435 106.459 178.889 110.934C183.343 115.409 186.876 120.722 189.286 126.57C191.696 132.417 192.936 138.685 192.935 145.014V145.014Z" fill="#F4D5B2"/>
<path d="M144.997 187.171C168.171 187.171 186.957 168.291 186.957 145C186.957 121.709 168.171 102.829 144.997 102.829C121.822 102.829 103.036 121.709 103.036 145C103.036 168.291 121.822 187.171 144.997 187.171Z" fill="#38312D"/>
<path d="M144.976 247.739C88.6346 247.739 42.7713 201.638 42.7713 145.014C42.7713 88.3894 88.6346 42.2612 144.976 42.2612C201.317 42.2612 247.222 88.3479 247.222 145.014C247.222 201.68 201.365 247.739 144.976 247.739ZM144.976 43.808C89.4591 43.808 44.2898 89.2042 44.2898 145C44.2898 200.796 89.4797 246.192 144.976 246.192C200.472 246.192 245.69 200.803 245.69 145.014C245.69 89.2249 200.52 43.808 144.976 43.808Z" fill="#F15B40"/>
<path d="M106.368 76.4154C106.12 76.5785 105.826 76.6566 105.53 76.6379C105.234 76.6192 104.952 76.5048 104.726 76.3118C104.383 76.052 103.978 75.8877 103.551 75.8353C103.1 75.9905 102.679 76.2243 102.308 76.5259C101.231 77.2717 100.599 78.9244 100.411 81.484C100.146 84.9367 100.693 87.6597 102.053 89.6531C102.66 90.5824 103.596 91.2443 104.671 91.5037C105.18 91.6517 105.714 91.6833 106.236 91.596C106.758 91.5088 107.254 91.305 107.688 90.9996C108.489 90.4412 109.142 89.6945 109.591 88.8244C110.013 87.9558 110.374 87.0581 110.67 86.1382C110.776 85.7093 110.997 85.3178 111.309 85.0057C111.459 84.8982 111.631 84.8256 111.813 84.7934C111.995 84.7611 112.182 84.77 112.36 84.8193C112.55 84.8553 112.731 84.9314 112.89 85.0426C113.049 85.1539 113.183 85.2977 113.283 85.4647C113.383 85.6316 113.447 85.8179 113.47 86.0114C113.493 86.2048 113.476 86.401 113.418 86.5871C112.648 89.6807 111.26 91.918 109.254 93.2991C108.52 93.8171 107.682 94.1666 106.798 94.3229C105.915 94.4792 105.008 94.4385 104.142 94.2037C102.371 93.789 100.825 92.7094 99.8204 91.1861C98.0981 88.6587 97.3858 85.3372 97.6836 81.2216C97.9309 77.7965 98.9501 75.467 100.741 74.2333C101.068 74.0047 101.407 73.7948 101.758 73.6049C102.038 73.454 102.333 73.3314 102.637 73.2389C102.623 72.9918 102.674 72.7453 102.783 72.5236C102.893 72.302 103.058 72.113 103.263 71.9752C103.771 71.6161 104.328 71.7335 104.925 72.3205C105.555 72.9677 106.124 73.6729 106.623 74.4266C106.822 74.7116 106.928 75.052 106.925 75.4003C106.927 75.6033 106.877 75.8034 106.779 75.9812C106.682 76.159 106.54 76.3085 106.368 76.4154V76.4154Z" fill="#F15B40"/>
<path d="M133.79 82.7338C133 82.9686 132.011 82.1538 130.822 80.2755C130.368 79.585 129.681 78.2798 128.761 76.4292C127.918 76.8067 126.828 77.366 125.49 78.1072L122.261 79.8405C122.158 81.1042 121.91 82.9893 121.505 85.4822C121.467 85.7277 121.361 85.9576 121.2 86.1456C121.038 86.3336 120.827 86.4722 120.591 86.5456C120.245 86.6494 119.872 86.6122 119.554 86.4421C119.387 86.3641 119.24 86.2509 119.121 86.1103C119.003 85.9696 118.916 85.8048 118.867 85.6272C118.743 85.2129 118.928 83.4313 119.423 80.2962C119.21 80.1148 119.055 79.8747 118.976 79.6057C118.77 78.9151 119.059 78.3282 119.849 77.8793C120.307 75.7294 120.923 73.2251 121.697 70.3662C122.783 66.4716 123.575 64.4483 124.075 64.2964C124.762 64.0961 125.36 64.4345 125.895 65.3184L127.991 69.4616L132.608 77.9L133.948 79.7369C134.267 80.1307 134.532 80.5649 134.738 81.0282C134.794 81.2032 134.812 81.3885 134.789 81.571C134.767 81.7534 134.705 81.9288 134.608 82.0847C134.522 82.2428 134.406 82.3818 134.265 82.4934C134.125 82.6049 133.963 82.6867 133.79 82.7338V82.7338ZM124.858 69.213L122.913 76.3118C123.885 75.7317 125.376 74.9353 127.386 73.9225L124.858 69.213Z" fill="#F15B40"/>
<path d="M153.86 82.4162C152.486 82.3839 150.569 81.1272 148.109 78.6458L144.172 74.4611V74.6476L143.98 81.7602C143.98 82.6579 143.554 83.0929 142.77 83.0722C142.527 83.0708 142.288 83.0065 142.076 82.8856C141.864 82.7647 141.687 82.5912 141.561 82.3816C141.325 82.0215 141.203 81.5977 141.211 81.1663C141.266 79.0532 141.408 75.8882 141.637 71.6713C141.866 67.4544 142.008 64.2802 142.063 62.1488C142.063 61.9665 142.098 61.7861 142.168 61.6178C142.237 61.4495 142.339 61.2967 142.468 61.1682C142.593 61.0405 142.743 60.9402 142.909 60.8737C143.074 60.8071 143.252 60.7757 143.43 60.7815C143.612 60.7832 143.791 60.8227 143.956 60.8976C144.122 60.9725 144.27 61.0811 144.392 61.2165C144.514 61.3514 144.609 61.5094 144.67 61.6812C144.732 61.8531 144.758 62.0355 144.749 62.2178C144.749 63.0948 144.639 64.4621 144.481 66.3127C144.323 68.1634 144.248 69.4685 144.234 70.456C145.466 69.3373 146.865 67.9286 148.432 66.2299L152.417 61.8104C152.534 61.6601 152.682 61.5373 152.851 61.4505C153.02 61.3637 153.206 61.315 153.396 61.3077C153.586 61.3005 153.775 61.3349 153.95 61.4086C154.125 61.4823 154.282 61.5935 154.41 61.7344C154.538 61.8665 154.639 62.0232 154.707 62.1952C154.774 62.3672 154.806 62.551 154.801 62.7357C154.801 63.3388 153.599 64.9017 151.194 67.4245C149.55 69.1509 147.85 70.8358 146.096 72.4793C147.149 73.644 148.801 75.3266 151.05 77.5271L152.424 78.7563C152.916 79.156 153.471 79.471 154.066 79.6885C154.372 79.7597 154.644 79.9373 154.832 80.19C155.021 80.4427 155.115 80.7542 155.097 81.0696C155.086 81.3859 154.981 81.6916 154.794 81.9466C154.691 82.0985 154.552 82.2214 154.388 82.3035C154.224 82.3857 154.043 82.4245 153.86 82.4162V82.4162Z" fill="#F15B40"/>
<path d="M176.582 69.503C176.446 69.4596 176.319 69.3943 176.204 69.3097C174.978 68.4589 173.638 67.7849 172.226 67.3071C171.457 67.0541 170.669 66.8625 169.869 66.734C168.916 66.5809 167.955 66.4841 166.99 66.4439C166.911 66.9106 166.803 67.3718 166.667 67.825C166.276 69.0197 165.664 70.6424 164.833 72.6588L170.625 73.9777C172.329 74.3575 173.373 74.6061 173.751 74.7304C173.929 74.7832 174.094 74.8716 174.237 74.9903C174.38 75.109 174.498 75.2555 174.583 75.421C174.667 75.5886 174.717 75.7718 174.729 75.9594C174.741 76.147 174.714 76.335 174.651 76.512C174.613 76.6836 174.54 76.8452 174.436 76.9866C174.332 77.1279 174.199 77.246 174.047 77.333C173.895 77.4201 173.727 77.4744 173.553 77.4924C173.379 77.5103 173.203 77.4916 173.037 77.4374L169.897 76.6985L163.816 75.2691C163.589 75.8698 163.369 76.4361 163.17 76.9747C162.971 77.5133 162.792 78.0243 162.634 78.4939C162.009 80.3929 161.782 81.5599 161.947 81.9466C162.078 82.2573 162.71 82.6371 163.843 82.9755C164.372 83.155 165.176 83.4036 166.255 83.7282C167.334 84.0528 168.131 84.3013 168.674 84.474C168.929 84.5541 169.191 84.6118 169.457 84.6466C169.717 84.6832 169.974 84.7363 170.226 84.8054C170.419 84.8384 170.6 84.9158 170.758 85.0315C170.915 85.1472 171.043 85.2981 171.133 85.4722C171.222 85.6463 171.27 85.8389 171.272 86.0348C171.275 86.2307 171.232 86.4245 171.147 86.6009C171.067 86.9263 170.863 87.2072 170.579 87.3829C170.295 87.5585 169.954 87.615 169.629 87.54C167.828 87.1816 166.057 86.6853 164.331 86.0553C161.679 85.1714 160.092 84.2507 159.57 83.2932C159.002 82.2573 159.171 80.3607 160.078 77.6031C160.257 77.0507 160.463 76.4568 160.703 75.8077C160.944 75.1586 161.212 74.4749 161.5 73.7361C161.47 73.5036 161.493 73.2672 161.569 73.0455C161.662 72.7689 161.837 72.5277 162.071 72.355C163.06 69.9243 163.747 68.1219 164.132 66.9342C164.278 66.4616 164.39 65.9794 164.469 65.491C164.549 65.0036 164.659 64.5216 164.798 64.0478C165.135 63.0327 165.726 62.6667 166.585 62.9429C166.756 62.9997 166.915 63.09 167.052 63.2084C167.189 63.3269 167.301 63.4713 167.382 63.6334C168.425 63.6903 169.465 63.8079 170.494 63.9856C171.389 64.133 172.271 64.3477 173.133 64.6278C174.844 65.1282 176.448 65.9405 177.867 67.024C178.097 67.1941 178.266 67.4356 178.347 67.7113C178.427 67.987 178.416 68.2817 178.314 68.5501C178.213 68.8885 177.986 69.1752 177.681 69.3511C177.524 69.4633 177.342 69.5357 177.15 69.5622C176.959 69.5886 176.764 69.5683 176.582 69.503V69.503Z" fill="#F15B40"/>
<path d="M177.771 86.4006C177.863 86.2535 177.988 86.1297 178.136 86.0388C178.284 85.9478 178.45 85.892 178.623 85.8758C178.832 85.8542 179.043 85.8812 179.241 85.9547C179.438 86.0281 179.616 86.1461 179.76 86.2996C179.905 86.453 180.013 86.6378 180.075 86.8397C180.138 87.0416 180.153 87.2552 180.121 87.464C180.069 88.089 180.129 88.7182 180.299 89.3216C180.793 90.3807 181.578 91.2765 182.56 91.9042C183.645 92.7095 184.905 93.2444 186.236 93.4648C187.933 93.7342 189.183 93.3129 189.994 92.1873C190.681 91.2689 190.681 90.1572 189.994 88.8658C189.326 87.6251 188.386 86.5532 187.246 85.7308C186.226 84.9735 185.405 83.9781 184.855 82.8305C184.55 82.2531 184.415 81.6007 184.465 80.9492C184.515 80.2977 184.748 79.6737 185.136 79.1499C186.078 77.8448 187.672 77.1957 189.946 77.1888C191.908 77.1272 193.836 77.7063 195.443 78.8392C196.243 79.432 196.961 80.1286 197.58 80.9108C198.528 82.0847 198.828 82.918 198.48 83.4106C198.402 83.5572 198.291 83.6834 198.155 83.7791C198.02 83.8748 197.864 83.9372 197.7 83.9614C197.537 83.9855 197.37 83.9708 197.213 83.9183C197.056 83.8658 196.913 83.7771 196.796 83.6592C196.295 83.2447 195.834 82.7822 195.422 82.2781C194.965 81.7366 194.451 81.2459 193.89 80.8141C192.873 80.0465 191.649 79.6059 190.379 79.5504C189.867 79.4973 189.35 79.576 188.876 79.7789C188.403 79.9818 187.988 80.3024 187.672 80.7105C187.232 81.3251 187.466 82.14 188.359 83.1758C189.026 83.8774 189.74 84.5326 190.496 85.1369C191.912 86.2351 192.887 87.8087 193.244 89.5702C193.373 90.2755 193.355 91 193.19 91.6978C193.026 92.3956 192.719 93.0515 192.289 93.6237C191.682 94.4759 190.859 95.1499 189.906 95.576C188.953 96.0021 187.904 96.1648 186.868 96.0475C184.76 95.9092 182.739 95.1529 181.055 93.8723C179.778 92.9654 178.715 91.7865 177.943 90.4196C177.063 88.8796 176.994 87.5193 177.771 86.4006Z" fill="#F15B40"/>
<path d="M98.6524 212.846L96.5018 214.558L95.5742 213.944L102.493 208.544L103.565 209.234L101.359 217.742L100.404 217.106L101.092 214.434L98.6524 212.846ZM101.401 213.654L102.04 211.209C102.184 210.65 102.349 210.173 102.514 209.697C102.143 210.042 101.751 210.387 101.339 210.719L99.3394 212.28L101.401 213.654Z" fill="#F15B40"/>
<path d="M108.876 212.459L109.831 212.942L106.499 219.592L109.66 221.201L109.254 222.009L105.132 219.938L108.876 212.459Z" fill="#F15B40"/>
<path d="M113.789 223.97L114.607 215.408L115.672 215.794L115.184 220.096C115.067 221.16 114.93 222.209 114.799 223.017C115.204 222.285 115.782 221.443 116.407 220.525L118.86 216.941L119.918 217.32L119.444 221.643C119.334 222.658 119.21 223.66 119.031 224.53C119.506 223.729 120.035 222.935 120.625 222.044L123.072 218.46L124.102 218.826L119.086 225.876L118.035 225.496L118.509 221.056C118.593 220.129 118.726 219.207 118.908 218.294C118.443 219.1 117.939 219.881 117.396 220.635L114.826 224.323L113.789 223.97Z" fill="#F15B40"/>
<path d="M126.638 225.213L125.263 227.596L124.178 227.368L128.637 219.806L129.901 220.069L130.959 228.804L129.86 228.569L129.537 225.807L126.638 225.213ZM129.468 224.958L129.166 222.444C129.097 221.871 129.077 221.36 129.056 220.863C128.829 221.319 128.596 221.788 128.335 222.244L127.029 224.426L129.468 224.958Z" fill="#F15B40"/>
<path d="M136.085 229.426L136.429 225.911L134.285 220.877L135.494 221.001L136.435 223.404C136.697 224.095 136.889 224.585 137.123 225.193C137.411 224.675 137.741 224.164 138.119 223.57L139.527 221.395L140.743 221.512L137.514 226.001L137.171 229.536L136.085 229.426Z" fill="#F15B40"/>
<path d="M143.602 228.618C144.185 228.959 144.85 229.136 145.526 229.129C146.625 229.129 147.25 228.528 147.236 227.686C147.223 226.843 146.776 226.47 145.656 226.056C144.282 225.593 143.451 224.903 143.43 223.729C143.43 222.43 144.467 221.45 146.075 221.429C146.709 221.396 147.341 221.527 147.91 221.809L147.628 222.686C147.141 222.431 146.597 222.306 146.048 222.32C144.921 222.32 144.502 223.011 144.509 223.591C144.509 224.371 145.031 224.744 146.178 225.172C147.587 225.69 148.315 226.36 148.329 227.582C148.343 228.804 147.422 229.992 145.471 230.026C144.732 230.044 144.001 229.87 143.348 229.522L143.602 228.618Z" fill="#F15B40"/>
<path d="M156.766 220.69L161.157 219.882L161.315 220.773L157.976 221.381L158.47 224.143L161.555 223.577L161.713 224.454L158.628 225.013L159.316 228.721L158.264 228.915L156.766 220.69Z" fill="#F15B40"/>
<path d="M164.744 219.123C165.36 218.817 166.001 218.565 166.661 218.37C167.456 218.04 168.347 218.023 169.155 218.322C169.417 218.453 169.648 218.64 169.833 218.868C170.018 219.097 170.152 219.363 170.226 219.648C170.37 220.103 170.361 220.594 170.201 221.044C170.041 221.494 169.738 221.879 169.34 222.14V222.175C169.7 222.219 170.042 222.358 170.332 222.577C170.621 222.797 170.848 223.089 170.989 223.425C171.352 224.13 171.775 224.802 172.253 225.434L171.195 225.752C170.774 225.206 170.406 224.621 170.096 224.005C169.533 222.983 168.983 222.693 168.035 222.935L167.073 223.232L168.103 226.684L167.08 226.995L164.744 219.123ZM166.86 222.451L167.904 222.134C168.997 221.802 169.512 220.987 169.237 220.062C168.928 219.033 168.055 218.812 166.97 219.123C166.628 219.217 166.298 219.352 165.987 219.523L166.86 222.451Z" fill="#F15B40"/>
<path d="M178.643 218.639L175.682 219.91L176.857 222.672L180.155 221.291L180.505 222.12L176.225 223.957L172.968 216.298L177.091 214.531L177.441 215.366L174.315 216.706L175.338 219.13L178.307 217.852L178.643 218.639Z" fill="#F15B40"/>
<path d="M183.783 218.992C184.459 219.012 185.128 218.85 185.72 218.522C186.675 217.983 186.95 217.141 186.538 216.45C186.126 215.76 185.555 215.601 184.374 215.76C182.958 216.008 181.886 215.808 181.316 214.786C180.684 213.654 181.144 212.286 182.546 211.492C183.09 211.16 183.71 210.972 184.346 210.947L184.511 211.858C183.963 211.864 183.426 212.011 182.951 212.286C181.962 212.846 181.921 213.667 182.196 214.144C182.573 214.835 183.199 214.91 184.415 214.731C185.899 214.517 186.854 214.731 187.452 215.822C188.05 216.913 187.795 218.377 186.078 219.344C185.438 219.716 184.714 219.913 183.975 219.917L183.783 218.992Z" fill="#F15B40"/>
<path d="M188.359 207.998L190.42 210.802L193.649 208.426L191.588 205.616L192.461 204.967L197.36 211.686L196.487 212.328L194.185 209.179L190.956 211.561L193.251 214.71L192.392 215.352L187.486 208.627L188.359 207.998Z" fill="#F15B40"/>
<path d="M57.1453 144.724H53.9228V147.728H57.5094V148.625H52.851V140.339H57.3308V141.243H53.8953V143.868H57.1178L57.1453 144.724Z" fill="#38312D"/>
<path d="M61.2128 147.32C61.794 147.665 62.455 147.851 63.1298 147.859C64.2223 147.859 64.8613 147.286 64.8613 146.443C64.8613 145.601 64.4215 145.221 63.3016 144.786C61.9274 144.303 61.1166 143.598 61.1166 142.431C61.1166 141.133 62.1885 140.166 63.7963 140.166C64.4299 140.145 65.0585 140.286 65.624 140.574L65.3285 141.451C64.8442 141.191 64.3038 141.056 63.7551 141.057C62.6282 141.057 62.1954 141.748 62.1954 142.307C62.1954 143.08 62.6969 143.467 63.8444 143.909C65.2186 144.454 65.9538 145.131 65.9538 146.353C65.9538 147.576 65.0124 148.75 63.0611 148.75C62.3217 148.76 61.5924 148.577 60.9449 148.218L61.2128 147.32Z" fill="#38312D"/>
<path d="M71.4573 141.223H68.9357V140.304H75.0646V141.223H72.5361V148.625H71.4573V141.223Z" fill="#38312D"/>
<path d="M78.4519 140.415C79.2048 140.301 79.9649 140.244 80.7262 140.242C81.9343 140.146 83.1334 140.516 84.0792 141.278C84.4764 141.663 84.7864 142.129 84.988 142.645C85.1896 143.161 85.278 143.715 85.2472 144.268C85.2757 144.861 85.1845 145.454 84.979 146.01C84.7736 146.567 84.4581 147.076 84.0517 147.507C83.0329 148.37 81.7186 148.799 80.3895 148.701C79.7424 148.702 79.0957 148.67 78.4519 148.605V140.415ZM79.5169 147.776C79.8766 147.825 80.2396 147.846 80.6025 147.838C82.8836 147.838 84.1273 146.554 84.1273 144.303C84.1273 142.341 83.0348 141.098 80.7743 141.098C80.3524 141.088 79.9306 141.125 79.5169 141.209V147.776Z" fill="#38312D"/>
<path d="M208.374 141.616L207 142.369L206.793 141.54L208.539 140.601H209.459V148.625H208.415L208.374 141.616Z" fill="#38312D"/>
<path d="M215.423 147.859C215.712 147.876 216.002 147.864 216.289 147.824C216.915 147.747 217.502 147.474 217.966 147.044C218.557 146.481 218.929 145.724 219.017 144.91H218.982C218.664 145.294 218.235 145.569 217.754 145.697C217.274 145.825 216.765 145.799 216.3 145.624C215.834 145.449 215.434 145.133 215.155 144.719C214.876 144.305 214.732 143.815 214.743 143.315C214.731 142.945 214.793 142.576 214.926 142.23C215.059 141.885 215.259 141.57 215.516 141.304C215.772 141.038 216.079 140.826 216.419 140.682C216.758 140.537 217.123 140.463 217.491 140.463C219.127 140.463 220.137 141.796 220.137 143.847C220.176 144.535 220.075 145.225 219.838 145.872C219.602 146.519 219.236 147.111 218.763 147.61C218.129 148.219 217.312 148.598 216.44 148.687C216.113 148.742 215.782 148.763 215.451 148.75L215.423 147.859ZM215.815 143.239C215.792 143.455 215.814 143.673 215.881 143.879C215.947 144.086 216.056 144.276 216.201 144.437C216.346 144.598 216.522 144.726 216.72 144.814C216.918 144.901 217.131 144.946 217.347 144.945C217.659 144.955 217.968 144.884 218.244 144.737C218.52 144.59 218.753 144.374 218.921 144.109C218.991 143.991 219.025 143.854 219.017 143.716C219.017 142.334 218.515 141.292 217.388 141.292C216.433 141.292 215.815 142.107 215.815 143.239V143.239Z" fill="#38312D"/>
<path d="M223.558 148.625V147.935L224.404 147.106C226.465 145.152 227.365 144.116 227.379 142.908C227.401 142.694 227.375 142.478 227.303 142.276C227.23 142.073 227.113 141.89 226.961 141.739C226.808 141.589 226.624 141.475 226.422 141.406C226.219 141.336 226.004 141.314 225.791 141.34C225.166 141.37 224.57 141.614 224.101 142.031L223.758 141.264C224.393 140.736 225.193 140.447 226.018 140.449C226.336 140.422 226.656 140.462 226.956 140.568C227.257 140.674 227.532 140.843 227.764 141.063C227.995 141.284 228.177 141.551 228.298 141.848C228.418 142.144 228.475 142.463 228.464 142.783C228.464 144.268 227.392 145.463 225.716 147.092L225.077 147.686H228.663V148.584L223.558 148.625Z" fill="#38312D"/>
<path d="M237.63 144.53C237.63 147.258 236.627 148.763 234.882 148.763C233.322 148.763 232.264 147.293 232.243 144.62C232.223 141.948 233.398 140.442 234.992 140.442C236.586 140.442 237.63 141.969 237.63 144.53ZM233.294 144.655C233.294 146.726 233.933 147.921 234.916 147.921C236.022 147.921 236.551 146.63 236.551 144.579C236.551 142.528 236.05 141.306 234.93 141.306C233.982 141.306 233.294 142.466 233.294 144.655V144.655Z" fill="#38312D"/>
<path d="M157.893 290.028C155.557 290.028 153.255 288.508 151.022 287.044C148.961 285.705 146.9 284.282 144.997 284.282C143.093 284.282 141.018 285.663 138.978 287.044C136.593 288.612 134.134 290.235 131.619 290.007C129.104 289.779 126.899 287.701 124.817 285.698C123.078 284.027 121.278 282.3 119.499 281.969C117.719 281.638 115.376 282.604 113.102 283.537C111.041 284.407 108.883 285.304 106.918 285.304C106.382 285.308 105.848 285.238 105.331 285.097C102.864 284.407 101.133 281.962 99.4562 279.607C98.0477 277.646 96.598 275.609 94.9008 274.946C93.3549 274.339 90.7783 274.78 88.346 275.305C85.4396 275.92 82.3546 276.376 80.3758 275.381C78.0878 274.235 76.8304 271.528 75.6211 268.911C74.5973 266.715 73.5598 264.443 71.9933 263.469C70.7428 262.689 68.9014 262.585 67.2661 262.585C66.6821 262.585 66.0912 262.585 65.4934 262.585C62.6832 262.661 59.7493 262.793 57.6331 261.204C55.5169 259.616 54.8847 256.771 54.1495 253.974C53.5518 251.627 52.9265 249.189 51.573 247.953C50.2194 246.717 47.739 246.309 45.3479 245.923C42.5171 245.467 39.5901 244.99 37.8724 243.098C36.1547 241.206 35.9485 238.265 35.7562 235.364C35.5913 232.941 35.4263 230.427 34.3133 228.956C33.2002 227.485 30.8778 226.643 28.5761 225.828C25.8758 224.854 23.0793 223.846 21.7052 221.685C20.331 219.523 20.7089 216.568 21.0181 213.709C21.2998 211.292 21.5952 208.792 20.7707 207.128C19.9462 205.464 17.7956 204.228 15.7137 202.985C13.2265 201.528 10.6636 200.022 9.73606 197.626C8.80849 195.23 9.73606 192.42 10.5468 189.671C11.2751 187.344 12.0241 184.941 11.5156 183.152C11.0072 181.364 9.13829 179.755 7.31751 178.174C5.1463 176.268 2.89265 174.307 2.42543 171.772C1.95821 169.238 3.34613 166.662 4.68595 164.135C5.82652 161.974 7.00832 159.736 6.83654 157.872C6.66477 156.007 5.12569 154.115 3.63471 152.223C1.86201 149.944 0 147.596 0 145.014C0 142.431 1.86201 140.07 3.65532 137.798C5.15317 135.899 6.69913 133.965 6.8709 132.142C7.04267 130.319 5.85401 128.047 4.71344 125.886C3.37361 123.358 1.96508 120.734 2.45291 118.241C2.94074 115.749 5.20127 113.739 7.34499 111.847C9.16578 110.266 11.0484 108.622 11.5431 106.868C12.0378 105.114 11.3026 102.67 10.5743 100.343C9.72919 97.5805 8.84972 94.7631 9.76355 92.3876C10.6774 90.0121 13.2608 88.486 15.7481 87.029C17.8094 85.8067 19.9806 84.5431 20.7982 82.8858C21.6158 81.2285 21.3273 78.7425 21.0456 76.3118C20.7158 73.453 20.3585 70.4974 21.7326 68.3291C23.1068 66.1608 25.8552 65.1457 28.6035 64.1859C30.8778 63.371 33.2277 62.5286 34.3407 61.0577C35.4538 59.5869 35.6187 57.0733 35.7768 54.6495C35.976 51.7768 36.1753 48.8075 37.893 46.9154C39.6107 45.0233 42.4896 44.5469 45.3479 44.0911C47.739 43.7044 50.2057 43.3039 51.5317 42.0609C52.8578 40.8179 53.5106 38.3803 54.1152 36.0325C54.8023 33.2703 55.565 30.3562 57.5987 28.8094C59.6325 27.2626 62.642 27.3386 65.4522 27.4283C66.0499 27.4283 66.6408 27.4629 67.2249 27.4629C68.8601 27.4629 70.7015 27.3524 71.952 26.5721C73.5049 25.6053 74.563 23.3334 75.5799 21.1306C76.796 18.5134 78.0534 15.8065 80.3414 14.6602C82.3271 13.6727 85.3984 14.1216 88.3048 14.7431C90.744 15.2679 93.3137 15.7029 94.8596 15.1022C96.5567 14.4116 98.0134 12.4021 99.415 10.441C101.092 8.08624 102.85 5.65554 105.297 4.95118C107.543 4.30898 110.436 5.39313 113.088 6.5049C115.335 7.44404 117.63 8.43152 119.485 8.07934C121.34 7.72716 123.065 6.00771 124.803 4.35041C126.864 2.34784 129.042 0.276215 131.612 0.0414309C134.182 -0.193353 136.58 1.42251 138.964 3.00386C141.025 4.34351 143.086 5.7315 144.983 5.7315C146.879 5.7315 148.968 4.35041 151.009 3.00386C153.393 1.43633 155.866 -0.179543 158.367 0.0414309C160.868 0.262404 163.088 2.34784 165.176 4.35041C166.908 6.02152 168.701 7.74788 170.488 8.07934C172.274 8.4108 174.61 7.44404 176.884 6.5049C178.946 5.63482 181.103 4.73712 183.068 4.73712C183.602 4.7357 184.134 4.80772 184.649 4.95118C187.122 5.64173 188.853 8.08624 190.53 10.4755C191.904 12.4436 193.388 14.4738 195.085 15.1367C196.631 15.7375 199.208 15.3024 201.64 14.7776C204.54 14.163 207.625 13.7073 209.61 14.7085C211.898 15.8479 213.156 18.5549 214.365 21.172C215.389 23.3679 216.426 25.6398 217.993 26.6135C219.25 27.3938 221.085 27.4974 222.72 27.4974C223.304 27.4974 223.895 27.4974 224.486 27.4974C227.303 27.4283 230.237 27.2971 232.346 28.8785C234.456 30.4598 235.095 33.3117 235.837 36.1015C236.434 38.4563 237.06 40.887 238.413 42.1231C239.767 43.3591 242.247 43.7735 244.638 44.1947C247.469 44.6504 250.403 45.1269 252.114 47.0121C253.825 48.8973 254.031 51.8459 254.23 54.7531C254.395 57.1769 254.56 59.6835 255.673 61.1544C256.786 62.6252 259.108 63.4746 261.41 64.2895C264.11 65.2631 266.907 66.2644 268.281 68.4327C269.655 70.601 269.27 73.5565 268.968 76.4154C268.68 78.8323 268.391 81.3389 269.216 82.9962C270.04 84.6535 272.184 85.9034 274.266 87.1395C276.753 88.5965 279.323 90.1088 280.25 92.505C281.178 94.9012 280.285 97.7117 279.433 100.453C278.704 102.78 277.962 105.19 278.464 106.979C278.965 108.767 280.841 110.376 282.662 111.958C284.84 113.857 287.094 115.818 287.561 118.359C288.028 120.9 286.64 123.462 285.3 125.996C284.153 128.158 282.971 130.388 283.143 132.253C283.315 134.117 284.854 136.016 286.352 137.908C288.145 140.173 290.007 142.521 290.007 145.11C290.007 147.7 288.145 150.055 286.345 152.32C284.854 154.212 283.308 156.159 283.143 157.968C282.978 159.778 284.153 162.07 285.3 164.232C286.64 166.766 288.049 169.376 287.561 171.869C287.073 174.362 284.812 176.371 282.662 178.27C280.841 179.852 278.965 181.488 278.464 183.249C277.962 185.01 278.704 187.441 279.426 189.768C280.278 192.53 281.164 195.354 280.243 197.73C279.323 200.105 276.753 201.631 274.266 203.081C272.204 204.304 270.026 205.567 269.216 207.225C268.405 208.882 268.68 211.368 268.961 213.806C269.298 216.664 269.648 219.613 268.274 221.781C266.9 223.95 264.152 224.965 261.403 225.925C259.129 226.739 256.779 227.589 255.673 229.053C254.567 230.517 254.395 233.037 254.23 235.461C254.038 238.341 253.838 241.31 252.121 243.195C250.403 245.08 247.469 245.564 244.638 246.019C242.247 246.406 239.774 246.807 238.42 248.05C237.067 249.293 236.434 251.723 235.837 254.078C235.15 256.84 234.38 259.761 232.346 261.301C230.313 262.841 227.296 262.772 224.486 262.682C223.895 262.682 223.297 262.682 222.713 262.682C221.078 262.682 219.243 262.793 217.993 263.566C216.44 264.54 215.382 266.812 214.365 269.014C213.149 271.625 211.898 274.332 209.61 275.478C207.632 276.472 204.547 276.023 201.647 275.402C199.208 274.884 196.631 274.442 195.085 275.043C193.388 275.733 191.932 277.743 190.53 279.711C188.853 282.059 187.095 284.489 184.655 285.194C182.395 285.836 179.509 284.752 176.857 283.64C174.617 282.694 172.329 281.714 170.467 282.066C168.605 282.418 166.887 284.137 165.149 285.788C163.088 287.797 160.91 289.869 158.34 290.104C158.216 290.028 158.031 290.028 157.893 290.028ZM144.976 282.508C147.381 282.508 149.71 284.048 151.971 285.539C154.1 286.92 156.299 288.391 158.196 288.212C160.092 288.032 162.078 286.181 163.946 284.386C165.815 282.59 167.856 280.622 170.13 280.194C172.405 279.766 175.043 280.837 177.523 281.879C180.004 282.922 182.422 283.861 184.161 283.364C186.036 282.832 187.596 280.657 189.08 278.53C190.564 276.403 192.248 274.097 194.44 273.247C196.398 272.481 199.297 272.944 201.998 273.524C204.588 274.076 207.281 274.511 208.813 273.745C210.545 272.881 211.665 270.458 212.75 268.117C213.836 265.776 215.045 263.166 217.052 261.902C218.68 260.887 220.817 260.756 222.7 260.756C223.297 260.756 223.909 260.756 224.513 260.756C225.118 260.756 225.709 260.756 226.293 260.756C228.059 260.756 230.031 260.631 231.268 259.685C232.814 258.518 233.473 255.936 234.112 253.436C234.751 250.936 235.486 248.139 237.218 246.53C238.949 244.921 241.698 244.493 244.343 244.065C246.878 243.651 249.503 243.23 250.802 241.793C252.1 240.357 252.286 237.705 252.457 235.136C252.636 232.45 252.822 229.674 254.251 227.775C255.68 225.876 258.284 224.951 260.799 224.046C263.313 223.142 265.725 222.279 266.749 220.594C267.773 218.909 267.436 216.312 267.154 213.764C266.845 211.085 266.522 208.316 267.58 206.168C268.638 204.021 271.016 202.653 273.317 201.334C275.619 200.015 277.845 198.683 278.546 196.86C279.247 195.037 278.45 192.53 277.687 190.079C276.89 187.503 276.066 184.837 276.712 182.538C277.358 180.238 279.46 178.457 281.453 176.703C283.445 174.949 285.417 173.25 285.774 171.323C286.132 169.397 284.881 167.104 283.713 164.846C282.449 162.45 281.143 160.012 281.356 157.589C281.569 155.165 283.287 153.086 284.943 151.001C286.599 148.915 288.214 146.858 288.214 144.89C288.214 142.921 286.551 140.815 284.943 138.792C283.335 136.769 281.569 134.531 281.356 132.19C281.143 129.85 282.449 127.357 283.713 124.94C284.909 122.682 286.145 120.341 285.774 118.456C285.403 116.57 283.397 114.775 281.453 113.076C279.508 111.378 277.33 109.506 276.712 107.241C276.093 104.976 276.89 102.283 277.694 99.7074C278.45 97.2559 279.24 94.7216 278.546 92.9262C277.852 91.1308 275.544 89.7566 273.317 88.4515C271.091 87.1464 268.632 85.6894 267.58 83.6177C266.529 81.5461 266.845 78.7149 267.154 76.0218C267.457 73.4668 267.766 70.822 266.749 69.1854C265.732 67.5488 263.224 66.6373 260.812 65.7327C258.291 64.8281 255.68 63.8889 254.258 61.9969C252.835 60.1048 252.643 57.3288 252.457 54.6426C252.286 52.0738 252.107 49.4152 250.808 47.9858C249.51 46.5563 246.885 46.1282 244.35 45.7139C241.704 45.2857 238.97 44.8438 237.218 43.2486C235.466 41.6535 234.785 38.9535 234.119 36.3432C233.48 33.8435 232.82 31.2608 231.274 30.1283C230.031 29.1823 228.059 29.0511 226.286 29.0511C225.709 29.0511 225.118 29.0511 224.52 29.0856H222.713C220.831 29.0856 218.687 28.9544 217.059 27.9393C215.059 26.6894 213.891 24.1759 212.757 21.7244C211.624 19.273 210.552 16.9666 208.813 16.0896C207.288 15.3231 204.595 15.7582 201.998 16.3106C199.297 16.8907 196.405 17.3533 194.44 16.5868C192.248 15.7375 190.64 13.4863 189.087 11.3042C187.534 9.12206 186.036 7.02281 184.168 6.47038C182.436 5.97319 179.908 6.96066 177.53 7.95504C175.153 8.94942 172.453 10.0681 170.13 9.63306C167.808 9.19802 165.843 7.29903 163.946 5.44837C162.05 3.59772 160.154 1.80231 158.196 1.62277C156.237 1.44323 154.073 2.90027 151.971 4.30207C149.71 5.77983 147.381 7.31974 144.976 7.31974C142.571 7.31974 140.249 5.77983 137.988 4.30207C135.858 2.92099 133.694 1.44323 131.763 1.62277C129.832 1.80231 127.881 3.65297 126.012 5.44837C124.143 7.24378 122.103 9.20492 119.828 9.63306C117.554 10.0612 114.916 8.99776 112.435 7.95504C110.058 6.96066 107.523 5.98009 105.798 6.47038C103.922 7.00209 102.363 9.18421 100.872 11.3042C99.3807 13.4241 97.7042 15.8825 95.5055 16.7318C93.5473 17.4983 90.6546 17.0357 87.9475 16.4556C85.3572 15.9032 82.6569 15.4681 81.1316 16.2277C79.4001 17.0978 78.2733 19.5216 77.1877 21.8626C76.1021 24.2035 74.8928 26.8137 72.8865 28.0774C71.2581 29.0994 69.1144 29.2306 67.2317 29.2306C66.634 29.2306 66.0293 29.2306 65.4247 29.2306C64.8201 29.2306 64.236 29.2306 63.6589 29.2306C61.8862 29.2306 59.9142 29.3549 58.6706 30.301C57.1246 31.4749 56.465 34.0575 55.826 36.5159C55.139 39.1192 54.4519 41.8123 52.7273 43.4213C51.0027 45.0302 48.2406 45.4929 45.6022 45.8865C43.0668 46.3008 40.4421 46.7221 39.1366 48.1584C37.8312 49.5947 37.6594 52.2464 37.4876 54.8152C37.309 57.4531 37.1028 60.2291 35.7287 62.1488C34.3545 64.0685 31.7023 64.9731 29.1807 65.8777C26.6591 66.7823 24.2611 67.6455 23.2374 69.2959C22.2136 70.9463 22.5503 73.5842 22.8251 76.1323C23.1343 78.8116 23.4641 81.5806 22.3991 83.7282C21.3341 85.8758 18.9637 87.2431 16.6619 88.562C14.3602 89.8809 12.134 91.2137 11.4332 93.0367C10.7323 94.8597 11.5294 97.3664 12.292 99.8178C13.0891 102.394 13.9204 105.059 13.2677 107.359C12.615 109.658 10.5193 111.44 8.53366 113.194C6.54797 114.948 4.56915 116.646 4.21186 118.573C3.85457 120.5 5.09821 122.799 6.27313 125.064C7.53738 127.453 8.84285 129.898 8.62298 132.308C8.40311 134.718 6.69913 136.81 5.04324 138.903C3.38735 140.995 1.77269 143.046 1.77269 145.007C1.77269 146.968 3.43545 149.081 5.04324 151.118C6.65103 153.155 8.40998 155.365 8.62298 157.706C8.83597 160.047 7.53738 162.54 6.26626 164.957C5.07072 167.215 3.83396 169.556 4.20499 171.441C4.57602 173.326 6.58232 175.121 8.52678 176.82C10.4712 178.519 12.6493 180.39 13.2608 182.655C13.8723 184.92 13.0822 187.62 12.2852 190.196C11.5225 192.647 10.7323 195.182 11.4263 196.97C12.1203 198.759 14.4289 200.147 16.6551 201.445C18.8812 202.743 21.341 204.207 22.3923 206.313C23.4435 208.419 23.1274 211.216 22.8183 213.909C22.5228 216.464 22.2136 219.102 23.2236 220.746C24.2337 222.389 26.7553 223.301 29.1738 224.198C31.5924 225.096 34.2995 226.042 35.7149 227.927C37.1303 229.812 37.3365 232.602 37.5151 235.288C37.6937 237.857 37.8724 240.516 39.171 241.945C40.4696 243.375 43.0943 243.803 45.6296 244.21C48.2749 244.638 51.0095 245.08 52.7616 246.682C54.5137 248.284 55.1939 250.971 55.8604 253.588C56.5269 256.205 57.159 258.67 58.705 259.844C59.9417 260.783 61.9137 260.914 63.6795 260.914C64.2566 260.914 64.8544 260.914 65.4453 260.88C66.0362 260.845 66.6683 260.88 67.2661 260.88C69.1487 260.88 71.2924 261.018 72.9208 262.033C74.9203 263.283 76.0883 265.797 77.222 268.248C78.3557 270.699 79.4276 273.006 81.1659 273.876C82.6913 274.642 85.3846 274.207 87.975 273.655C90.6821 273.075 93.5748 272.612 95.533 273.379C97.7248 274.228 99.3326 276.486 100.885 278.661C102.438 280.837 103.936 282.943 105.819 283.495C107.543 283.985 110.072 283.005 112.449 282.004C114.826 281.002 117.534 279.897 119.842 280.326C122.151 280.754 124.137 282.673 126.06 284.517C127.984 286.361 129.853 288.163 131.804 288.343C133.756 288.522 135.927 287.065 138.036 285.663C140.269 284.048 142.605 282.508 144.976 282.508Z" fill="#F15B40"/>
<path d="M149.882 169.342C149.882 169.342 149.751 169.19 149.497 168.948C149.145 168.615 148.77 168.306 148.377 168.023C148.13 167.85 147.862 167.664 147.566 167.491C147.271 167.318 146.948 167.146 146.611 166.98C146.439 166.904 146.268 166.821 146.089 166.752L145.814 166.642L145.539 166.545C145.354 166.476 145.161 166.434 144.976 166.372C144.79 166.31 144.584 166.276 144.392 166.241C144.2 166.207 144 166.158 143.801 166.137L143.506 166.103C143.407 166.096 143.308 166.096 143.21 166.103H142.915H142.626C142.436 166.093 142.246 166.093 142.056 166.103C141.872 166.108 141.688 166.125 141.506 166.151H141.238L140.984 166.193C140.64 166.241 140.297 166.324 140.036 166.393L139.617 166.51L139.424 166.573L139.246 166.628C139.019 166.718 138.813 166.78 138.648 166.849L138.139 167.063H138.105L138.607 166.821C138.765 166.738 138.971 166.662 139.198 166.573C139.424 166.483 139.692 166.393 139.981 166.296L140.441 166.172L140.943 166.062L141.204 166.013L141.472 165.979C141.65 165.979 141.843 165.93 142.035 165.923C142.227 165.913 142.42 165.913 142.612 165.923H142.915H143.21C143.616 165.943 144.021 165.994 144.419 166.075L145.017 166.22C145.21 166.276 145.402 166.324 145.594 166.4L145.876 166.497L146.151 166.607C146.336 166.676 146.515 166.766 146.687 166.842C147.019 167.001 147.343 167.178 147.656 167.374C147.951 167.553 148.226 167.746 148.473 167.926C148.721 168.106 148.934 168.292 149.119 168.458C149.305 168.623 149.463 168.768 149.586 168.9C149.841 169.148 149.971 169.307 149.971 169.307C149.977 169.313 149.982 169.32 149.985 169.328C149.988 169.335 149.99 169.344 149.99 169.352C149.99 169.36 149.988 169.369 149.985 169.376C149.982 169.384 149.977 169.391 149.971 169.397C149.962 169.402 149.951 169.404 149.941 169.403C149.93 169.403 149.92 169.4 149.911 169.394C149.902 169.389 149.895 169.381 149.89 169.372C149.885 169.362 149.882 169.352 149.882 169.342V169.342Z" fill="#ED9F61"/>
<path d="M149.875 169.321C149.805 169.145 149.745 168.965 149.696 168.782C149.648 168.617 149.593 168.402 149.538 168.161C149.483 167.919 149.435 167.636 149.394 167.332C149.353 167.028 149.318 166.697 149.305 166.352C149.284 165.981 149.284 165.61 149.305 165.24C149.305 165.046 149.305 164.853 149.36 164.66C149.415 164.466 149.36 164.459 149.394 164.363C149.428 164.266 149.428 164.163 149.449 164.066C149.449 163.866 149.531 163.665 149.573 163.465C149.614 163.265 149.676 163.071 149.737 162.878C149.856 162.486 150.008 162.105 150.191 161.739C150.232 161.649 150.273 161.552 150.322 161.463L150.466 161.207C150.555 161.027 150.665 160.869 150.761 160.703C150.857 160.537 150.974 160.385 151.084 160.24C151.194 160.095 151.187 160.088 151.242 160.019L151.414 159.812C151.634 159.536 151.867 159.308 152.101 159.08C152.335 158.852 152.52 158.673 152.719 158.521C152.919 158.369 153.077 158.224 153.221 158.127L153.675 157.803H153.709L153.276 158.155C153.139 158.258 152.981 158.41 152.795 158.569C152.753 158.614 152.707 158.656 152.658 158.693L152.513 158.838L152.211 159.149C152.005 159.37 151.785 159.612 151.572 159.888C151.524 159.957 151.469 160.019 151.414 160.088L151.263 160.309C151.152 160.458 151.049 160.613 150.954 160.772C150.857 160.931 150.754 161.097 150.665 161.269L150.528 161.525L150.404 161.794L150.28 162.063L150.177 162.34C150.095 162.526 150.04 162.719 149.971 162.906C149.902 163.092 149.861 163.292 149.813 163.486C149.765 163.679 149.717 163.873 149.689 164.066C149.662 164.259 149.655 164.266 149.634 164.356C149.614 164.446 149.634 164.556 149.6 164.646C149.6 164.839 149.6 165.033 149.545 165.219C149.545 165.592 149.511 165.958 149.545 166.303C149.579 166.648 149.586 166.994 149.621 167.277C149.675 167.761 149.762 168.241 149.882 168.713C149.971 169.052 150.033 169.238 150.033 169.238C150.036 169.246 150.038 169.254 150.038 169.262C150.038 169.271 150.037 169.279 150.033 169.287C150.03 169.295 150.025 169.302 150.019 169.307C150.013 169.313 150.006 169.318 149.999 169.321C149.991 169.324 149.983 169.326 149.974 169.326C149.966 169.326 149.958 169.325 149.95 169.321C149.942 169.318 149.935 169.313 149.93 169.307C149.924 169.301 149.919 169.294 149.916 169.286L149.875 169.321Z" fill="#ED9F61"/>
<path d="M132.608 160.896C132.608 160.896 138.902 154.965 145.313 161.421C145.306 161.407 139.596 167.871 132.608 160.896Z" fill="#EA9C41"/>
<path d="M151.29 150.131C151.29 150.131 143.011 152.582 145.306 161.407C145.306 161.407 153.743 159.743 151.29 150.131Z" fill="#ED9F61"/>
<path d="M127.558 152.285C127.558 152.285 133.852 146.36 140.263 152.81C140.263 152.81 134.553 159.28 127.558 152.285Z" fill="#EA9C41"/>
<path d="M146.247 141.561C146.247 141.561 138.002 144.013 140.263 152.831C140.263 152.81 148.7 151.146 146.247 141.561Z" fill="#ED9F61"/>
<path d="M122.515 143.688C122.515 143.688 128.809 137.763 135.219 144.22C135.219 144.22 129.516 150.683 122.515 143.688Z" fill="#EA9C41"/>
<path d="M141.204 132.943C141.204 132.943 132.959 135.395 135.219 144.22C135.219 144.22 143.657 142.555 141.204 132.943Z" fill="#ED9F61"/>
<path d="M117.492 135.098C117.492 135.098 123.793 129.166 130.197 135.622C130.176 135.622 124.473 142.093 117.492 135.098Z" fill="#EA9C41"/>
<path d="M136.167 124.353C136.167 124.353 127.888 126.804 130.176 135.622C130.176 135.622 138.613 133.965 136.167 124.353Z" fill="#ED9F61"/>
<path d="M112.429 126.5C112.429 126.5 118.729 120.576 125.133 127.032C125.133 127.06 119.43 133.496 112.429 126.5Z" fill="#EA9C41"/>
<path d="M131.124 115.756C131.124 115.756 122.845 118.207 125.133 127.032C125.133 127.06 133.57 125.368 131.124 115.756Z" fill="#ED9F61"/>
<path d="M107.385 117.91C107.385 117.91 113.686 111.978 120.09 118.435C120.09 118.435 114.387 124.905 107.385 117.91Z" fill="#EA9C41"/>
<path d="M111.075 102.829C111.075 102.829 119.451 104.935 117.527 113.877C117.527 113.85 109.027 112.558 111.075 102.829Z" fill="#EA9C41"/>
<path d="M126.081 107.165C126.081 107.165 117.802 109.617 120.09 118.435C120.09 118.435 128.534 116.771 126.081 107.165Z" fill="#ED9F61"/>
<path d="M150.789 170.888C150.765 170.887 150.742 170.881 150.722 170.869C150.701 170.856 150.684 170.84 150.672 170.819L116.901 113.249C116.886 113.218 116.882 113.183 116.891 113.15C116.9 113.117 116.921 113.088 116.95 113.069C116.964 113.061 116.981 113.055 116.998 113.053C117.015 113.051 117.032 113.052 117.049 113.056C117.065 113.061 117.081 113.068 117.095 113.079C117.108 113.09 117.12 113.103 117.128 113.118L150.899 170.681C150.917 170.711 150.922 170.746 150.915 170.779C150.907 170.813 150.886 170.842 150.857 170.861C150.838 170.876 150.814 170.886 150.789 170.888Z" fill="#EA9C41"/>
<path d="M155.124 168.285C155.172 168.163 155.213 168.039 155.248 167.912C155.346 167.579 155.422 167.24 155.475 166.897C155.511 166.668 155.537 166.438 155.55 166.207C155.55 165.965 155.55 165.702 155.55 165.433C155.55 165.302 155.55 165.164 155.55 165.026C155.55 164.888 155.55 164.888 155.55 164.819C155.55 164.749 155.55 164.68 155.55 164.611C155.55 164.542 155.502 164.328 155.475 164.19C155.447 164.052 155.413 163.907 155.372 163.776C155.33 163.645 155.296 163.5 155.248 163.362C155.221 163.296 155.198 163.229 155.179 163.161L155.097 162.968L155.014 162.775C155.014 162.705 154.952 162.643 154.925 162.581C154.898 162.519 154.794 162.339 154.733 162.222C154.671 162.105 154.595 161.994 154.526 161.884L154.423 161.725C154.382 161.677 154.348 161.621 154.313 161.573C154.169 161.366 154.018 161.193 153.881 161.027L153.668 160.8L153.571 160.696L153.475 160.599C153.345 160.482 153.242 160.371 153.145 160.289L152.843 160.026L153.159 160.268C153.262 160.344 153.372 160.447 153.51 160.565C153.647 160.682 153.778 160.827 153.936 160.986C154.094 161.145 154.08 161.145 154.162 161.242C154.245 161.338 154.313 161.421 154.389 161.518L154.506 161.67C154.547 161.725 154.575 161.78 154.616 161.835C154.657 161.891 154.767 162.056 154.829 162.174C154.891 162.291 154.973 162.415 155.035 162.54C155.097 162.664 155.097 162.664 155.131 162.726L155.214 162.926C155.332 163.194 155.429 163.471 155.502 163.755C155.543 163.893 155.578 164.038 155.605 164.176C155.633 164.314 155.667 164.466 155.681 164.611C155.695 164.756 155.681 164.749 155.681 164.819V165.033C155.681 165.171 155.681 165.316 155.681 165.454C155.695 165.716 155.695 165.979 155.681 166.241C155.681 166.49 155.626 166.724 155.591 166.932C155.557 167.139 155.509 167.339 155.468 167.512C155.427 167.684 155.378 167.836 155.337 167.954C155.298 168.083 155.252 168.209 155.2 168.333C155.196 168.338 155.191 168.341 155.186 168.344C155.181 168.346 155.175 168.347 155.169 168.347C155.163 168.347 155.157 168.346 155.152 168.344C155.147 168.341 155.142 168.338 155.138 168.333C155.131 168.328 155.125 168.32 155.123 168.312C155.121 168.303 155.121 168.294 155.124 168.285Z" fill="#ED9F61"/>
<path d="M155.131 168.271L155.42 167.981L155.763 167.684C155.901 167.574 156.059 167.45 156.237 167.325C156.416 167.201 156.622 167.077 156.835 166.952C157.058 166.823 157.287 166.706 157.522 166.6L157.907 166.441L158.106 166.372L158.312 166.31C158.45 166.262 158.594 166.234 158.731 166.2C158.869 166.165 159.013 166.138 159.157 166.117C159.446 166.068 159.738 166.042 160.03 166.041H160.456L160.868 166.075C161.002 166.083 161.136 166.102 161.267 166.131H161.459L161.645 166.179C161.878 166.228 162.107 166.292 162.332 166.372C162.521 166.432 162.707 166.504 162.888 166.586C163.046 166.662 163.191 166.718 163.301 166.78L163.651 166.966L163.294 166.8C163.177 166.745 163.033 166.697 162.875 166.628L162.744 166.579L162.607 166.531L162.318 166.434C162.112 166.379 161.885 166.31 161.631 166.269L161.452 166.234H161.26C161.13 166.211 161 166.195 160.868 166.186C160.733 166.179 160.598 166.179 160.463 166.186H160.044H159.838H159.625L159.199 166.241L158.78 166.324C158.642 166.324 158.505 166.386 158.374 166.428L158.168 166.497L157.976 166.566C157.845 166.607 157.721 166.662 157.591 166.711C157.35 166.821 157.117 166.925 156.904 167.049C156.691 167.173 156.485 167.291 156.306 167.408C156.018 167.599 155.742 167.809 155.482 168.036C155.296 168.202 155.193 168.306 155.193 168.306C155.189 168.31 155.184 168.314 155.179 168.316C155.174 168.319 155.168 168.32 155.162 168.32C155.156 168.32 155.15 168.319 155.145 168.316C155.14 168.314 155.135 168.31 155.131 168.306C155.127 168.302 155.123 168.297 155.121 168.292C155.118 168.286 155.117 168.281 155.117 168.275C155.117 168.269 155.118 168.263 155.121 168.258C155.123 168.252 155.127 168.248 155.131 168.244V168.271Z" fill="#ED9F61"/>
<path d="M154.932 154.488C154.932 154.488 160.717 156.615 158.683 162.775C158.718 162.795 152.747 161.221 154.932 154.488Z" fill="#EA9C41"/>
<path d="M167.76 163.009C167.76 163.009 163.548 158.493 158.683 162.795C158.718 162.795 162.456 167.67 167.76 163.009Z" fill="#ED9F61"/>
<path d="M158.759 148.467C158.759 148.467 164.551 150.593 162.517 156.753C162.517 156.801 156.574 155.227 158.759 148.467Z" fill="#EA9C41"/>
<path d="M171.594 157.015C171.594 157.015 167.375 152.499 162.517 156.801C162.517 156.801 166.276 161.67 171.594 157.015Z" fill="#ED9F61"/>
<path d="M162.593 142.493C162.593 142.493 168.378 144.627 166.344 150.78C166.344 150.807 160.408 149.233 162.593 142.493Z" fill="#EA9C41"/>
<path d="M175.421 151.015C175.421 151.015 171.202 146.505 166.344 150.807C166.344 150.807 170.117 155.676 175.421 151.015Z" fill="#ED9F61"/>
<path d="M166.42 136.499C166.42 136.499 172.205 138.633 170.178 144.786C170.178 144.814 164.214 143.239 166.42 136.499Z" fill="#EA9C41"/>
<path d="M179.255 145.014C179.255 145.014 175.036 140.498 170.178 144.807C170.178 144.814 173.944 149.682 179.255 145.014Z" fill="#ED9F61"/>
<path d="M170.254 130.512C170.254 130.512 176.039 132.639 174.005 138.799C174.005 138.799 168.062 137.245 170.254 130.512Z" fill="#EA9C41"/>
<path d="M183.082 139.027C183.082 139.027 178.863 134.511 174.006 138.813C174.006 138.799 177.771 143.688 183.082 139.027Z" fill="#ED9F61"/>
<path d="M174.081 124.512C174.081 124.512 179.866 126.638 177.839 132.798C177.839 132.819 171.896 131.244 174.081 124.512Z" fill="#EA9C41"/>
<path d="M184.827 122.026C184.827 122.026 186.201 128.068 179.914 129.705C179.921 129.705 178.018 123.835 184.827 122.026Z" fill="#EA9C41"/>
<path d="M186.888 133.033C186.888 133.033 182.663 128.517 177.812 132.819C177.839 132.819 181.605 137.694 186.888 133.033Z" fill="#ED9F61"/>
<path d="M154.437 169.362C154.429 169.348 154.424 169.331 154.424 169.314C154.424 169.297 154.429 169.28 154.437 169.266L180.093 129.131C180.111 129.115 180.134 129.106 180.158 129.106C180.183 129.106 180.206 129.115 180.224 129.131C180.24 129.149 180.249 129.173 180.249 129.197C180.249 129.221 180.24 129.245 180.224 129.263L154.595 169.369C154.579 169.385 154.556 169.394 154.533 169.394C154.51 169.394 154.488 169.385 154.472 169.369C154.46 169.371 154.448 169.368 154.437 169.362V169.362Z" fill="#EA9C41"/>
<path d="M124.885 147.341C124.885 147.341 120.9 143.198 125.463 140.007C122.646 134.165 129.942 126.749 140.146 125.831C140.063 121.245 145.869 122.247 146.872 121.328C147.875 120.41 146.453 118 144.124 118.994C147.443 114.582 153.743 118.746 153.496 121.832C158.725 120.582 158.141 125.499 158.141 125.499C158.141 125.499 162.456 124.415 162.043 128.752C168.845 127.916 168.014 134.338 168.014 135.25C171.745 134.255 174.651 139.925 172.411 144.227C175.229 146.485 171.827 152.9 161.377 154.985C150.926 157.071 123.477 159.432 124.885 147.341Z" fill="#F99C95"/>
<path d="M157.921 123.531C154.506 127.019 149.953 129.15 145.1 129.532C153.613 130.416 160.36 124.746 160.36 124.746L157.921 123.531Z" fill="#38312D"/>
<path d="M121.745 145.325C121.745 145.325 130.094 148.335 138.84 147.396C130.107 150.849 117.314 146.533 117.314 146.533L121.745 145.325Z" fill="#38312D"/>
<path d="M167.932 132.632C166.708 134.499 165.093 136.073 163.2 137.246C161.307 138.418 159.181 139.161 156.973 139.42C166.338 139.869 169.855 134.421 169.855 134.421L167.932 132.632Z" fill="#38312D"/>
<path d="M140.853 123.531C140.853 123.531 144.11 127.067 147.869 126.576C142.564 127.861 137.026 125.078 137.026 125.078L140.853 123.531Z" fill="#38312D"/>
<path d="M173.195 141.319C173.195 141.319 171.133 146.153 161.514 146.533C171.065 147.534 175.043 144.461 175.043 144.461L173.195 141.319Z" fill="#38312D"/>
<path d="M123.862 134.083C127.73 138.751 137.995 142.535 150.727 140.988C135.7 143.439 125.854 141.679 120.873 137.722C122.426 132.75 123.862 134.083 123.862 134.083Z" fill="#38312D"/>
<path d="M142.75 121.156C147.972 123.124 149.621 120.12 148.322 118.904C147.023 117.689 144.131 118.994 144.131 118.994L142.75 121.156Z" fill="#38312D"/>
<path d="M162.277 124.809C162.277 124.809 161.59 130.713 155.708 131.928C162.888 131.086 164.476 127.716 164.476 127.716L162.277 124.809Z" fill="#38312D"/>
<path d="M128.225 151.077H133.247L136.456 151.857L139.452 150.925L141.245 151.857L143.526 151.077L145.491 151.857L148.15 150.925L150.809 151.857L152.768 151.077L155.056 151.857L156.849 150.925L159.845 151.857L163.053 151.077L167.293 151.387L171.876 149.827C171.876 149.827 165.987 167.933 164.029 174.645C159.137 177.304 137.164 177.304 132.272 174.645C130.307 167.933 125.112 150.234 125.112 150.234L128.225 151.077Z" fill="#F4D5B2"/>
<path d="M148.15 177.276C142.166 177.276 134.766 176.73 131.949 175.204L131.708 175.073L131.633 174.804C129.674 168.099 124.473 150.4 124.473 150.4L124.137 149.247L128.314 150.407H133.323L136.429 151.16L139.514 150.193L141.3 151.132L143.547 150.365L145.498 151.139L148.15 150.207L150.796 151.139L152.754 150.365L155.001 151.132L156.787 150.193L159.865 151.16L162.998 150.4L167.21 150.711L172.913 148.757L172.508 150.027C172.446 150.207 166.599 168.202 164.668 174.825L164.592 175.094L164.345 175.225C161.528 176.73 154.135 177.276 148.15 177.276ZM132.821 174.155C135.157 175.246 141.066 175.943 148.15 175.943C155.234 175.943 161.143 175.253 163.479 174.155C165.176 168.375 169.484 155.027 170.831 150.863L167.396 152.037L163.122 151.726L159.838 152.52L156.924 151.615L155.124 152.555L152.802 151.76L150.837 152.548L148.164 151.602L145.484 152.548L143.526 151.76L141.204 152.555L139.397 151.615L136.49 152.52L133.185 151.719H128.149L126.088 151.146C127.249 155.144 131.117 168.32 132.821 174.155V174.155Z" fill="#38312D"/>
<path d="M169.855 150.49L162.277 168.748L166.324 151.291L167.293 151.36L169.855 150.49Z" fill="#38312D"/>
<path d="M161.542 151.415L156.973 168.278L158.196 151.312L159.845 151.829L161.542 151.415Z" fill="#38312D"/>
<path d="M150.809 151.829L148.322 167.733L145.491 151.829L148.15 150.186L150.809 151.829Z" fill="#38312D"/>
<path d="M137.349 151.505L138.559 167.733L134.848 151.505L135.838 152.016L137.349 151.505Z" fill="#38312D"/>
<path d="M126.796 150.683L133.687 168.278L129.427 151.07L128.225 151.077L126.796 150.683Z" fill="#38312D"/>
</g>
<defs>
<clipPath id="clip0_1_4360">
<rect width="290" height="290" fill="white"/>
</clipPath>
</defs>
</svg>
