<svg width="290" height="290" viewBox="0 0 290 290" fill="none" xmlns="http://www.w3.org/2000/svg">
<path d="M145 290C65.0446 290 0 224.954 0 145.004C0 65.0535 65.0446 0 145 0C224.955 0 290 65.0462 290 145.004C290 224.961 224.948 290 145 290ZM145 1.72303C65.997 1.72303 1.72299 65.9986 1.72299 145.004C1.72299 224.009 65.997 288.277 145 288.277C224.003 288.277 288.277 224.001 288.277 145.004C288.277 66.0059 224.003 1.72303 145 1.72303V1.72303Z" fill="#EF4136"/>
<path d="M145 271.003C75.5207 271.003 19.0038 214.477 19.0038 145.004C19.0038 75.5298 75.5207 19.0042 145 19.0042C214.479 19.0042 270.996 75.5226 270.996 145.004C270.996 214.485 214.465 271.003 145 271.003ZM145 20.7273C76.473 20.7273 20.7267 76.475 20.7267 145.004C20.7267 213.532 76.473 269.273 145 269.273C213.527 269.273 269.273 213.525 269.273 145.004C269.273 76.4822 213.527 20.7273 145 20.7273V20.7273Z" fill="#EF4136"/>
<path d="M71.2459 69.183L69.2467 67.2346C69.0337 66.9955 68.7397 66.8439 68.4215 66.809C68.1033 66.774 67.7834 66.8583 67.5237 67.0455L66.1715 68.4341C65.989 68.6981 65.9125 69.021 65.9569 69.3388C66.0013 69.6566 66.1635 69.9461 66.4114 70.1499L74.4084 77.9363C74.6132 78.1696 74.901 78.3139 75.2106 78.3383C75.5201 78.3628 75.827 78.2655 76.0659 78.0671L77.4181 76.6713C77.6091 76.4274 77.6977 76.1188 77.6651 75.8108C77.6326 75.5027 77.4814 75.2195 77.2437 75.0209L74.9391 72.7744L75.5425 72.1492L77.8471 74.3957C78.2171 74.7443 78.4387 75.2221 78.4658 75.7297C78.4928 76.2374 78.3233 76.736 77.9925 77.122L76.5821 78.576C76.209 78.938 75.7097 79.1405 75.1899 79.1405C74.6701 79.1405 74.1707 78.938 73.7977 78.576L65.8007 70.797C65.428 70.4332 65.2107 69.9392 65.1945 69.4187C65.1782 68.8981 65.3642 68.3915 65.7135 68.0052L67.0657 66.6166C67.44 66.2542 67.9405 66.0515 68.4615 66.0515C68.9825 66.0515 69.4831 66.2542 69.8574 66.6166L71.8566 68.565L71.2459 69.183Z" fill="black"/>
<path d="M84.3319 64.8281L81.722 66.9438L84.1356 71.3059L83.5104 71.8148L76.2404 58.3868L76.5821 58.1032L76.8366 57.9069L77.2001 57.6089L88.832 67.5254L88.1777 68.0634L84.3319 64.8281ZM83.8448 64.3992L77.2146 58.6776L81.4166 66.3694L83.8448 64.3992Z" fill="black"/>
<path d="M91.362 56.0749L91.6019 58.6703L94.648 63.4977L93.921 63.9412L85.924 51.2257L86.651 50.7822L90.715 57.2308L89.9153 48.7102L90.6423 48.2376L91.2384 55.057L98.8355 60.8732L98.1085 61.3385L91.362 56.0749Z" fill="black"/>
<path d="M108.832 54.9989L109.108 55.5732L104.964 57.5725L104.775 57.667L104.179 57.9506L97.636 44.4062L102.507 42.0652L102.783 42.6396L98.712 44.6025L101.336 50.0333L104.615 48.4484L104.891 49.03L101.613 50.6077L104.688 56.9982L108.832 54.9989Z" fill="black"/>
<path d="M127.341 40.8802L127.494 41.5054L126.229 41.818L127.632 47.4379C127.755 47.9362 127.676 48.4631 127.412 48.9032C127.147 49.3433 126.719 49.6608 126.222 49.7861L124.55 50.2005C124.051 50.3238 123.524 50.2445 123.084 49.9802C122.644 49.7159 122.327 49.288 122.201 48.7901L121.053 44.2026C121.01 43.9006 121.04 43.5929 121.14 43.3047C121.24 43.0165 121.407 42.7562 121.627 42.5451C121.356 42.4282 121.117 42.2497 120.927 42.0237C120.738 41.7977 120.604 41.5306 120.536 41.2437L119.708 37.914C119.584 37.4303 119.653 36.9174 119.899 36.4835C120.146 36.0495 120.552 35.7283 121.031 35.5875H121.096L121.322 35.5293L122.354 35.2676C122.852 35.1464 123.378 35.2265 123.818 35.4905C124.257 35.7545 124.575 36.1812 124.702 36.678L125.277 38.9754L124.433 39.1862L123.859 36.8961C123.809 36.5857 123.639 36.3071 123.387 36.1197C123.134 35.9323 122.818 35.8509 122.507 35.8928L121.249 36.2055C120.955 36.3155 120.715 36.5353 120.579 36.8186C120.444 37.1019 120.423 37.4268 120.522 37.7249L121.409 41.0256C121.461 41.3352 121.631 41.6127 121.883 41.7997C122.135 41.9868 122.45 42.0689 122.761 42.0289L127.341 40.8802ZM125.386 42.0289L122.681 42.6977C122.389 42.8063 122.15 43.0235 122.015 43.304C121.879 43.5845 121.858 43.9065 121.954 44.2026L123.052 48.5648C123.104 48.8768 123.276 49.1559 123.532 49.3422C123.787 49.5285 124.106 49.607 124.419 49.5608L126.091 49.1464C126.384 49.0348 126.623 48.8149 126.758 48.532C126.893 48.2492 126.915 47.9251 126.818 47.6269L125.386 42.0289Z" fill="black"/>
<path d="M148.577 36.5326L148.468 33.7482C148.468 33.1157 147.995 32.4032 147.355 32.425L145.422 32.4977C144.782 32.4977 144.382 33.2247 144.411 33.9008L144.818 45.0751C144.806 45.3854 144.916 45.6881 145.123 45.919C145.331 46.1498 145.621 46.2904 145.931 46.311L147.864 46.2383C148.172 46.1949 148.451 46.033 148.641 45.7872C148.831 45.5414 148.917 45.2311 148.882 44.9224L148.766 41.709H149.638L149.755 44.9224C149.781 45.4287 149.612 45.9258 149.282 46.3104C148.951 46.695 148.485 46.9373 147.981 46.9871L145.96 47.0599C145.43 47.0618 144.921 46.8542 144.544 46.4824C144.167 46.1106 143.952 45.6047 143.946 45.0751L143.539 33.9299C143.517 33.4106 143.7 32.9034 144.048 32.5173C144.396 32.1312 144.881 31.8971 145.4 31.8652L147.334 31.7925C147.853 31.7884 148.354 31.9876 148.729 32.3475C149.104 32.7075 149.323 33.1997 149.34 33.7191L149.442 36.5036L148.577 36.5326Z" fill="black"/>
<path d="M163.698 32.4686L162.601 45.5113C162.558 46.0301 162.314 46.5118 161.922 46.8539C161.53 47.196 161.019 47.3716 160.5 47.3434L158.573 47.1834C158.052 47.123 157.575 46.8609 157.245 46.4532C156.915 46.0455 156.757 45.5247 156.806 45.0024L157.912 31.9888L158.777 32.0542L157.679 45.1405C157.628 45.7803 157.984 46.5364 158.624 46.5945L160.558 46.7618C161.19 46.8127 161.677 46.122 161.728 45.4895L162.826 32.4032L163.698 32.4686Z" fill="black"/>
<path d="M177.722 36.8452L176.835 41.0547C176.724 41.551 176.421 41.9829 175.991 42.2556C175.562 42.5282 175.042 42.6193 174.545 42.5087L171.572 41.9125L170.154 48.6447L169.304 48.4702L172.401 33.7481L173.048 33.8863L173.258 33.9299L176.166 34.5479C176.42 34.5958 176.661 34.6933 176.877 34.8349C177.092 34.9765 177.278 35.1593 177.422 35.3729C177.567 35.5864 177.668 35.8264 177.719 36.0791C177.771 36.3318 177.772 36.5922 177.722 36.8452V36.8452ZM175.977 40.8802L176.864 36.6635C176.942 36.3686 176.906 36.0554 176.763 35.786C176.62 35.5166 176.381 35.3108 176.094 35.2094L173.149 34.5915L171.732 41.3237L174.676 41.9489C174.99 41.9793 175.304 41.8839 175.548 41.6836C175.792 41.4832 175.946 41.1943 175.977 40.8802V40.8802Z" fill="black"/>
<path d="M189.34 43.2721L190.241 40.633C190.367 40.3387 190.379 40.008 190.274 39.7055C190.169 39.403 189.955 39.1505 189.674 38.9972L187.842 38.372C187.239 38.1684 186.599 38.7137 186.388 39.3171L182.753 49.8661C182.629 50.1511 182.621 50.4731 182.731 50.7637C182.841 51.0543 183.06 51.2905 183.342 51.422L185.174 52.0472C185.481 52.1244 185.807 52.0767 186.079 51.9146C186.352 51.7525 186.549 51.4891 186.628 51.182L187.668 48.1431L188.489 48.4266L187.449 51.4656C187.294 51.9489 186.957 52.3534 186.51 52.5945C186.063 52.8356 185.54 52.8948 185.05 52.7597L183.138 52.1054C182.651 51.9218 182.255 51.5556 182.034 51.0845C181.813 50.6134 181.784 50.0746 181.953 49.5826L185.588 39.0336C185.765 38.553 186.118 38.1581 186.577 37.9297C187.035 37.7013 187.563 37.6567 188.053 37.8049L189.885 38.4302C190.371 38.6152 190.766 38.9816 190.987 39.4522C191.208 39.9228 191.238 40.4608 191.07 40.9529L190.161 43.592L189.34 43.2721Z" fill="black"/>
<path d="M198.907 53.1959L195.875 51.7418L192.917 55.8059L192.19 55.4496L201.233 43.0903L201.64 43.2866L201.924 43.4248L202.353 43.6283L198.333 58.3941L197.562 58.0233L198.907 53.1959ZM199.089 52.5706L201.43 44.1227L196.29 51.2111L199.089 52.5706Z" fill="black"/>
<path d="M209.812 55.8495L207.558 57.1654L204.49 61.9782L203.763 61.5275L211.884 48.8556L212.611 49.299L208.511 55.7332L215.897 51.371L216.624 51.8363L210.706 55.2897L208.714 64.6318L207.987 64.1593L209.812 55.8495Z" fill="black"/>
<path d="M218.231 71.2041L217.831 71.6985L214.261 68.7904L214.094 68.6523L213.585 68.2379L223.036 56.6056L227.224 59.9935L226.824 60.4879L223.312 57.6452L219.554 62.3054L222.375 64.5955L221.975 65.0972L219.147 62.7998L214.661 68.3397L218.231 71.2041Z" fill="black"/>
<path d="M229.826 76.4459L227.682 78.5179C227.309 78.8755 226.813 79.0753 226.297 79.0753C225.78 79.0753 225.284 78.8755 224.912 78.5179L223.363 76.933C223.023 76.5484 222.844 76.0479 222.863 75.5349C222.882 75.022 223.098 74.536 223.465 74.1776L225.646 72.0838L226.257 72.709L224.076 74.8028C223.83 75.0087 223.671 75.2991 223.629 75.6168C223.587 75.9345 223.666 76.2563 223.85 76.5186L225.355 78.0599C225.615 78.25 225.936 78.3368 226.255 78.3032C226.575 78.2696 226.871 78.118 227.085 77.8781L229.23 75.7843C229.826 75.2027 229.768 74.7519 229.645 73.8868C229.521 72.9126 229.354 71.7639 229.165 70.7243C229.031 70.3114 229.015 69.8693 229.119 69.4479C229.223 69.0265 229.443 68.6426 229.754 68.3396L231.593 66.5366C231.963 66.1756 232.46 65.9735 232.978 65.9735C233.495 65.9735 233.992 66.1756 234.363 66.5366L235.584 67.7871C235.929 68.1715 236.112 68.6747 236.095 69.1911C236.077 69.7075 235.86 70.197 235.49 70.557L233.367 72.7017L232.756 72.0765L234.937 69.9827C235.184 69.7779 235.345 69.4879 235.388 69.1701C235.431 68.8524 235.353 68.5301 235.17 68.2669L233.948 67.0237C233.692 66.8321 233.372 66.7451 233.053 66.7801C232.735 66.8152 232.442 66.9698 232.233 67.2128L230.539 68.8631C229.812 69.5901 229.914 70.0481 230.052 70.8551C230.19 71.6621 230.43 73.3488 230.59 74.1776C230.687 74.5892 230.668 75.02 230.533 75.421C230.398 75.822 230.153 76.1771 229.826 76.4459V76.4459Z" fill="black"/>
<path fill-rule="evenodd" clip-rule="evenodd" d="M130.322 120.227C129.595 117.704 127.159 116.134 122.928 115.538C119.79 115.087 116.593 115.26 113.521 116.047C111.042 116.693 108.67 117.699 106.484 119.035L104.499 120.547C103.83 121.048 103.132 121.536 102.412 122.001C101.067 121.783 99.8897 121.601 98.8864 121.448L96.3856 121.099C92.976 120.893 89.5569 121.295 86.2875 122.284C81.5136 123.603 77.6653 125.36 74.7428 127.555C74.0449 128.122 71.9802 130.136 68.5488 133.597C65.2756 133.088 61.9347 133.221 58.7125 133.989C51.5006 135.981 46.0409 140.428 42.3332 147.33C38.6255 154.232 37.7846 161.26 39.8105 168.414C41.5698 174.777 45.057 179.27 50.272 181.893C55.487 184.515 61.303 184.941 67.72 183.172C75.3244 181.073 81.264 177.695 85.5387 173.037C89.0962 169.063 92.0211 163.39 94.3136 156.018C94.9534 153.856 95.312 150.306 95.3896 145.367C95.3896 142.953 95.5204 140.911 95.7022 139.224C95.8131 137.841 96.109 136.479 96.5819 135.174C98.8792 129.14 100.84 125.389 102.463 123.92C104.756 124.468 106.573 127.177 107.916 132.048C108.808 135.276 107.78 139.301 104.833 144.124C103.613 143.42 102.177 143.19 100.798 143.477C99.2136 143.913 98.5666 144.676 98.8719 145.774C98.9793 146.094 99.1711 146.379 99.427 146.599C99.6829 146.819 99.9935 146.966 100.326 147.025C101.03 147.26 101.786 147.29 102.507 147.112C102.907 147.003 103.234 146.887 103.576 146.778C103.86 146.678 104.137 146.559 104.404 146.421C105.107 147.841 105.677 149.324 106.106 150.849C107.215 154.877 107.157 157.862 105.931 159.806C102.509 160.714 99.2516 162.154 96.2765 164.073C92.2199 166.802 90.6229 169.73 91.4856 172.856C92.1011 175.095 94.1125 175.798 97.5197 174.964C99.6221 174.437 101.637 173.61 103.503 172.507C105.307 171.442 106.939 170.111 108.345 168.559C111.208 165.425 112.956 161.433 113.317 157.203C116.228 154.899 118.749 152.143 120.784 149.039L120.057 148.61C118.336 151.437 116.067 153.892 113.383 155.829C112.084 151.108 109.835 147.611 106.636 145.338C107.779 144.236 108.83 143.042 109.777 141.768C110.488 140.827 111.127 139.833 111.689 138.795C112.966 136.326 113.227 133.456 112.416 130.798C111.8 128.732 110.542 126.916 108.825 125.614L106.28 123.949C105.495 123.44 104.739 122.939 104.019 122.452C107.712 119.543 110.95 117.711 113.732 116.955C116.538 116.226 119.458 116.045 122.332 116.425C126.273 116.948 128.55 118.325 129.166 120.554C129.479 121.695 129.042 122.917 127.843 124.189C127.388 124.696 126.887 125.158 126.345 125.57C125.78 126 125.165 126.358 124.513 126.639L125.466 127.177C126.865 126.53 128.106 125.585 129.101 124.407C130.256 122.953 130.649 121.572 130.278 120.227H130.322ZM103.765 145.214C103.265 145.559 102.713 145.819 102.129 145.985C101.14 146.261 100.544 146.051 100.355 145.353C100.231 144.902 100.464 144.626 101.082 144.437C101.809 144.233 102.732 144.487 103.786 145.214H103.765ZM83.9539 148.435C84.1915 149.799 84.1693 151.195 83.8884 152.55C82.6382 154.615 80.6373 156.116 78.3051 156.738C75.179 157.6 72.4697 157.278 70.1772 155.771C67.7894 154.122 66.104 151.641 65.4517 148.813C64.7455 146.327 64.7987 143.686 65.6044 141.23C65.9049 140.274 66.2918 139.347 66.7603 138.46C67.3177 137.37 68.018 136.122 68.8614 134.716C76.9359 136.655 81.9667 141.228 83.9539 148.435V148.435ZM105.953 160.983L103.474 167.12C101.38 170.951 98.901 173.219 96.0439 173.895C93.9404 174.424 92.6973 173.992 92.3144 172.601C91.5874 169.965 92.9081 167.488 96.2765 165.171C99.2469 163.247 102.517 161.832 105.953 160.983ZM101.147 123.237C97.2831 126.253 94.1784 130.132 92.0817 134.564C89.8679 138.924 88.4825 143.657 87.996 148.522C87.7488 150.943 87.5671 152.805 87.4435 154.091C87.3199 155.378 87.2326 156.142 87.189 156.367C86.5865 160.386 85.3162 164.276 83.4304 167.876C81.6737 171.135 79.4196 174.1 76.7493 176.665C74.1178 179.249 70.9001 181.157 67.371 182.227C61.2061 183.928 55.6833 183.579 50.8027 181.18C45.6652 178.655 42.2508 174.327 40.5593 168.196C38.6545 161.289 39.5269 154.472 43.1765 147.744C46.826 141.017 52.0483 136.687 58.8433 134.753C61.785 133.931 64.8879 133.873 67.8581 134.585C66.2296 137.392 65.2773 139.1 65.0228 139.675C63.8537 142.631 63.6826 145.889 64.5357 148.951C65.4663 152.344 67.1481 154.847 69.5811 156.461C70.8769 157.336 72.3531 157.907 73.9 158.132C75.4468 158.357 77.0245 158.231 78.5159 157.763C80.2913 157.141 81.9703 156.272 83.5031 155.182C83.4306 156.811 83.0256 158.408 82.313 159.874C81.6003 161.341 80.5951 162.646 79.3592 163.71C77.3673 165.6 75.4916 166.649 73.7323 166.858L74.0231 167.905C75.585 167.487 77.0614 166.798 78.3851 165.869C79.6758 164.953 80.8163 163.842 81.7656 162.576C82.7271 161.279 83.4937 159.849 84.0411 158.33C84.6071 156.766 84.9545 155.132 85.0735 153.473C87.0436 149.991 87.6907 147.083 86.9927 144.749C86.7208 143.647 86.226 142.613 85.5387 141.71C85.3697 141.575 85.2094 141.43 85.0589 141.274C84.8045 141.027 84.4119 140.62 83.8884 140.074L83.1614 140.525C84.8869 142.512 85.8683 144.034 86.1058 145.091C86.2977 146.054 86.2704 147.048 86.0258 147.999L85.2334 150.943C85.1025 150.071 85.008 149.417 84.9717 148.973C84.9353 148.53 84.899 148.282 84.8844 148.246C82.9458 141.238 77.8156 136.505 69.4939 134.047C71.4688 131.64 73.7266 129.48 76.2186 127.613C79.3765 125.541 82.8582 124.01 86.5202 123.084C91.3086 121.723 96.3885 121.776 101.147 123.237V123.237Z" fill="#004C5D"/>
<path fill-rule="evenodd" clip-rule="evenodd" d="M152.604 140.234L151.877 139.871C151.049 141.71 150.133 143.615 149.129 145.607C148.126 147.599 146.992 149.678 145.72 151.845C142.23 157.995 139.642 161.303 137.955 161.769C136.858 162.074 136.174 161.725 135.898 160.729C135.709 160.036 135.818 158.778 136.225 156.956L140.907 135.952C140.528 136.396 140.206 136.884 139.947 137.406C139.518 138.133 139.22 138.57 139.002 138.628C138.478 138.755 137.942 138.833 137.403 138.86C136.855 138.877 136.31 138.945 135.774 139.064C135.324 139.187 134.902 139.711 134.517 140.62C133.92 140.146 133.213 139.832 132.462 139.705C131.711 139.577 130.94 139.642 130.22 139.893C126.047 141.041 122.674 143.736 120.1 147.977C117.527 152.218 116.841 156.42 118.043 160.584C119.39 165.43 121.726 167.405 125.051 166.509C127.639 165.787 129.602 163.695 130.94 160.235C133.077 162.75 135.367 163.659 137.803 162.99C141.428 161.987 146.369 154.419 152.626 140.285L152.604 140.234ZM133.768 142.226C134.015 143.123 132.803 148.595 130.133 158.642C129.101 162.462 127.591 164.643 125.604 165.186C124.605 165.472 123.878 164.791 123.423 163.143C122.681 160.467 123.095 156.449 124.666 151.089C126.435 145.093 128.785 141.701 131.718 140.911C132.728 140.583 133.419 141.041 133.768 142.226Z" fill="#004C5D"/>
<path fill-rule="evenodd" clip-rule="evenodd" d="M173.753 103.353C173.656 103.012 173.47 102.703 173.215 102.458C172.959 102.213 172.643 102.04 172.299 101.957C171.593 101.729 170.836 101.707 170.118 101.892C166.89 102.783 162.954 109.164 158.311 121.034C156.508 125.541 155.04 129.475 153.906 132.833C152.93 135.651 152.128 138.525 151.507 141.441C150.784 145.013 150.057 148.44 149.326 151.721C148.599 155.007 147.872 158.214 147.145 161.34C147.604 160.884 148.003 160.371 148.33 159.813C148.809 159.042 149.173 158.613 149.427 158.548C149.829 158.464 150.241 158.445 150.649 158.49C151.084 158.528 151.523 158.501 151.95 158.41C152.842 158.163 153.547 157.033 154.066 155.022C154.509 152.761 154.909 150.827 155.273 149.206C155.636 147.585 155.956 146.341 156.232 145.404L158.987 144.676C160.507 144.371 161.314 144.386 161.416 144.735C161.517 145.084 161.416 146.589 161.009 149.097C160.631 151.394 160.536 152.892 160.725 153.59C160.824 153.986 161.014 154.353 161.28 154.663C161.547 154.972 161.882 155.215 162.259 155.371C163.059 155.714 163.955 155.766 164.789 155.516C166.975 154.91 169.568 151.707 172.568 145.905C173.053 145.018 173.758 143.513 174.683 141.39C175.609 139.267 176.758 136.544 178.129 133.219L177.402 132.862C171.771 145.949 168.082 152.734 166.337 153.219C165.792 153.364 165.465 153.219 165.356 152.848C165.453 151.616 165.682 150.397 166.039 149.213C166.573 147.09 166.745 145.68 166.556 144.982C166.391 144.386 165.676 143.54 164.411 142.445C168.875 138.271 170.721 134.794 169.951 132.012C169.42 130.071 168.155 129.38 166.17 129.925C163.781 130.584 161.006 133.224 157.846 137.843C158.181 136.73 158.457 135.814 158.689 135.08C158.922 134.346 159.089 133.829 159.22 133.531C162.312 130.963 165.671 126.373 169.296 119.762C173.295 112.346 174.807 106.872 173.833 103.338L173.753 103.353ZM170.191 104.981C170.772 107.497 169.989 111.643 167.842 117.421C165.443 123.654 162.652 128.357 159.467 131.532C159.584 129.041 160.81 123.995 163.146 116.396C165.618 108.282 167.556 104.031 168.962 103.644C169.558 103.476 169.98 103.927 170.22 104.981H170.191ZM165.102 134.615C165.47 135.962 165.157 137.44 164.164 139.049C162.574 141.623 159.908 143.346 156.167 144.218C156.428 142.641 157.315 140.634 158.835 138.184C160.391 135.509 161.816 133.992 163.11 133.633C164.186 133.342 164.833 133.669 165.094 134.615H165.102Z" fill="#004C5D"/>
<path fill-rule="evenodd" clip-rule="evenodd" d="M200.761 126.937L200.034 126.581C199.438 128.575 198.687 130.52 197.787 132.397C196.659 134.702 195.367 136.923 193.92 139.042C190.086 144.916 186.529 148.309 183.247 149.22C181.91 149.594 180.986 148.866 180.478 147.039C180.047 145.207 180.012 143.303 180.376 141.456C182.663 140.821 185.329 139.229 188.373 136.679C192.323 133.345 193.864 130.112 192.997 126.981C192.856 126.43 192.598 125.917 192.24 125.475C191.882 125.033 191.434 124.674 190.925 124.422C189.914 123.866 188.725 123.732 187.617 124.051C184.132 125.02 180.982 127.492 178.166 131.467C174.899 136.11 173.918 140.792 175.221 145.513C175.439 146.394 175.831 147.222 176.376 147.948C176.92 148.673 177.606 149.282 178.391 149.737C179.16 150.19 180.014 150.479 180.899 150.587C181.785 150.694 182.683 150.618 183.538 150.362C187.115 149.392 190.871 145.757 194.807 139.456C197.846 134.556 199.828 130.4 200.754 126.988L200.761 126.937ZM188.853 126.501C189.337 128.246 188.547 130.71 186.483 133.895C184.418 137.079 182.462 138.904 180.616 139.369C182.361 130.592 184.428 125.876 186.817 125.221C187.864 124.96 188.54 125.389 188.853 126.501Z" fill="#004C5D"/>
<path fill-rule="evenodd" clip-rule="evenodd" d="M222.753 120.867L222.026 120.503C217.542 133.299 213.336 140.237 209.405 141.318C208.118 141.674 207.282 141.187 206.911 139.864C206.78 139.369 206.962 138.221 207.486 136.418L210.597 124.727C211.142 122.655 211.324 121.288 211.15 120.649C210.96 119.891 210.493 119.232 209.841 118.802C209.54 118.59 209.194 118.449 208.83 118.389C208.466 118.33 208.093 118.354 207.74 118.46C206.583 118.91 205.599 119.714 204.927 120.758L201.313 125.774C202.491 123.249 202.886 121.293 202.498 119.907C202.183 118.768 201.43 118.361 200.237 118.686C199.147 118.991 198.338 119.936 197.809 121.521C197.334 122.803 197.246 124.195 197.555 125.527C198.078 127.407 198.936 128.185 200.128 127.861C201.124 127.516 201.981 126.857 202.571 125.985C203.298 124.923 203.836 124.349 204.185 124.255C204.381 124.196 204.527 124.349 204.621 124.691C204.774 125.243 204.287 127.533 203.167 131.597C202.048 135.661 201.677 138.293 202.026 139.369C203.078 142.99 204.895 144.444 207.478 143.731C211.307 142.675 214.656 139.505 217.525 134.222C219.135 131.314 220.879 126.874 222.76 120.903L222.753 120.867ZM201.379 120.263C201.655 121.262 201.17 123.242 199.925 126.203C199.38 126.356 198.987 126.014 198.754 125.171C198.544 124.137 198.609 123.067 198.943 122.066C199.321 120.736 199.859 119.965 200.557 119.776C200.643 119.744 200.735 119.731 200.827 119.739C200.918 119.747 201.006 119.775 201.085 119.822C201.164 119.869 201.232 119.933 201.282 120.009C201.333 120.085 201.366 120.172 201.379 120.263Z" fill="#004C5D"/>
<path fill-rule="evenodd" clip-rule="evenodd" d="M251.222 113L250.495 112.644L243.225 124.604L239.444 130.943C238.674 132.063 237.932 133.124 237.191 134.135C236.493 135.097 235.725 136.005 234.893 136.854C237.138 130.935 238.946 124.861 240.302 118.678L242.607 107.86C242.168 108.328 241.802 108.86 241.524 109.438C241.051 110.267 240.695 110.71 240.448 110.783C239.993 110.873 239.527 110.892 239.066 110.841C238.581 110.791 238.09 110.818 237.612 110.921C236.885 111.132 236.34 111.917 236.02 113.291L232.065 129.467C231.553 131.469 230.461 133.276 228.925 134.658C227.58 135.996 226.591 136.752 225.944 136.926C225.297 137.101 224.708 136.527 224.323 135.138C224.086 133.811 224.148 132.447 224.505 131.147L228.91 111.641C228.512 112.121 228.171 112.646 227.892 113.204C227.427 114.033 227.071 114.476 226.824 114.542C226.346 114.641 225.856 114.671 225.37 114.629C224.829 114.589 224.285 114.631 223.756 114.752C223.029 114.956 222.484 115.748 222.164 117.115L219.256 130.114C218.845 131.746 218.845 133.455 219.256 135.087C220.181 138.417 221.958 139.718 224.585 138.991C226.228 138.536 228.326 136.645 230.88 133.32L229.477 140.445C224.563 143.663 221.013 146.407 218.827 148.675C215.643 152.068 214.455 155.218 215.264 158.126C215.457 158.907 215.817 159.636 216.319 160.263C216.821 160.891 217.454 161.402 218.172 161.761C219.637 162.506 221.332 162.657 222.905 162.183C225.59 161.441 227.771 159.578 229.448 156.592C230.133 155.286 230.724 153.933 231.215 152.543C231.804 150.859 232.266 149.134 232.596 147.381C233.04 145.287 233.418 143.47 233.745 141.936C234.072 140.402 234.334 139.122 234.53 138.111C236.59 136.195 238.42 134.046 239.982 131.706C240.913 130.252 241.705 128.915 242.352 127.802C242.999 126.69 243.559 125.774 244.003 125.062C247.793 118.833 250.216 114.796 251.273 112.949L251.222 113ZM229.412 141.245C228.641 144.08 227.977 146.378 227.42 148.137C226.867 149.889 226.468 151.125 226.235 151.83C224.33 156.745 222.186 159.522 219.801 160.191C217.714 160.758 216.384 160.009 215.802 157.915C215.066 155.235 216.214 152.327 219.248 149.191C220.477 147.971 221.784 146.832 223.16 145.782C224.861 144.463 226.947 142.951 229.419 141.245H229.412Z" fill="#004C5D"/>
<path d="M151.092 51.5819L154.298 58.0814L161.467 59.1211L156.283 64.1811L157.504 71.3131L151.092 67.947L144.68 71.3131L145.901 64.1811L140.718 59.1211L147.886 58.0814L151.092 51.5819Z" fill="#EDB116"/>
<path d="M174.443 61.0695L176.108 64.4428L179.823 64.9881L177.133 67.6126L177.773 71.3131L174.443 69.5683L171.114 71.3131L171.746 67.6126L169.056 64.9881L172.779 64.4428L174.443 61.0695Z" fill="#EDB116"/>
<path d="M127.748 61.0695L129.406 64.4428L133.128 64.9881L130.438 67.6126L131.071 71.3131L127.748 69.5683L124.419 71.3131L125.051 67.6126L122.361 64.9881L126.083 64.4428L127.748 61.0695Z" fill="#EDB116"/>
<path d="M151.092 237.618L147.886 231.119L140.718 230.079L145.901 225.019L144.68 217.887L151.092 221.253L157.504 217.887L156.283 225.019L161.467 230.079L154.298 231.119L151.092 237.618Z" fill="#EDB116"/>
<path d="M127.741 228.131L126.076 224.757L122.361 224.212L125.051 221.588L124.411 217.887L127.741 219.632L131.071 217.887L130.438 221.588L133.128 224.212L129.406 224.757L127.741 228.131Z" fill="#EDB116"/>
<path d="M174.443 228.131L172.779 224.757L169.056 224.212L171.746 221.588L171.114 217.887L174.443 219.632L177.773 217.887L177.133 221.588L179.823 224.212L176.108 224.757L174.443 228.131Z" fill="#EDB116"/>
<path d="M86.731 229.2L84.2011 226.982L80.2753 230.108L79.6646 229.578L91.6601 220.126L91.9945 220.417L92.2344 220.628L92.5834 220.941L84.7899 234.1L84.1502 233.54L86.731 229.2ZM87.0727 228.647L91.5801 221.137L84.7172 226.59L87.0727 228.647Z" fill="black"/>
<path d="M95.9639 241.37L95.6077 241.901L92.2271 239.64L91.5001 239.152L91.8564 238.622L99.8533 226.662L100.58 227.149L92.5833 239.109L95.9639 241.37Z" fill="black"/>
<path d="M117.439 236.448L108.766 248.945L108.577 248.851L107.981 248.567L107.792 248.473L111.427 236.564L104.317 246.793L104.128 246.699L103.532 246.415L103.343 246.321L107.763 231.78L108.548 232.166L104.731 244.743L112.212 233.932L112.997 234.31L109.173 246.895L116.654 236.084L117.439 236.448Z" fill="black"/>
<path d="M123.27 249.025L120.064 248.007L117.716 252.45L116.945 252.21L124.142 238.716L124.571 238.854L124.877 238.949L125.32 239.094L123.437 254.26L122.63 254.005L123.27 249.025ZM123.357 248.386L124.484 239.698L120.377 247.44L123.357 248.386Z" fill="black"/>
<path d="M138.719 242.242L134.306 249.92L133.063 256.463L132.227 256.303L133.47 249.76L132.168 240.984L133.026 241.152L134.124 248.64L137.883 242.097L138.719 242.242Z" fill="black"/>
<path d="M149.762 253.329L149.587 256.325C149.559 256.841 149.332 257.326 148.954 257.678C148.576 258.031 148.076 258.223 147.559 258.215L145.378 258.091C144.868 258.036 144.398 257.786 144.068 257.393C143.737 257 143.571 256.495 143.604 255.983L143.771 252.98L144.644 253.031L144.469 256.026C144.469 256.666 144.818 257.415 145.458 257.48L147.603 257.604C148.242 257.604 148.73 256.942 148.766 256.303L148.94 253.307C148.991 252.479 148.642 252.181 147.973 251.628C147.305 251.075 146.323 250.254 145.48 249.607C145.099 249.39 144.788 249.071 144.58 248.685C144.373 248.299 144.279 247.863 144.309 247.426L144.455 244.852C144.479 244.335 144.705 243.849 145.085 243.497C145.464 243.145 145.966 242.955 146.483 242.969L148.228 243.071C148.743 243.121 149.218 243.368 149.555 243.762C149.891 244.155 150.061 244.663 150.031 245.179L149.856 248.175L148.984 248.124L149.158 245.128C149.195 244.489 148.809 243.74 148.17 243.674L146.425 243.573C145.792 243.536 145.32 244.234 145.284 244.874L145.145 247.237C145.087 248.276 145.48 248.531 146.134 249.04C146.788 249.549 148.09 250.625 148.766 251.134C149.124 251.366 149.408 251.697 149.585 252.086C149.761 252.475 149.823 252.906 149.762 253.329V253.329Z" fill="black"/>
<path d="M166.905 242.78L167.908 248.72L171.71 248.073L171.812 248.705L168.017 249.352L169.304 256.964L168.446 257.11L167.159 249.498L167.05 248.865L166.039 242.926L165.938 242.293L166.795 242.148L171.034 241.421L171.143 242.053L166.905 242.78Z" fill="black"/>
<path d="M182.23 246.255L179.911 246.982L182.092 254.173L181.277 254.42L176.879 240.047L177.497 239.858L177.7 239.799L180.565 238.92C181.056 238.772 181.587 238.824 182.04 239.065C182.493 239.306 182.833 239.716 182.986 240.207L184.054 243.689C184.179 244.119 184.155 244.578 183.987 244.992C183.818 245.407 183.514 245.752 183.124 245.972L187.486 252.515L186.592 252.784L182.23 246.255ZM179.721 246.357L182.593 245.485C182.879 245.357 183.104 245.124 183.224 244.835C183.343 244.545 183.346 244.221 183.233 243.929L182.164 240.446C182.098 240.141 181.915 239.873 181.654 239.699C181.394 239.525 181.076 239.46 180.768 239.516L177.86 240.396L179.721 246.357Z" fill="black"/>
<path d="M199.714 246.706L199.976 247.295L195.788 249.2L195.599 249.287L195.003 249.563L188.751 235.888L193.651 233.649L193.92 234.23L189.812 236.113L192.313 241.588L195.628 240.076L195.89 240.657L192.582 242.17L195.563 248.64L199.714 246.706Z" fill="black"/>
<path d="M209.448 236.106L211.041 238.651C211.318 239.086 211.415 239.612 211.312 240.118C211.209 240.624 210.914 241.07 210.488 241.362L208.649 242.548C208.2 242.797 207.673 242.864 207.177 242.735C206.68 242.607 206.252 242.292 205.981 241.857L204.381 239.312L205.108 238.847L206.708 241.392C206.856 241.676 207.106 241.894 207.407 242.003C207.709 242.112 208.04 242.104 208.336 241.98L210.161 240.839C210.402 240.625 210.556 240.328 210.591 240.007C210.625 239.686 210.54 239.363 210.35 239.101L208.751 236.564C208.314 235.837 207.856 235.837 206.991 235.757C206.003 235.67 204.847 235.597 203.792 235.554C203.365 235.593 202.935 235.513 202.55 235.323C202.165 235.133 201.84 234.841 201.611 234.478L200.237 232.297C199.957 231.86 199.858 231.331 199.963 230.823C200.067 230.315 200.367 229.868 200.797 229.578L202.251 228.654C202.7 228.397 203.231 228.324 203.732 228.45C204.234 228.576 204.667 228.892 204.941 229.33L206.533 231.868L205.806 232.333L204.207 229.796C204.059 229.511 203.809 229.293 203.507 229.184C203.206 229.075 202.874 229.083 202.578 229.207L201.124 230.137C200.883 230.347 200.729 230.641 200.696 230.959C200.662 231.278 200.75 231.597 200.943 231.853L202.208 233.86C202.76 234.739 203.225 234.725 204.054 234.754C204.883 234.783 206.57 234.914 207.413 234.936C207.827 234.924 208.237 235.027 208.596 235.234C208.955 235.44 209.25 235.742 209.448 236.106V236.106Z" fill="black"/>
<path d="M214.152 219.668L223.843 231.148L223.181 231.715L218.194 225.812L214.908 228.582L219.895 234.492L219.227 235.052L209.528 223.565L210.197 223.005L214.494 228.094L217.78 225.317L213.483 220.228L214.152 219.668Z" fill="black"/>
<path d="M149.144 12.9264C149.138 13.6067 148.931 14.2701 148.549 14.8329C148.167 15.3958 147.627 15.8329 146.997 16.0893C146.366 16.3457 145.675 16.4098 145.008 16.2736C144.341 16.1373 143.73 15.8068 143.251 15.3238C142.772 14.8407 142.447 14.2266 142.316 13.559C142.186 12.8913 142.255 12.1999 142.517 11.5719C142.779 10.9439 143.22 10.4074 143.787 10.03C144.353 9.65265 145.018 9.45126 145.698 9.45123C146.153 9.45122 146.603 9.54131 147.023 9.7163C147.443 9.8913 147.825 10.1477 148.145 10.4708C148.465 10.7939 148.719 11.1772 148.89 11.5987C149.061 12.0202 149.148 12.4714 149.144 12.9264V12.9264Z" fill="#EDB116"/>
<path d="M121.591 14.9548C121.733 15.6215 121.674 16.3153 121.421 16.9485C121.169 17.5817 120.734 18.1258 120.172 18.5119C119.611 18.8981 118.947 19.109 118.265 19.1179C117.584 19.1269 116.915 18.9335 116.343 18.5622C115.772 18.1909 115.323 17.6584 115.054 17.0321C114.785 16.4057 114.708 15.7137 114.832 15.0435C114.956 14.3733 115.277 13.755 115.752 13.2668C116.228 12.7787 116.838 12.4426 117.505 12.3011C118.399 12.1115 119.331 12.2845 120.097 12.7821C120.863 13.2797 121.4 14.0612 121.591 14.9548V14.9548Z" fill="#EDB116"/>
<path d="M95.0624 22.6611C95.3405 23.2838 95.4276 23.975 95.3126 24.6472C95.1977 25.3193 94.8859 25.9423 94.4168 26.4372C93.9476 26.9321 93.3422 27.2767 92.6771 27.4273C92.012 27.5779 91.3172 27.5279 90.6806 27.2834C90.044 27.0389 89.4943 26.6111 89.101 26.054C88.7076 25.497 88.4884 24.8357 88.4711 24.154C88.4537 23.4723 88.639 22.8008 89.0035 22.2244C89.368 21.6481 89.8953 21.1928 90.5187 20.9163C91.3527 20.5463 92.2995 20.5222 93.1513 20.8493C94.0031 21.1764 94.6903 21.828 95.0624 22.6611V22.6611Z" fill="#EDB116"/>
<path d="M70.7225 35.7184C71.123 36.2698 71.3511 36.9277 71.3777 37.6088C71.4044 38.2899 71.2285 38.9635 70.8722 39.5446C70.516 40.1257 69.9955 40.5881 69.3765 40.8734C68.7574 41.1586 68.0677 41.2538 67.3946 41.1471C66.7214 41.0403 66.095 40.7363 65.5946 40.2735C65.0942 39.8107 64.7423 39.2099 64.5834 38.5471C64.4245 37.8843 64.4657 37.1893 64.7017 36.5499C64.9378 35.9105 65.3582 35.3555 65.9098 34.955C66.6499 34.42 67.5718 34.1999 68.4737 34.343C69.3757 34.4861 70.1843 34.9806 70.7225 35.7184V35.7184Z" fill="#EDB116"/>
<path d="M49.625 53.5521C50.1302 54.0093 50.4885 54.6059 50.6548 55.2666C50.821 55.9274 50.7876 56.6226 50.5589 57.2644C50.3301 57.9062 49.9163 58.4657 49.3696 58.8724C48.8229 59.279 48.168 59.5145 47.4876 59.549C46.8071 59.5836 46.1317 59.4156 45.5467 59.0664C44.9617 58.7172 44.4933 58.2024 44.2008 57.587C43.9082 56.9717 43.8047 56.2835 43.9031 55.6093C44.0016 54.9351 44.2977 54.3052 44.7541 53.7993C45.0575 53.4629 45.4242 53.1897 45.8333 52.9952C46.2424 52.8007 46.6859 52.6887 47.1383 52.6658C47.5907 52.6428 48.0432 52.7093 48.4699 52.8614C48.8966 53.0135 49.2891 53.2482 49.625 53.5521Z" fill="#EDB116"/>
<path d="M32.715 75.3772C33.3046 75.7187 33.7797 76.2274 34.0803 76.839C34.3808 77.4505 34.4934 78.1374 34.4036 78.8129C34.3139 79.4884 34.0259 80.1221 33.5761 80.6339C33.1263 81.1457 32.5349 81.5127 31.8765 81.6885C31.2182 81.8643 30.5225 81.8409 29.8775 81.6214C29.2324 81.4018 28.6669 80.996 28.2524 80.4551C27.838 79.9143 27.5932 79.2627 27.549 78.5827C27.5047 77.9027 27.6631 77.2249 28.004 76.6349C28.463 75.8445 29.2165 75.2683 30.0996 75.0325C30.9826 74.7968 31.9231 74.9207 32.715 75.3772V75.3772Z" fill="#EDB116"/>
<path d="M20.6759 100.248C21.3221 100.464 21.8898 100.867 22.3072 101.405C22.7247 101.944 22.9731 102.594 23.0212 103.274C23.0692 103.953 22.9147 104.632 22.5772 105.224C22.2397 105.816 21.7343 106.294 21.1249 106.599C20.5155 106.904 19.8294 107.021 19.1534 106.936C18.4774 106.851 17.8418 106.567 17.3269 106.121C16.812 105.675 16.441 105.086 16.2607 104.429C16.0804 103.772 16.0989 103.076 16.3139 102.429C16.4568 102 16.6831 101.602 16.9797 101.26C17.2764 100.918 17.6376 100.637 18.0427 100.435C18.4478 100.232 18.8889 100.111 19.3408 100.079C19.7926 100.047 20.2463 100.105 20.6759 100.248Z" fill="#EDB116"/>
<path d="M14.082 127.075C14.76 127.147 15.4016 127.418 15.9255 127.854C16.4495 128.29 16.8323 128.872 17.0255 129.526C17.2187 130.18 17.2136 130.876 17.0109 131.527C16.8081 132.178 16.4169 132.754 15.8866 133.183C15.3563 133.611 14.7108 133.873 14.0319 133.934C13.3529 133.996 12.6709 133.855 12.0722 133.529C11.4735 133.202 10.985 132.706 10.6685 132.102C10.3521 131.498 10.2218 130.814 10.2943 130.136C10.3914 129.228 10.8448 128.396 11.5549 127.822C12.2651 127.248 13.174 126.98 14.082 127.075Z" fill="#EDB116"/>
<path d="M13.2169 154.687C13.8945 154.611 14.5795 154.737 15.1853 155.05C15.7911 155.364 16.2904 155.849 16.62 156.446C16.9495 157.043 17.0946 157.725 17.0367 158.404C16.9789 159.084 16.7208 159.731 16.295 160.263C15.8693 160.796 15.2951 161.19 14.6451 161.397C13.9951 161.603 13.2986 161.611 12.6436 161.422C11.9887 161.232 11.4048 160.852 10.9659 160.33C10.527 159.808 10.2528 159.168 10.178 158.49C10.0779 157.583 10.3416 156.673 10.9113 155.96C11.481 155.248 12.3101 154.79 13.2169 154.687V154.687Z" fill="#EDB116"/>
<path d="M18.1096 181.878C18.7561 181.663 19.4518 181.644 20.1089 181.825C20.7659 182.005 21.3548 182.376 21.801 182.891C22.2472 183.406 22.5308 184.042 22.6159 184.718C22.701 185.394 22.5838 186.08 22.2791 186.689C21.9744 187.299 21.4959 187.804 20.904 188.141C20.3121 188.479 19.6335 188.634 18.9539 188.585C18.2742 188.537 17.6241 188.289 17.0856 187.871C16.5471 187.454 16.1445 186.886 15.9286 186.24C15.784 185.811 15.7258 185.357 15.7573 184.904C15.7888 184.452 15.9093 184.011 16.112 183.605C16.3147 183.2 16.5955 182.839 16.9383 182.542C17.2812 182.246 17.6792 182.02 18.1096 181.878Z" fill="#EDB116"/>
<path d="M28.5493 207.447C29.1392 207.106 29.817 206.948 30.497 206.992C31.177 207.036 31.8285 207.281 32.3694 207.696C32.9102 208.11 33.3161 208.676 33.5356 209.321C33.7551 209.966 33.7785 210.661 33.6027 211.32C33.427 211.978 33.06 212.57 32.5482 213.019C32.0363 213.469 31.4026 213.757 30.7272 213.847C30.0517 213.937 29.3648 213.824 28.7533 213.524C28.1418 213.223 27.6331 212.748 27.2916 212.158C27.0646 211.766 26.917 211.334 26.8574 210.885C26.7978 210.436 26.8272 209.98 26.944 209.542C27.0608 209.104 27.2627 208.694 27.5381 208.335C27.8136 207.975 28.1572 207.674 28.5493 207.447V207.447Z" fill="#EDB116"/>
<path d="M44.078 230.297C44.5846 229.842 45.2149 229.547 45.8892 229.449C46.5635 229.352 47.2515 229.456 47.8664 229.75C48.4812 230.043 48.9953 230.512 49.3436 231.098C49.6919 231.684 49.8588 232.359 49.8233 233.04C49.7878 233.72 49.5513 234.375 49.1439 234.921C48.7365 235.467 48.1763 235.88 47.5343 236.108C46.8922 236.335 46.197 236.368 45.5365 236.201C44.876 236.033 44.2799 235.674 43.8235 235.168C43.52 234.832 43.2859 234.439 43.1344 234.012C42.9829 233.585 42.9171 233.132 42.9407 232.68C42.9644 232.228 43.077 231.784 43.2721 231.375C43.4673 230.967 43.7411 230.6 44.078 230.297V230.297Z" fill="#EDB116"/>
<path d="M64.0195 249.418C64.4236 248.869 64.9816 248.452 65.6228 248.219C66.264 247.987 66.9597 247.951 67.6217 248.114C68.2837 248.278 68.8823 248.634 69.3418 249.138C69.8012 249.642 70.1008 250.271 70.2027 250.945C70.3045 251.619 70.2041 252.309 69.914 252.926C69.6239 253.543 69.1572 254.06 68.573 254.412C67.9888 254.764 67.3134 254.934 66.6323 254.902C65.9511 254.87 65.2948 254.636 64.7465 254.231C64.0129 253.688 63.5243 252.877 63.388 251.975C63.2517 251.072 63.4789 250.153 64.0195 249.418V249.418Z" fill="#EDB116"/>
<path d="M87.4944 263.973C87.7713 263.35 88.2266 262.824 88.8026 262.46C89.3787 262.096 90.0497 261.911 90.7308 261.928C91.412 261.946 92.0727 262.165 92.6294 262.558C93.1861 262.95 93.6139 263.499 93.8587 264.135C94.1035 264.771 94.1543 265.465 94.0047 266.13C93.8551 266.795 93.5118 267.4 93.0182 267.87C92.5245 268.34 91.9028 268.652 91.2314 268.769C90.5601 268.885 89.8693 268.8 89.2464 268.524C88.8317 268.341 88.4572 268.078 88.1445 267.75C87.8318 267.422 87.5869 267.036 87.4241 266.613C87.2613 266.19 87.1837 265.739 87.1957 265.286C87.2078 264.833 87.3093 264.386 87.4944 263.973V263.973Z" fill="#EDB116"/>
<path d="M113.492 273.359C113.634 272.694 113.97 272.087 114.458 271.613C114.945 271.139 115.562 270.821 116.23 270.698C116.899 270.574 117.589 270.652 118.213 270.92C118.837 271.189 119.368 271.636 119.738 272.206C120.108 272.776 120.301 273.443 120.293 274.123C120.284 274.802 120.074 275.464 119.69 276.024C119.306 276.585 118.764 277.019 118.133 277.272C117.502 277.524 116.81 277.584 116.145 277.444C115.702 277.351 115.282 277.171 114.909 276.915C114.536 276.659 114.217 276.332 113.97 275.952C113.724 275.573 113.555 275.148 113.472 274.703C113.39 274.258 113.397 273.801 113.492 273.359V273.359Z" fill="#EDB116"/>
<path d="M140.856 277.074C140.856 276.392 141.058 275.726 141.437 275.159C141.815 274.592 142.354 274.151 142.983 273.89C143.613 273.629 144.306 273.561 144.974 273.694C145.643 273.827 146.257 274.155 146.739 274.637C147.221 275.119 147.549 275.733 147.682 276.401C147.815 277.07 147.747 277.763 147.486 278.392C147.225 279.022 146.783 279.56 146.217 279.939C145.65 280.318 144.984 280.52 144.302 280.52C143.388 280.52 142.512 280.157 141.865 279.51C141.219 278.864 140.856 277.988 140.856 277.074V277.074Z" fill="#EDB116"/>
<path d="M168.409 275.053C168.269 274.388 168.329 273.696 168.582 273.065C168.835 272.434 169.269 271.892 169.829 271.508C170.39 271.124 171.051 270.914 171.731 270.905C172.41 270.897 173.077 271.09 173.647 271.46C174.217 271.83 174.665 272.361 174.933 272.985C175.202 273.609 175.279 274.299 175.156 274.968C175.033 275.636 174.714 276.253 174.241 276.74C173.767 277.228 173.16 277.564 172.495 277.706C172.052 277.802 171.595 277.809 171.15 277.728C170.704 277.646 170.279 277.477 169.9 277.23C169.52 276.984 169.193 276.664 168.937 276.29C168.681 275.917 168.502 275.496 168.409 275.053V275.053Z" fill="#EDB116"/>
<path d="M194.93 267.339C194.654 266.716 194.569 266.025 194.685 265.354C194.802 264.682 195.115 264.061 195.584 263.567C196.054 263.073 196.659 262.73 197.324 262.58C197.989 262.431 198.683 262.482 199.319 262.726C199.955 262.971 200.504 263.399 200.896 263.956C201.289 264.513 201.508 265.173 201.526 265.854C201.543 266.536 201.358 267.207 200.994 267.783C200.63 268.359 200.104 268.814 199.481 269.091C199.068 269.276 198.621 269.378 198.168 269.39C197.715 269.402 197.264 269.324 196.842 269.161C196.419 268.998 196.032 268.754 195.704 268.441C195.376 268.128 195.113 267.754 194.93 267.339Z" fill="#EDB116"/>
<path d="M219.277 254.289C218.877 253.737 218.649 253.08 218.622 252.398C218.596 251.717 218.772 251.044 219.128 250.463C219.484 249.882 220.005 249.419 220.624 249.134C221.243 248.849 221.932 248.753 222.605 248.86C223.279 248.967 223.905 249.271 224.405 249.734C224.906 250.197 225.258 250.797 225.417 251.46C225.576 252.123 225.534 252.818 225.298 253.457C225.062 254.097 224.642 254.652 224.09 255.052C223.351 255.589 222.428 255.81 221.526 255.667C220.623 255.524 219.815 255.028 219.277 254.289V254.289Z" fill="#EDB116"/>
<path d="M240.375 236.455C239.869 235.999 239.51 235.403 239.343 234.742C239.176 234.082 239.208 233.386 239.436 232.744C239.664 232.102 240.077 231.542 240.623 231.135C241.169 230.727 241.823 230.491 242.504 230.455C243.184 230.42 243.86 230.587 244.445 230.935C245.031 231.283 245.5 231.797 245.793 232.412C246.087 233.027 246.191 233.715 246.094 234.389C245.997 235.064 245.701 235.694 245.246 236.201C244.943 236.538 244.577 236.811 244.168 237.007C243.759 237.202 243.316 237.314 242.863 237.338C242.411 237.362 241.958 237.296 241.531 237.144C241.104 236.993 240.711 236.759 240.375 236.455Z" fill="#EDB116"/>
<path d="M257.307 214.623C256.716 214.282 256.24 213.774 255.938 213.162C255.637 212.551 255.523 211.864 255.612 211.188C255.701 210.512 255.989 209.877 256.439 209.365C256.888 208.852 257.48 208.485 258.139 208.309C258.797 208.133 259.493 208.156 260.139 208.375C260.784 208.595 261.35 209.001 261.765 209.543C262.179 210.084 262.424 210.736 262.468 211.417C262.511 212.097 262.352 212.775 262.011 213.365C261.785 213.757 261.484 214.1 261.125 214.376C260.766 214.651 260.357 214.853 259.92 214.97C259.483 215.087 259.027 215.116 258.579 215.057C258.13 214.997 257.698 214.85 257.307 214.623Z" fill="#EDB116"/>
<path d="M269.324 189.752C268.678 189.536 268.11 189.133 267.693 188.594C267.275 188.056 267.027 187.406 266.979 186.726C266.931 186.046 267.085 185.368 267.423 184.776C267.76 184.184 268.266 183.706 268.875 183.401C269.485 183.096 270.171 182.979 270.847 183.064C271.523 183.149 272.158 183.433 272.673 183.879C273.188 184.325 273.559 184.914 273.739 185.571C273.92 186.228 273.901 186.924 273.686 187.57C273.544 188.001 273.318 188.399 273.022 188.742C272.725 189.085 272.364 189.365 271.959 189.568C271.553 189.771 271.112 189.891 270.66 189.923C270.208 189.954 269.754 189.896 269.324 189.752Z" fill="#EDB116"/>
<path d="M275.911 162.925C275.233 162.853 274.592 162.583 274.068 162.147C273.544 161.711 273.161 161.13 272.967 160.476C272.774 159.823 272.778 159.127 272.98 158.476C273.182 157.825 273.573 157.249 274.102 156.82C274.632 156.391 275.277 156.128 275.955 156.066C276.634 156.003 277.316 156.144 277.915 156.469C278.514 156.794 279.003 157.289 279.32 157.892C279.638 158.495 279.769 159.179 279.698 159.857C279.651 160.307 279.516 160.743 279.3 161.141C279.084 161.539 278.792 161.89 278.44 162.175C278.088 162.46 277.684 162.673 277.25 162.802C276.816 162.93 276.361 162.972 275.911 162.925V162.925Z" fill="#EDB116"/>
<path d="M276.776 135.312C276.098 135.384 275.414 135.252 274.811 134.935C274.208 134.617 273.713 134.128 273.388 133.529C273.063 132.93 272.923 132.248 272.985 131.569C273.048 130.891 273.31 130.246 273.739 129.716C274.168 129.187 274.744 128.796 275.395 128.594C276.046 128.392 276.742 128.388 277.396 128.581C278.049 128.775 278.63 129.158 279.066 129.682C279.502 130.206 279.773 130.847 279.844 131.525C279.892 131.975 279.851 132.431 279.723 132.865C279.595 133.299 279.382 133.704 279.097 134.056C278.812 134.408 278.46 134.7 278.062 134.916C277.663 135.131 277.226 135.266 276.776 135.312Z" fill="#EDB116"/>
<path d="M271.898 108.122C271.251 108.337 270.555 108.356 269.898 108.175C269.241 107.995 268.652 107.624 268.206 107.109C267.76 106.594 267.476 105.958 267.391 105.282C267.306 104.606 267.423 103.92 267.728 103.311C268.033 102.701 268.511 102.196 269.103 101.859C269.695 101.521 270.374 101.367 271.053 101.415C271.733 101.463 272.383 101.711 272.922 102.129C273.46 102.546 273.863 103.114 274.079 103.76C274.223 104.19 274.281 104.643 274.25 105.096C274.218 105.548 274.098 105.989 273.895 106.395C273.693 106.8 273.412 107.161 273.069 107.458C272.726 107.754 272.328 107.98 271.898 108.122V108.122Z" fill="#EDB116"/>
<path d="M261.443 82.5528C260.853 82.8926 260.175 83.0497 259.495 83.0044C258.815 82.959 258.164 82.7131 257.624 82.2978C257.084 81.8825 256.679 81.3165 256.461 80.6712C256.242 80.0258 256.22 79.3303 256.397 78.6723C256.573 78.0143 256.941 77.4234 257.454 76.9744C257.966 76.5253 258.6 76.2382 259.275 76.1493C259.951 76.0604 260.637 76.1738 261.248 76.475C261.86 76.7762 262.368 77.2519 262.708 77.8417C262.936 78.2338 263.084 78.667 263.144 79.1164C263.203 79.5658 263.173 80.0226 263.056 80.4604C262.938 80.8982 262.735 81.3085 262.459 81.6676C262.182 82.0267 261.837 82.3276 261.443 82.5528V82.5528Z" fill="#EDB116"/>
<path d="M245.915 59.7027C245.408 60.1582 244.778 60.4534 244.104 60.5508C243.429 60.6482 242.741 60.5436 242.126 60.2501C241.512 59.9567 240.997 59.4875 240.649 58.902C240.301 58.3164 240.134 57.6408 240.169 56.9604C240.205 56.28 240.441 55.6254 240.849 55.0793C241.256 54.5333 241.816 54.1203 242.458 53.8924C243.101 53.6646 243.796 53.6323 244.456 53.7994C245.117 53.9666 245.713 54.3258 246.169 54.8317C246.474 55.1671 246.71 55.5598 246.863 55.987C247.015 56.4141 247.082 56.8673 247.058 57.3202C247.034 57.7732 246.921 58.217 246.725 58.6259C246.529 59.0349 246.253 59.4008 245.915 59.7027V59.7027Z" fill="#EDB116"/>
<path d="M225.973 40.5894C225.568 41.1377 225.01 41.5536 224.369 41.7846C223.728 42.0157 223.033 42.0514 222.371 41.8874C221.71 41.7233 221.112 41.3668 220.653 40.8629C220.194 40.3591 219.895 39.7305 219.793 39.0566C219.692 38.3827 219.792 37.6939 220.082 37.0771C220.372 36.4603 220.838 35.9433 221.422 35.5914C222.005 35.2396 222.68 35.0687 223.361 35.1003C224.042 35.132 224.698 35.3648 225.246 35.7693C225.98 36.3131 226.469 37.1257 226.605 38.0291C226.742 38.9326 226.514 39.8532 225.973 40.5894V40.5894Z" fill="#EDB116"/>
<path d="M202.498 26.0345C202.22 26.656 201.763 27.1811 201.186 27.5433C200.61 27.9056 199.939 28.0888 199.258 28.0698C198.577 28.0508 197.917 27.8304 197.361 27.4366C196.806 27.0428 196.379 26.4931 196.136 25.857C195.892 25.2208 195.843 24.5268 195.993 23.8626C196.144 23.1984 196.488 22.5937 196.982 22.1249C197.476 21.6562 198.098 21.3444 198.77 21.2289C199.441 21.1134 200.131 21.1994 200.754 21.4761C201.589 21.8496 202.242 22.5395 202.569 23.3942C202.896 24.2489 202.871 25.1986 202.498 26.0345V26.0345Z" fill="#EDB116"/>
<path d="M176.508 16.6778C176.366 17.3438 176.029 17.9526 175.541 18.4274C175.053 18.9023 174.435 19.2218 173.765 19.3456C173.095 19.4695 172.404 19.3921 171.778 19.1233C171.152 18.8545 170.62 18.4063 170.249 17.8353C169.878 17.2643 169.684 16.5961 169.693 15.9151C169.701 15.2341 169.911 14.5708 170.296 14.009C170.681 13.4472 171.224 13.0121 171.856 12.7586C172.488 12.5051 173.181 12.4446 173.847 12.5847C174.291 12.678 174.712 12.858 175.086 13.1144C175.46 13.3708 175.78 13.6985 176.028 14.0788C176.275 14.459 176.444 14.8844 176.527 15.3304C176.609 15.7764 176.603 16.2343 176.508 16.6778V16.6778Z" fill="#EDB116"/>
<path d="M167.857 187.272C158.712 181.967 148.231 179.411 137.671 179.911C127.11 180.411 116.918 183.947 108.316 190.093L108.701 190.631C117.199 184.557 127.269 181.065 137.702 180.572C148.136 180.079 158.49 182.608 167.522 187.854C173.956 191.584 174.371 191.06 167.857 187.272Z" fill="#F4D5B2"/>
<path d="M112.925 187.781C110.155 190.479 109.777 199.93 98.4284 199.145C100.675 197.269 99.6861 187.636 112.925 187.781Z" fill="#F4D5B2"/>
<path d="M113.157 188.021C112.374 188.952 111.745 190.002 111.296 191.133C109.486 194.913 107.007 200.09 98.4066 199.472L97.5779 199.414L98.2176 198.883C98.8206 198.148 99.2549 197.289 99.4899 196.367C100.82 192.732 102.834 187.338 112.925 187.454H113.739L113.157 188.021ZM110.7 190.849C111.115 189.894 111.616 188.979 112.198 188.116C103.198 188.268 101.351 193.263 100.115 196.593C99.8659 197.378 99.5319 198.134 99.1191 198.847C106.731 199.13 108.926 194.55 110.7 190.849Z" fill="#38312D"/>
<path d="M112.925 187.781C112.925 187.781 106.084 192.143 104.201 195.56C105.393 192.412 109.748 189.388 109.748 189.388C109.748 189.388 107.043 190.173 105.873 191.351C106.178 190.021 112.925 187.781 112.925 187.781Z" fill="#38312D"/>
<path d="M117.912 184.939C116.334 188.457 119.533 197.407 108.679 200.875C110.068 198.309 105.568 189.752 117.912 184.939Z" fill="#F4D5B2"/>
<path d="M118.217 185.07C117.834 186.228 117.643 187.441 117.65 188.661C117.374 192.834 117.003 198.563 108.781 201.195L107.996 201.442L108.388 200.715C108.678 199.81 108.765 198.851 108.643 197.909C108.534 194.114 108.381 188.298 117.774 184.662L118.501 184.372L118.217 185.07ZM116.989 188.617C117.015 187.576 117.139 186.539 117.359 185.52C109.064 189.01 109.21 194.339 109.304 197.88C109.359 198.7 109.328 199.523 109.21 200.337C116.385 197.785 116.72 192.711 116.989 188.617V188.617Z" fill="#38312D"/>
<path d="M117.912 184.939C117.912 184.939 113.187 191.547 112.714 195.408C112.649 192.042 115.571 187.614 115.571 187.614C115.571 187.614 113.346 189.352 112.699 190.871C112.481 189.526 117.912 184.939 117.912 184.939Z" fill="#38312D"/>
<path d="M117.912 184.939C114.103 184.372 108.294 176.847 99.5117 184.117C102.427 184.328 107.225 192.747 117.912 184.939Z" fill="#F4D5B2"/>
<path d="M118.108 185.208C109.959 191.162 105.16 187.905 101.991 185.753C101.262 185.14 100.409 184.693 99.4898 184.444L98.6683 184.386L99.3008 183.863C105.946 178.359 110.933 181.136 114.641 183.136C115.665 183.792 116.786 184.283 117.963 184.59L118.763 184.706L118.108 185.208ZM102.361 185.208C105.269 187.207 109.711 190.202 117.127 185.099C116.152 184.735 115.213 184.282 114.321 183.746C110.729 181.762 106.28 179.312 100.246 183.964C100.993 184.299 101.703 184.714 102.361 185.2V185.208Z" fill="#38312D"/>
<path d="M117.912 184.939C117.912 184.939 109.806 185.353 106.28 183.674C109.072 185.549 114.379 185.477 114.379 185.477C114.379 185.477 111.718 186.4 110.082 186.131C111.122 187.04 117.912 184.939 117.912 184.939Z" fill="#38312D"/>
<path d="M125.153 182.263C123.35 185.673 125.996 194.804 114.975 197.596C116.502 195.117 112.532 186.276 125.153 182.263Z" fill="#F4D5B2"/>
<path d="M125.444 182.416C124.993 183.546 124.728 184.742 124.659 185.957C124.121 190.115 123.394 195.8 115.026 197.923L114.233 198.12L114.662 197.393C115.019 196.833 115.055 195.8 115.099 194.601C115.229 190.769 115.426 184.975 125.051 181.922L125.822 181.674L125.444 182.416ZM123.99 185.877C124.083 184.838 124.273 183.811 124.557 182.809C116.058 185.775 115.833 191.097 115.746 194.659C115.757 195.48 115.677 196.299 115.506 197.102C122.863 194.979 123.474 189.948 123.997 185.877H123.99Z" fill="#38312D"/>
<path d="M125.153 182.263C125.153 182.263 120.028 188.559 119.337 192.383C119.475 189.025 122.667 184.779 122.667 184.779C122.667 184.779 120.347 186.378 119.606 187.861C119.446 186.502 125.153 182.263 125.153 182.263Z" fill="#38312D"/>
<path d="M125.153 182.263C121.409 181.456 116.051 173.59 106.869 180.3C109.733 180.693 114.001 189.395 125.153 182.263Z" fill="#F4D5B2"/>
<path d="M125.327 182.547C116.829 187.978 112.241 184.43 109.21 182.082C108.514 181.432 107.689 180.936 106.789 180.627L105.975 180.518L106.644 180.031C113.615 174.942 118.457 178.032 121.99 180.279C122.968 181 124.056 181.56 125.211 181.936L126.004 182.103L125.327 182.547ZM109.61 181.558C112.423 183.739 116.64 187.003 124.36 182.365C123.407 181.941 122.494 181.43 121.634 180.838C118.166 178.657 113.884 175.909 107.581 180.184C108.304 180.568 108.984 181.029 109.61 181.558V181.558Z" fill="#38312D"/>
<path d="M125.153 182.263C125.153 182.263 117.047 182.176 113.637 180.3C116.313 182.351 121.634 182.605 121.634 182.605C121.634 182.605 118.915 183.368 117.309 182.99C118.246 183.935 125.153 182.263 125.153 182.263Z" fill="#38312D"/>
<path d="M131.231 180.671C129.18 183.943 131.136 193.241 119.911 195.211C121.642 192.849 118.348 183.732 131.231 180.671Z" fill="#F4D5B2"/>
<path d="M131.507 180.846C130.975 181.941 130.622 183.114 130.46 184.321C129.617 188.421 128.468 194.041 119.969 195.531L119.155 195.669L119.642 195.008C120.051 194.149 120.269 193.211 120.282 192.26C120.696 188.45 121.329 182.685 131.187 180.351L131.972 180.162L131.507 180.846ZM129.806 184.183C129.981 183.157 130.248 182.15 130.605 181.173C121.881 183.499 121.322 188.792 120.936 192.332C120.883 193.153 120.739 193.965 120.507 194.753C127.952 193.183 128.991 188.21 129.806 184.183V184.183Z" fill="#38312D"/>
<path d="M131.231 180.671C131.231 180.671 125.647 186.574 124.688 190.333C125.073 186.982 128.57 182.998 128.57 182.998C128.57 182.998 126.134 184.452 125.291 185.84C125.226 184.473 131.231 180.671 131.231 180.671Z" fill="#38312D"/>
<path d="M131.231 180.671C127.53 179.595 122.797 171.351 113.114 177.349C115.971 177.952 119.577 186.953 131.231 180.671Z" fill="#F4D5B2"/>
<path d="M131.383 180.962C122.492 185.753 118.196 181.878 115.338 179.304C114.459 178.505 113.688 177.807 113.041 177.676L112.241 177.501L112.968 177.072C120.297 172.521 124.898 175.953 128.235 178.461C129.161 179.252 130.206 179.89 131.332 180.351L132.11 180.577L131.383 180.962ZM115.789 178.846C118.428 181.224 122.383 184.786 130.431 180.744C129.513 180.25 128.642 179.673 127.828 179.021C124.542 176.563 120.471 173.532 113.863 177.32C114.558 177.757 115.204 178.269 115.789 178.846V178.846Z" fill="#38312D"/>
<path d="M131.231 180.671C131.231 180.671 123.132 179.98 119.897 177.828C122.412 180.068 127.676 180.737 127.676 180.737C127.676 180.737 124.913 181.296 123.314 180.802C124.215 181.82 131.231 180.671 131.231 180.671Z" fill="#38312D"/>
<path d="M139.715 180.075C137.33 183.107 138.261 192.558 126.912 193.321C128.89 191.155 126.578 181.754 139.715 180.075Z" fill="#F4D5B2"/>
<path d="M139.969 180.3C139.325 181.334 138.849 182.462 138.559 183.645C137.287 187.636 135.549 193.096 126.927 193.67L126.113 193.728L126.665 193.118C127.158 192.304 127.47 191.394 127.581 190.449C128.41 186.705 129.653 181.049 139.664 179.77L140.464 179.668L139.969 180.3ZM137.926 183.441C138.206 182.439 138.578 181.466 139.039 180.533C130.147 181.922 128.999 187.127 128.235 190.602C128.098 191.41 127.871 192.2 127.559 192.958C135.142 192.173 136.676 187.323 137.926 183.419V183.441Z" fill="#38312D"/>
<path d="M139.715 180.075C139.715 180.075 133.535 185.346 132.154 188.974C132.881 185.695 136.792 182.103 136.792 182.103C136.792 182.103 134.226 183.252 133.223 184.575C133.339 183.208 139.715 180.075 139.715 180.075Z" fill="#38312D"/>
<path d="M139.715 180.075C136.145 178.621 132.321 169.897 122.056 174.84C124.833 175.749 127.45 185.084 139.715 180.075Z" fill="#F4D5B2"/>
<path d="M139.838 180.38C130.489 184.197 126.629 179.879 124.062 177.029C123.503 176.261 122.783 175.624 121.954 175.16L121.169 174.899L121.896 174.55C129.668 170.805 133.877 174.702 136.952 177.559C137.79 178.431 138.759 179.167 139.824 179.741L140.551 180.046L139.838 180.38ZM124.571 176.578C126.934 179.232 130.489 183.201 138.922 180.031C138.064 179.441 137.261 178.774 136.523 178.039C133.513 175.248 129.791 171.794 122.812 174.862C123.454 175.372 124.041 175.947 124.564 176.578H124.571Z" fill="#38312D"/>
<path d="M139.715 180.075C139.715 180.075 131.718 178.526 128.744 176.04C131.005 178.541 136.174 179.748 136.174 179.748C136.174 179.748 133.368 180.002 131.849 179.341C132.619 180.475 139.715 180.075 139.715 180.075Z" fill="#38312D"/>
<path d="M148.65 192.114C154.191 183.105 162.215 175.888 171.758 171.328C181.301 166.767 191.957 165.059 202.447 166.407L202.36 167.061C192 165.734 181.477 167.424 172.053 171.929C162.63 176.433 154.705 183.56 149.231 192.456C145.313 198.788 144.673 198.527 148.65 192.114Z" fill="#F4D5B2"/>
<path d="M197.271 166.552C200.986 167.592 205.799 175.786 215.446 169.693C212.56 169.112 208.867 160.155 197.271 166.552Z" fill="#F4D5B2"/>
<path d="M196.406 166.647L197.133 166.262C205.973 161.376 210.321 165.215 213.193 167.759C213.84 168.457 214.631 169.005 215.512 169.366L216.319 169.526L215.592 169.969C208.322 174.586 203.669 171.198 200.288 168.726C199.357 167.944 198.306 167.316 197.177 166.865L196.406 166.647ZM214.676 169.759C213.975 169.33 213.324 168.825 212.735 168.254C210.066 165.898 206.075 162.372 198.071 166.502C198.994 166.983 199.87 167.551 200.688 168.195C204.003 170.616 208.096 173.612 214.676 169.759Z" fill="#38312D"/>
<path d="M197.271 166.552C197.271 166.552 205.37 167.156 208.634 169.279C206.097 167.061 200.826 166.465 200.826 166.465C200.826 166.465 203.582 165.876 205.188 166.356C204.287 165.331 197.271 166.552 197.271 166.552Z" fill="#38312D"/>
<path d="M191.535 166.414C194.589 168.763 196.014 178.156 207.217 176.076C204.767 174.484 204.672 164.779 191.535 166.414Z" fill="#F4D5B2"/>
<path d="M190.699 166.182L191.492 166.08C201.517 164.837 204.12 170.02 205.843 173.445C206.184 174.334 206.715 175.137 207.398 175.8L208.082 176.251L207.275 176.404C198.791 177.974 195.752 173.11 193.527 169.562C192.959 168.484 192.222 167.502 191.346 166.654L190.699 166.182ZM206.468 175.858C205.976 175.199 205.559 174.487 205.225 173.735C203.625 170.566 201.233 165.804 192.269 166.661C192.943 167.454 193.544 168.306 194.065 169.206C196.29 172.688 198.965 176.992 206.468 175.858Z" fill="#38312D"/>
<path d="M191.535 166.414C191.535 166.414 198.805 169.991 201.066 173.168C199.532 170.173 194.865 167.65 194.865 167.65C194.865 167.65 197.642 168.13 198.936 169.17C198.471 167.876 191.535 166.414 191.535 166.414Z" fill="#38312D"/>
<path d="M191.535 166.407C194.625 164.102 196.181 154.731 207.355 156.956C204.89 158.541 204.65 168.225 191.535 166.407Z" fill="#F4D5B2"/>
<path d="M190.692 166.625L191.339 166.145C192.234 165.319 192.99 164.355 193.578 163.288C195.846 159.769 198.958 154.949 207.391 156.643L208.198 156.81L207.471 157.247C206.783 157.903 206.242 158.698 205.886 159.58C204.112 162.983 201.43 168.123 191.433 166.734L190.692 166.625ZM206.628 157.174C199.111 155.931 196.355 160.198 194.131 163.644C193.602 164.542 192.989 165.387 192.299 166.167C201.248 167.156 203.72 162.43 205.385 159.275C205.724 158.533 206.141 157.829 206.628 157.174V157.174Z" fill="#38312D"/>
<path d="M191.535 166.407C191.535 166.407 198.878 162.939 201.161 159.791C199.59 162.765 194.887 165.215 194.887 165.215C194.887 165.215 197.664 164.771 198.972 163.761C198.514 165.033 191.535 166.407 191.535 166.407Z" fill="#38312D"/>
<path d="M183.931 167.476C187.13 169.657 189.122 178.919 200.172 176.156C197.598 174.702 196.908 165.033 183.931 167.476Z" fill="#F4D5B2"/>
<path d="M183.044 167.301L183.836 167.149C193.76 165.295 196.675 170.297 198.609 173.612C199 174.479 199.579 175.248 200.303 175.866L201.03 176.273L200.237 176.476C191.862 178.57 188.533 173.903 186.097 170.493C185.455 169.457 184.653 168.529 183.72 167.745L183.044 167.301ZM199.401 175.982C198.874 175.352 198.416 174.667 198.035 173.939C196.239 170.871 193.564 166.269 184.665 167.672C185.388 168.425 186.041 169.242 186.613 170.115C189.02 173.452 191.928 177.581 199.401 175.982Z" fill="#38312D"/>
<path d="M183.931 167.476C183.931 167.476 191.426 170.602 193.862 173.634C192.146 170.726 187.319 168.508 187.319 168.508C187.319 168.508 190.125 168.813 191.477 169.773C190.925 168.508 183.931 167.476 183.931 167.476Z" fill="#38312D"/>
<path d="M183.931 167.476C186.839 164.982 187.842 155.531 199.132 157.072C196.733 158.795 197.089 168.479 183.931 167.476Z" fill="#F4D5B2"/>
<path d="M183.066 167.745L183.684 167.221C184.521 166.341 185.214 165.332 185.734 164.233C187.784 160.598 190.597 155.574 199.14 156.745L199.954 156.861L199.292 157.348C198.637 158.04 198.141 158.866 197.838 159.769C196.275 163.274 193.92 168.566 183.858 167.803L183.066 167.745ZM198.384 157.327C190.808 156.549 188.322 160.962 186.315 164.553C185.845 165.489 185.29 166.379 184.658 167.214C193.651 167.636 195.817 162.772 197.257 159.522C197.553 158.752 197.931 158.016 198.384 157.327V157.327Z" fill="#38312D"/>
<path d="M183.931 167.476C183.931 167.476 191.041 163.557 193.127 160.278C191.739 163.346 187.195 166.094 187.195 166.094C187.195 166.094 189.95 165.476 191.194 164.386C190.765 165.68 183.931 167.476 183.931 167.476Z" fill="#38312D"/>
<path d="M177.788 168.952C181.139 170.864 183.814 179.98 194.632 176.396C191.993 175.138 190.583 165.549 177.788 168.952Z" fill="#F4D5B2"/>
<path d="M176.923 168.843L177.708 168.632C187.457 166.036 190.743 170.813 192.917 173.975C193.375 174.81 194.01 175.534 194.778 176.098L195.505 176.447L194.719 176.709C186.533 179.421 182.855 175.022 180.179 171.801C179.463 170.817 178.595 169.953 177.606 169.242L176.923 168.843ZM193.891 176.28C193.318 175.693 192.808 175.047 192.371 174.353C190.357 171.445 187.34 167.032 178.558 169.097C179.335 169.793 180.048 170.557 180.688 171.38C183.327 174.528 186.577 178.432 193.891 176.28Z" fill="#38312D"/>
<path d="M177.788 168.952C177.788 168.952 185.494 171.511 188.147 174.353C186.221 171.583 181.248 169.73 181.248 169.73C181.248 169.73 184.069 169.831 185.494 170.675C184.876 169.461 177.788 168.952 177.788 168.952Z" fill="#38312D"/>
<path d="M177.788 168.952C180.536 166.247 180.797 156.745 192.175 157.45C189.943 159.333 191.026 168.966 177.788 168.952Z" fill="#F4D5B2"/>
<path d="M176.981 169.279L177.555 168.719C178.331 167.78 178.949 166.722 179.387 165.586C181.154 161.79 183.582 156.585 192.197 157.116L193.011 157.174L192.386 157.705C191.788 158.443 191.362 159.305 191.135 160.227C189.834 163.862 187.886 169.293 177.788 169.279H176.981ZM191.484 157.763C183.865 157.559 181.713 162.161 179.983 165.876C179.585 166.836 179.098 167.756 178.529 168.624C187.537 168.385 189.332 163.368 190.532 160.024C190.766 159.238 191.086 158.48 191.484 157.763V157.763Z" fill="#38312D"/>
<path d="M177.788 168.952C177.788 168.952 184.585 164.51 186.424 161.085C185.268 164.248 180.943 167.316 180.943 167.316C180.943 167.316 183.64 166.502 184.796 165.316C184.505 166.647 177.788 168.952 177.788 168.952Z" fill="#38312D"/>
<path d="M170.031 172.441C173.564 173.99 177.199 182.765 187.573 178.047C184.818 177.08 182.39 167.701 170.031 172.441Z" fill="#F4D5B2"/>
<path d="M169.158 172.427L169.885 172.136C179.336 168.501 183.08 172.914 185.581 175.822C186.127 176.6 186.833 177.253 187.653 177.734L188.431 178.01L187.704 178.352C179.845 181.922 175.73 177.93 172.713 175.022C171.902 174.114 170.946 173.345 169.885 172.747L169.158 172.427ZM186.824 178.01C186.19 177.49 185.615 176.903 185.109 176.258C182.789 173.554 179.293 169.519 170.83 172.499C171.678 173.107 172.467 173.794 173.186 174.55C176.13 177.392 179.78 180.933 186.839 178.01H186.824Z" fill="#38312D"/>
<path d="M170.031 172.441C170.031 172.441 177.969 174.164 180.936 176.709C178.755 174.164 173.593 172.848 173.593 172.848C173.593 172.848 176.399 172.645 177.904 173.336C177.133 172.194 170.031 172.441 170.031 172.441Z" fill="#38312D"/>
<path d="M170.031 172.441C172.473 169.46 171.724 159.987 183.117 159.479C181.096 161.594 183.204 171.053 170.031 172.441Z" fill="#F4D5B2"/>
<path d="M169.26 172.856L169.776 172.23C170.432 171.211 170.922 170.095 171.23 168.923C172.59 164.96 174.443 159.529 183.066 159.144L183.887 159.108L183.32 159.704C182.862 160.176 182.593 161.158 182.339 162.35C181.437 166.08 180.07 171.714 170.031 172.768L169.26 172.856ZM182.477 159.849C174.88 160.445 173.237 165.258 171.906 169.133C171.602 170.135 171.211 171.108 170.736 172.041C179.663 170.835 180.914 165.665 181.75 162.212C181.904 161.4 182.148 160.608 182.477 159.849V159.849Z" fill="#38312D"/>
<path d="M170.031 172.441C170.031 172.441 176.319 167.301 177.78 163.717C176.973 166.981 172.989 170.493 172.989 170.493C172.989 170.493 175.585 169.395 176.624 168.094C176.472 169.439 170.031 172.441 170.031 172.441Z" fill="#38312D"/>
</svg>
