<?xml version="1.0" encoding="UTF-8"?>
<svg id="_Слой_2" data-name="Слой 2" xmlns="http://www.w3.org/2000/svg" viewBox="0 0 148.86 75.79">
  <defs>
    <style>
      .cls-1 {
        letter-spacing: -.04em;
      }

      .cls-2 {
        letter-spacing: .04em;
      }

      .cls-3 {
        stroke: #000;
        stroke-miterlimit: 10;
      }

      .cls-4 {
        letter-spacing: .04em;
      }

      .cls-5 {
        letter-spacing: .03em;
      }

      .cls-6 {
        letter-spacing: .04em;
      }

      .cls-7 {
        font-family: AcuminConcept-Regular, 'Acumin Variable Concept';
        font-size: 23.92px;
        font-variation-settings: 'wght' 400, 'wdth' 100, 'slnt' 0;
      }

      .cls-8 {
        letter-spacing: .04em;
      }

      .cls-9 {
        letter-spacing: .04em;
      }

      .cls-10 {
        letter-spacing: .04em;
      }

      .cls-11 {
        letter-spacing: .04em;
      }
    </style>
  </defs>
  <g id="_Слой_2-2" data-name="Слой 2">
    <g>
      <g>
        <path class="cls-3" d="m29.44,51.93c.47-3.48-7.98-4.96-8.44-10.18-.3-3.38,2.87-7.09,6.14-8.48,4.3-1.83,6.98,1.08,9.98-.93,3.53-2.36,1.4-7.45,4.61-9.16,2.73-1.46,3.68,1.75,10.87,1.65,2.01-.03,4.68-2.18,6.27-2.48,10.02-1.88,48.25-13.97,50.54-14.69.31-.26,2.67.02,5.42.42,3.2.47,4.64,3.22,4.78,3.48,1.69-.13,3.38-.27,5.07-.4-2.39-3.05-4.78-6.11-7.16-9.16-21.22,6.27-42.45,12.54-63.67,18.81.34-1.1.71-2.89.34-5-.55-3.18-2.65-7.36-5.71-7.89-2.35-.41-3.43,1.64-8.36,4.66-3.13,1.92-6.55,4.01-10.49,4.58-6.31.91-7.54-3.03-15.1-2.88-2.16.04-8.27.16-11.69,4.41-2.16,2.69-2.24,5.8-2.32,8.82-.19,7.19,3.03,12.55,4.46,14.84,2.42,3.91,5.04,6.15,7.76,8.48,3.81,3.26,5.88,4.98,8.96,5.09,3.32.12,7.44-1.66,7.76-3.99Z"/>
        <ellipse class="cls-3" cx="107.31" cy="3.24" rx=".74" ry=".73"/>
        <ellipse class="cls-3" cx="111.27" cy="2.22" rx=".74" ry=".73"/>
        <ellipse class="cls-3" cx="115.11" cy="1.23" rx=".74" ry=".73"/>
      </g>
      <text class="cls-7" transform="translate(28.28 51.33)"><tspan class="cls-2" x="0" y="0">G</tspan><tspan class="cls-11" x="18.42" y="0">U</tspan><tspan class="cls-10" x="36.48" y="0">I</tspan><tspan class="cls-1" x="44.13" y="0">T</tspan><tspan class="cls-5" x="56.49" y="0">A</tspan><tspan class="cls-9" x="73.12" y="0">R</tspan></text>
      <text class="cls-7" transform="translate(45.17 69.52)"><tspan class="cls-8" x="0" y="0">S</tspan><tspan class="cls-4" x="15.45" y="0">C</tspan><tspan class="cls-6" x="32.77" y="0">HOOL</tspan></text>
    </g>
  </g>
</svg>