<svg width="231" height="231" viewBox="0 0 231 231" fill="none" xmlns="http://www.w3.org/2000/svg">
<path fill-rule="evenodd" clip-rule="evenodd" d="M228.958 130.731C228.547 133.73 228.015 136.721 227.361 139.698L90.352 2.68958C93.3167 2.03866 96.307 1.50437 99.3155 1.08838L228.958 130.731ZM227.101 140.853L89.1975 2.94926C86.3984 3.59389 83.6232 4.34279 80.8781 5.19453L224.851 149.167C225.709 146.413 226.458 143.64 227.101 140.853ZM229.123 129.482C229.533 126.234 229.801 122.979 229.932 119.726L110.307 0.100656C107.046 0.237053 103.795 0.511736 100.564 0.922668L229.123 129.482ZM229.778 107.593C230.012 111.17 230.08 114.762 229.979 118.358L111.672 0.0516575C115.247 -0.0554292 118.832 0.0036913 122.417 0.231698L229.778 107.593ZM229.668 106.069C229.346 101.98 228.806 97.9142 228.054 93.8896L136.097 1.93288C132.059 1.18139 128 0.651264 123.938 0.338606L229.668 106.069ZM223.767 77.624C225.396 82.3719 226.713 87.2193 227.711 92.1327L137.852 2.27377C142.735 3.26187 147.583 4.57558 152.365 6.22183L223.767 77.624ZM222.991 75.4336C220.405 68.3643 217.122 61.5304 213.167 55.0453L175.056 16.9341C168.445 12.8836 161.579 9.58049 154.56 7.00261L222.991 75.4336ZM178.989 19.4529C191.908 28.0942 202.53 38.9262 210.674 51.138L178.989 19.4529ZM224.51 150.241C223.671 152.845 222.733 155.43 221.698 157.993L72.04 8.33542C74.5957 7.30845 77.1852 6.37417 79.8031 5.53382L224.51 150.241ZM63.769 12.0433C66.1555 10.8585 68.5792 9.75857 71.0351 8.74473L221.287 158.996C220.273 161.437 219.169 163.856 217.975 166.249L63.769 12.0433ZM62.8276 12.5161L217.5 167.189C216.33 169.481 215.075 171.749 213.736 173.989L56.0175 16.2707C58.2488 14.9399 60.5204 13.688 62.8276 12.5161ZM211.985 176.825C212.398 176.176 212.804 175.524 213.203 174.871L55.135 16.8024C52.9673 18.1218 50.8385 19.5163 48.7527 20.9849L209.019 181.251C210.036 179.806 211.025 178.33 211.985 176.825ZM208.432 182.078C206.959 184.134 205.429 186.127 203.846 188.057L41.953 26.164C43.8994 24.5629 45.8917 23.0321 47.9261 21.5724L208.432 182.078ZM198.226 194.416C199.937 192.618 201.598 190.757 203.206 188.831L41.1802 26.8055C39.2753 28.4007 37.4156 30.0641 35.6048 31.7948L198.226 194.416ZM134.851 228.286C131.765 228.828 128.656 229.244 125.533 229.533L0.474102 104.474C0.758088 101.36 1.17031 98.2481 1.71252 95.148L134.851 228.286ZM136.048 228.07L1.92866 93.95C2.46495 91.0652 3.11424 88.1913 3.87793 85.3345L144.665 226.122C141.819 226.88 138.944 227.53 136.048 228.07ZM114.042 230.021C117.447 230.046 120.847 229.921 124.231 229.646L0.362803 105.777C0.0916451 109.18 -0.0268331 112.586 0.00507475 115.984L114.042 230.021ZM112.608 230.001C108.823 229.926 105.033 229.663 101.252 229.21L0.840483 128.799C0.382883 125.027 0.11082 121.23 0.0275284 117.421L112.608 230.001ZM86.5189 226.456C90.8599 227.567 95.2384 228.415 99.6321 229.004L1.04904 130.421C1.6492 134.843 2.50485 139.227 3.61073 143.548L86.5189 226.456ZM84.5943 225.946L4.12094 145.472C5.66046 151.084 7.62443 156.583 10.0012 161.917L68.1122 220.028C73.5064 222.445 79.0165 224.414 84.5943 225.946ZM65.4769 218.807L11.2092 164.539C20.1631 183.352 34.3356 199.96 53.1995 211.985C57.2016 214.536 61.3017 216.808 65.4769 218.807ZM4.18099 84.2234L145.777 225.819C148.479 225.07 151.155 224.222 153.799 223.277L6.73189 76.2096C5.77893 78.8612 4.92903 81.5343 4.18099 84.2234ZM154.837 222.9L7.10993 75.1734C8.0421 72.6562 9.06769 70.159 10.1877 67.6865L162.336 219.835C159.87 220.946 157.369 221.968 154.837 222.9ZM163.308 219.392L10.6323 66.7169C11.729 64.3545 12.9124 62.0154 14.1836 59.7034L170.333 215.853C168.029 217.115 165.685 218.295 163.308 219.392ZM171.244 215.349L14.6887 58.7944C15.7468 56.9101 16.8636 55.0444 18.0396 53.1995C18.2497 52.8699 18.4612 52.5417 18.674 52.215L177.829 211.37C175.674 212.773 173.478 214.1 171.244 215.349ZM23.6286 45.1906C22.1078 47.1858 20.6421 49.2432 19.2352 51.3619L178.683 210.809C180.781 209.417 182.838 207.951 184.851 206.413L23.6286 45.1906ZM185.65 205.797L24.2435 44.3913C25.7863 42.4035 27.3844 40.4785 29.0342 38.6173L191.416 200.999C189.54 202.667 187.617 204.267 185.65 205.797ZM192.161 200.33L29.7018 37.8706C31.3787 36.0117 33.1076 34.2175 34.8848 32.489L197.533 195.137C195.792 196.934 194 198.665 192.161 200.33Z" fill="url(#paint0_linear_23_69)" fill-opacity="0.4"/>
<defs>
<linearGradient id="paint0_linear_23_69" x1="103.933" y1="4.2494" x2="141.016" y2="232.447" gradientUnits="userSpaceOnUse">
<stop stop-color="#FF662C"/>
<stop offset="0.476983" stop-color="#5579D3"/>
<stop offset="1" stop-color="#3D3E3F"/>
</linearGradient>
</defs>
</svg>
